<svg id="Layer_1" xmlns="http://www.w3.org/2000/svg" viewBox="0 0 168.3 169.3"><style>.st0{fill:#d6a476}</style><path class="st0" d="M50 76.3l.1-10.3 6.8-6 25.5-10.8 18.8 5.2 21 23.2-3.1 21s-2.5 8.4-3.9 9.1c-1.4.7-28.7 13.3-28.7 13.3L65 110.7 50 92V76.3z"/><path d="M3.9 100.9h-.6l.3 1.4c.1-.1.3-.2.5-.2.7-.1 1.3.3 1.5 1 .2.7-.2 1.3-.9 1.5h-.6l.4 1.4c.1-.1.3-.2.5-.3.7-.2 1.3.2 1.5.9.2.7-.2 1.3-.8 1.5-.2.1-.4.1-.6 0l.4 1.4c.1-.1.3-.2.5-.3.7-.2 1.3.2 1.6.8.2.6-.1 1.4-.8 1.6-.2.1-.4.1-.6.1l.5 1.4c.1-.1.3-.2.5-.3.7-.2 1.3.1 1.6.7.3.6-.1 1.4-.7 1.6-.2.1-.4.1-.6.1l.5 1.4c.1-.1.3-.3.5-.3.6-.3 1.4 0 1.6.7.3.6 0 1.4-.6 1.7-.2.1-.4.1-.6.1l.6 1.3.4-.4c.6-.3 1.4 0 1.7.6.3.6.1 1.4-.6 1.7-.2.1-.4.1-.6.1l.7 1.3c.1-.2.3-.3.4-.4.6-.3 1.4-.1 1.7.5.3.6.1 1.4-.5 1.7-.2.1-.4.2-.5.2l.4.6c.1.2.2.3.2.4.1.1.1.2.1.2.1-.2.2-.3.4-.4.6-.4 1.4-.2 1.7.4.4.6.2 1.4-.4 1.7-.2.1-.4.2-.5.2l.4.6.4.6c.1-.2.2-.3.4-.4.6-.4 1.4-.2 1.7.3.4.6.2 1.3-.3 1.7-.2.1-.3.2-.5.2l.4.6.4.6c.1-.2.2-.3.4-.4.6-.4 1.3-.3 1.8.3.4.5.3 1.3-.3 1.8-.2.1-.3.2-.5.2l.4.6c.2.3.5.6.5.6.1-.2.2-.3.4-.4.5-.4 1.3-.3 1.8.2.4.5.4 1.3-.2 1.8-.2.1-.3.2-.5.3 0 0 .2.3.5.6.2.3.5.6.5.6.1-.2.2-.3.3-.5.5-.5 1.3-.4 1.8.1s.4 1.3-.1 1.8c-.1.1-.3.2-.5.3l.5.5.5.5c.1-.2.2-.3.3-.5.5-.5 1.3-.5 1.8 0s.5 1.3 0 1.8c-.1.1-.3.2-.5.3l1.1 1c.1-.2.2-.3.3-.5.5-.5 1.3-.5 1.8 0s.5 1.3.1 1.8c-.1.1-.3.3-.5.3l1.1 1c0-.2.1-.4.3-.5.5-.5 1.2-.6 1.8-.1.5.5.6 1.2.2 1.8-.1.2-.3.3-.5.3l1.1.9c0-.2.1-.4.2-.5.4-.5 1.2-.6 1.8-.2.5.4.7 1.2.2 1.7-.1.2-.3.3-.4.4l1.2.9c0-.2.1-.4.2-.5.4-.6 1.2-.7 1.7-.3.6.4.7 1.2.3 1.7-.1.2-.3.3-.4.4l1.2.8c0-.2.1-.4.2-.5.4-.6 1.1-.7 1.7-.4.6.4.8 1.1.4 1.7-.1.2-.2.3-.4.4l1.3.8c0-.2.1-.4.2-.5.4-.6 1.1-.8 1.7-.4.6.3.8 1.1.5 1.7-.1.2-.2.3-.4.4l1.3.7c0-.2.1-.4.1-.6.3-.6 1.1-.8 1.7-.5.6.3.9 1.1.6 1.7-.1.2-.2.3-.4.4l1.3.7c0-.2 0-.4.1-.6.3-.6 1-.9 1.7-.6.6.3.9 1 .6 1.7-.1.2-.2.3-.3.5l1.3.6c0-.2 0-.4.1-.6.3-.6 1-.9 1.6-.7.6.3.9 1 .7 1.6-.1.2-.2.3-.3.5l1.4.5c0-.2 0-.4.1-.6.2-.6 1-1 1.6-.8.6.2 1 .9.8 1.6-.1.2-.2.4-.3.5 0 0 .3.1.7.2.2.1.3.1.5.2.1 0 .2.1.2.1v-.6c.2-.7.9-1 1.6-.8.7.2 1 .9.8 1.6-.1.2-.2.4-.3.5 0 0 .4.1.7.2.4.1.7.2.7.2v-.6c.2-.7.9-1.1 1.5-.9.7.2 1.1.8.9 1.5 0 .2-.1.4-.3.5 0 0 .4.1.7.2.4.1.7.2.7.2 0-.2-.1-.4 0-.6.2-.7.8-1.1 1.5-1 .7.1 1.1.8 1 1.5 0 .2-.1.4-.2.5 0 0 .4.1.7.1.4.1.7.1.7.1-.1-.2-.1-.4 0-.6.1-.7.8-1.1 1.4-1 .7.1 1.1.7 1 1.4 0 .2-.1.4-.2.5 0 0 .4.1.7.1.4 0 .7.1.7.1-.1-.2-.1-.4-.1-.6.1-.7.7-1.2 1.4-1.1.7.1 1.2.7 1.1 1.4 0 .2-.1.4-.2.5 0 0 .4 0 .7.1h.7c-.1-.2-.1-.4-.1-.6.1-.7.7-1.2 1.3-1.2.7 0 1.2.6 1.2 1.3 0 .2-.1.4-.2.5h1.4c-.1-.2-.1-.4-.1-.6 0-.7.6-1.2 1.3-1.2.7 0 1.2.6 1.2 1.3 0 .2-.1.4-.1.6h1.4c-.1-.2-.1-.4-.1-.6 0-.7.5-1.3 1.2-1.3s1.3.5 1.3 1.2c0 .2 0 .4-.1.6h1.4c-.1-.2-.2-.3-.2-.5 0-.7.5-1.3 1.2-1.3s1.3.5 1.3 1.2c0 .2 0 .4-.1.6h.7c.4 0 .7-.1.7-.1-.1-.2-.2-.3-.2-.5-.1-.7.4-1.3 1.1-1.4.7-.1 1.3.4 1.4 1.1 0 .2 0 .4-.1.6 0 0 .4 0 .7-.1.4-.1.7-.1.7-.1-.1-.2-.2-.3-.2-.5-.1-.7.4-1.3 1-1.4.7-.1 1.3.4 1.4 1v.6s.4-.1.7-.1c.4-.1.7-.1.7-.1-.1-.1-.2-.3-.2-.5-.1-.7.3-1.3 1-1.5.7-.1 1.3.3 1.5 1v.6s.4-.1.7-.2c.4-.1.7-.2.7-.2-.1-.1-.2-.3-.3-.5-.2-.7.3-1.4.9-1.5.7-.2 1.4.2 1.5.9.1.2.1.4 0 .6 0 0 .4-.1.7-.2.4-.1.7-.2.7-.2-.1-.1-.2-.3-.3-.5-.2-.7.2-1.4.8-1.6.7-.2 1.4.2 1.6.8.1.2.1.4 0 .6 0 0 .1 0 .2-.1.1 0 .3-.1.5-.2.3-.1.7-.2.7-.2-.1-.1-.2-.3-.3-.5-.2-.7.1-1.4.8-1.6.6-.2 1.4.1 1.6.8.1.2.1.4.1.6l1.4-.5c-.1-.1-.3-.3-.3-.5-.2-.6.1-1.4.7-1.6.6-.2 1.4.1 1.6.7.1.2.1.4.1.6l1.3-.6c-.1-.1-.3-.3-.3-.5-.3-.6 0-1.4.6-1.7.6-.3 1.4 0 1.7.6.1.2.1.4.1.6l1.3-.7c-.2-.1-.3-.3-.4-.4-.3-.6-.1-1.4.6-1.7.6-.3 1.4-.1 1.7.5.1.2.1.4.1.6l1.3-.7c-.2-.1-.3-.2-.4-.4-.3-.6-.1-1.4.5-1.7.6-.3 1.4-.2 1.7.4.1.2.2.4.2.5l1.3-.8c-.2-.1-.3-.2-.4-.4-.4-.6-.2-1.4.4-1.7.6-.4 1.3-.2 1.7.4.1.2.2.4.2.5l1.2-.8c-.2-.1-.3-.2-.4-.4-.4-.6-.2-1.3.3-1.7.6-.4 1.3-.3 1.7.3.1.2.2.3.2.5l1.2-.9c-.2-.1-.3-.2-.4-.4-.4-.6-.3-1.3.2-1.7.5-.4 1.3-.3 1.8.2.1.2.2.3.2.5l1.1-.9c-.2-.1-.3-.2-.5-.3-.4-.5-.3-1.3.2-1.8.5-.4 1.3-.4 1.8.1.1.1.2.3.3.5l1.1-1c-.2-.1-.3-.2-.5-.3-.5-.5-.4-1.3.1-1.8s1.3-.5 1.8 0c.1.1.2.3.3.5l1.1-1c-.2-.1-.3-.2-.5-.3-.5-.5-.5-1.3 0-1.8s1.3-.5 1.8 0c.1.1.2.3.3.5l.5-.5.5-.5c-.2 0-.4-.1-.5-.3-.5-.5-.5-1.3-.1-1.8.5-.5 1.2-.6 1.8-.1.2.1.3.3.3.5 0 0 .2-.3.5-.6.2-.3.5-.6.5-.6-.2 0-.4-.1-.5-.3-.5-.4-.6-1.2-.2-1.8.4-.5 1.2-.6 1.8-.2.2.1.3.3.4.4 0 0 .2-.3.5-.6l.4-.6c-.2 0-.4-.1-.5-.2-.5-.4-.7-1.2-.3-1.8.4-.6 1.2-.7 1.8-.3.2.1.3.3.4.4l.4-.6.4-.6c-.2 0-.4-.1-.5-.2-.6-.4-.7-1.2-.3-1.7.4-.6 1.2-.7 1.7-.3.2.1.3.3.4.4l.4-.6.4-.6c-.2 0-.4-.1-.5-.2-.6-.4-.8-1.1-.4-1.7.4-.6 1.1-.8 1.7-.4.2.1.3.2.4.4 0 0 0-.1.1-.2s.2-.3.2-.4l.4-.6c-.2 0-.4-.1-.5-.2-.6-.3-.8-1.1-.5-1.7.3-.6 1.1-.8 1.7-.5.2.1.3.2.4.4l.7-1.3c-.2 0-.4 0-.6-.1-.6-.3-.9-1.1-.6-1.7.3-.6 1.1-.9 1.7-.6.2.1.3.2.4.4l.6-1.3c-.2 0-.4 0-.6-.1-.6-.3-.9-1-.6-1.7.3-.6 1-.9 1.6-.7.2.1.3.2.5.3l.5-1.4c-.2 0-.4 0-.6-.1-.6-.3-1-1-.7-1.6.3-.6 1-1 1.6-.7.2.1.3.2.5.3l.5-1.4c-.2 0-.4 0-.6-.1-.7-.2-1-.9-.8-1.6.2-.6.9-1 1.6-.8.2.1.4.2.5.3l.4-1.4h-.6c-.7-.2-1-.9-.8-1.5.2-.7.9-1.1 1.5-.9.2.1.4.1.5.3l.4-1.4h-.6c-.7-.2-1.1-.8-.9-1.5.1-.7.8-1.1 1.5-1 .2 0 .4.1.5.2l.3-1.4c-.2.1-.4.1-.6 0-.7-.1-1.1-.8-1-1.5l-.5-.1s-.2.9-.5 2.4c-.1.8-.4 1.8-.7 2.9-.2.6-.3 1.2-.5 1.8-.2.6-.4 1.3-.6 2.1-.9 2.9-2.1 6.4-4 10.2-1.8 3.8-4.2 8-7.2 12.3-3 4.2-6.7 8.5-11.1 12.6-2.2 2-4.5 4-7.1 5.8l-.9.7-1 .7c-.7.4-1.3.9-2 1.3-1.4.8-2.7 1.7-4.2 2.5-2.8 1.6-5.8 3-8.9 4.3-3.1 1.3-6.3 2.3-9.6 3.2-.8.2-1.7.4-2.5.6-.8.2-1.7.3-2.5.5-.4.1-.8.2-1.3.3l-1.3.2c-.9.1-1.7.3-2.6.4-3.4.4-6.9.6-10.4.7-3.5 0-6.9-.2-10.4-.7-.9-.1-1.7-.3-2.6-.4l-1.3-.2c-.4-.1-.8-.2-1.3-.3-.8-.2-1.7-.3-2.5-.5s-1.7-.4-2.5-.6c-3.3-.9-6.5-1.9-9.6-3.2-3.1-1.3-6.1-2.7-8.9-4.3-1.4-.8-2.8-1.7-4.2-2.5-.7-.4-1.3-.9-2-1.3l-1-.7-.9-.7c-2.6-1.8-4.9-3.8-7.1-5.8-4.4-4.1-8.1-8.4-11.1-12.6-3-4.3-5.4-8.4-7.2-12.3-1.8-3.8-3.1-7.3-4-10.2l-.6-2.1c-.2-.6-.3-1.3-.5-1.8-.3-1.1-.5-2.1-.7-2.9-.3-1.6-.5-2.4-.5-2.4l-.5.1c1.7.7 1.2 1.4.6 1.5zM164.4 68.4h.6l-.3-1.4c-.1.1-.3.2-.5.2-.7.1-1.3-.3-1.5-.9-.2-.7.2-1.3.9-1.5h.6l-.4-1.4c-.1.1-.3.2-.5.3-.7.2-1.3-.2-1.5-.9-.2-.7.2-1.3.8-1.5.2-.1.4-.1.6 0l-.4-1.4c-.1.1-.3.2-.5.3-.7.2-1.3-.2-1.6-.8-.2-.6.1-1.4.8-1.6.2-.1.4-.1.6-.1l-.5-1.4c-.1.1-.3.2-.5.3-.7.2-1.3-.1-1.6-.7-.3-.6.1-1.4.7-1.6.2-.1.4-.1.6-.1l-.5-1.4c-.1.1-.3.3-.5.3-.6.3-1.4 0-1.6-.7-.3-.6 0-1.4.6-1.7.2-.1.4-.1.6-.1l-.6-1.3-.4.4c-.6.3-1.4 0-1.7-.6-.3-.6-.1-1.4.6-1.7.2-.1.4-.1.6-.1l-.7-1.3c-.1.2-.3.3-.4.4-.6.3-1.4.1-1.7-.5-.3-.6-.1-1.4.5-1.7.2-.1.4-.2.5-.2l-.4-.6c-.1-.2-.2-.3-.2-.4-.1-.1-.1-.2-.1-.2-.1.2-.2.3-.4.4-.6.3-1.4.2-1.7-.4-.4-.6-.2-1.4.4-1.7.2-.1.4-.2.5-.2l-.4-.6-.4-.6c-.1.2-.2.3-.4.4-.6.4-1.4.2-1.7-.3-.4-.6-.2-1.3.3-1.7.2-.1.3-.2.5-.2l-.4-.6-.4-.6c-.1.2-.2.3-.4.4-.6.4-1.4.3-1.8-.3-.4-.6-.3-1.3.3-1.8.2-.1.3-.2.5-.2l-.4-.6c-.2-.3-.5-.6-.5-.6-.1.2-.2.3-.4.4-.5.4-1.3.3-1.8-.2-.4-.5-.4-1.3.2-1.8.2-.1.3-.2.5-.3 0 0-.2-.3-.5-.6-.2-.3-.5-.6-.5-.6-.1.2-.2.3-.3.5-.5.5-1.3.4-1.8-.1s-.4-1.3.1-1.8c.1-.1.3-.2.5-.3l-.5-.5-.5-.5c-.1.2-.2.3-.3.5-.5.5-1.3.5-1.8 0s-.5-1.3 0-1.8c.1-.1.3-.2.5-.3l-1.1-1c-.1.2-.1.3-.3.5-.5.5-1.3.5-1.8 0s-.5-1.3-.1-1.8c.1-.1.3-.3.5-.3l-1.1-1c0 .2-.1.4-.3.5-.5.5-1.2.6-1.8.1-.5-.5-.6-1.2-.2-1.8.1-.2.3-.3.5-.3l-1.1-.9c0 .2-.1.4-.2.5-.4.5-1.2.6-1.8.2-.5-.4-.7-1.2-.2-1.7.1-.2.3-.3.4-.4l-1.2-.9c0 .2-.1.4-.2.5-.4.6-1.2.7-1.7.3-.6-.4-.7-1.2-.3-1.7.1-.2.3-.3.4-.4l-1.2-.8c0 .2-.1.4-.2.5-.4.6-1.1.7-1.7.4-.6-.4-.8-1.1-.4-1.7.1-.2.2-.3.4-.4l-1.3-.8c0 .2-.1.4-.2.5-.4.6-1.1.8-1.7.4-.6-.3-.8-1.1-.5-1.7.1-.2.2-.3.4-.4l-1.3-.7c0 .2-.1.4-.1.6-.3.6-1.1.8-1.7.5-.6-.3-.9-1.1-.6-1.7.1-.2.2-.3.4-.4l-1.3-.7c0 .2 0 .4-.1.6-.3.6-1 .9-1.7.6-.6-.3-.9-1-.6-1.7.1-.2.2-.3.3-.5l-1.3-.6c0 .2 0 .4-.1.6-.3.6-1 .9-1.6.7-.6-.3-.9-1-.7-1.6.1-.2.2-.3.3-.5l-1.4-.5c0 .2 0 .4-.1.6-.2.6-1 1-1.6.8-.6-.2-1-.9-.8-1.6.1-.2.2-.4.3-.5 0 0-.3-.1-.7-.2-.2-.1-.3-.1-.5-.2-.1 0-.2-.1-.2-.1v.6c-.2.7-.9 1-1.6.8-.7-.2-1-.9-.8-1.6.1-.2.2-.4.3-.5 0 0-.4-.1-.7-.2-.5-.1-.8-.2-.8-.2v.6c-.2.7-.9 1.1-1.5.9-.7-.2-1.1-.8-.9-1.5 0-.2.1-.4.3-.5 0 0-.4-.1-.7-.2-.4-.1-.7-.2-.7-.2 0 .2.1.4 0 .6-.2.7-.8 1.1-1.5 1-.7-.1-1.1-.8-1-1.5 0-.2.1-.4.2-.5 0 0-.4-.1-.7-.1-.4-.1-.7-.1-.7-.1.1.2.1.4 0 .6-.1.7-.8 1.1-1.4 1-.7-.1-1.1-.7-1-1.4 0-.2.1-.4.2-.5 0 0-.4-.1-.7-.1-.4 0-.7-.1-.7-.1.1.2.1.4.1.6-.1.7-.7 1.2-1.4 1.1-.7-.1-1.2-.7-1.1-1.4 0-.2.1-.4.2-.5 0 0-.4 0-.7-.1-.4 0-.7-.1-.7-.1-.3 0-.3.2-.3.4-.1.7-.7 1.2-1.3 1.2-.7 0-1.2-.6-1.2-1.3 0-.2.1-.4.2-.5 0 0-.4 0-.7-.1h-.7c.1.2.1.4.1.6-.2.6-.7 1.1-1.4 1.1s-1.2-.6-1.2-1.3c0-.2.1-.4.1-.6h-1.4c.1.2.1.4.1.6 0 .7-.6 1.3-1.3 1.3-.7 0-1.3-.5-1.3-1.2 0-.2 0-.4.1-.6h-.7c-.4 0-.7.1-.7.1.1.2.2.3.2.5 0 .7-.5 1.3-1.2 1.3s-1.3-.5-1.3-1.2c0-.2 0-.4.1-.6 0 0-.4 0-.7.1-.4 0-.7.1-.7.1.1.2.2.3.2.5.1.7-.4 1.3-1.1 1.4-.7.1-1.3-.4-1.4-1.1 0-.2 0-.4.1-.6 0 0-.4 0-.7.1-.6.2-1 .2-1 .2.1.2.2.3.2.5.1.7-.4 1.3-1 1.4-.7.1-1.3-.4-1.4-1v-.6s-.4.1-.7.1c-.4.1-.7.1-.7.1.1.1.2.3.2.5.1.7-.3 1.3-1 1.5-.7.1-1.3-.3-1.5-1v-.6s-.4.1-.7.2c-.4.1-.7.2-.7.2.1.3.2.5.2.7.2.7-.3 1.4-.9 1.5-.7.2-1.3-.2-1.5-.9-.1-.2-.1-.4 0-.6 0 0-.4.1-.7.2-.4.1-.7.2-.7.2.1.1.2.3.3.5.2.7-.2 1.4-.8 1.6-.7.2-1.4-.2-1.6-.8-.2-.3-.2-.5-.2-.6 0 0-.1 0-.2.1-.1 0-.3.1-.5.2-.3.1-.7.2-.7.2.2.1.3.2.4.4.2.7-.1 1.4-.8 1.6-.6.2-1.4-.1-1.6-.8-.1-.2-.1-.4-.1-.6l-1.4.5c.1.1.3.3.3.5.2.6-.1 1.4-.7 1.6-.6.2-1.4-.1-1.6-.7-.1-.1-.1-.2-.1-.4l-1.3.6c.1.1.3.3.3.5.3.6 0 1.4-.6 1.7-.6.3-1.4 0-1.7-.6-.1-.2-.1-.4-.1-.6l-1.3.7.4.4c.3.6.1 1.4-.6 1.7-.6.3-1.4.1-1.7-.5-.1-.2-.1-.4-.1-.6l-1.3.6c.2.1.3.2.4.4.3.6.1 1.4-.5 1.7-.6.3-1.4.2-1.7-.4-.1-.2-.2-.4-.2-.5l-1.3.8c.2.1.3.2.4.4.4.6.2 1.4-.4 1.7-.6.4-1.3.2-1.7-.4-.1-.2-.2-.4-.2-.5l-1.2.8c.2.1.3.2.4.4.4.6.2 1.3-.3 1.7-.6.4-1.3.3-1.7-.3-.1-.2-.2-.3-.2-.5l-1.2.9c.2.1.3.2.4.4.4.6.3 1.3-.2 1.7-.5.4-1.3.3-1.8-.2-.1-.2-.2-.3-.2-.5l-1.1.9c.2.1.3.2.5.3.4.5.3 1.3-.2 1.8s-1.3.4-1.8-.1c-.1-.1-.2-.3-.3-.5l-1.1 1c.2.1.3.2.5.3.5.5.4 1.3-.1 1.8s-1.3.5-1.8 0c-.1-.1-.2-.3-.3-.5l-1.1 1c.2.1.3.2.5.3.5.5.5 1.3 0 1.8s-1.3.5-1.8 0c-.1-.1-.2-.3-.3-.5l-.5.5-.5.5c.2.1.4.1.5.3.5.5.6 1.3.1 1.8s-1.2.6-1.8.1c-.1-.1-.3-.3-.3-.5 0 0-.2.3-.5.6-.2.3-.5.6-.5.6.2 0 .4.1.5.3.5.4.6 1.2.2 1.8-.4.5-1.2.6-1.8.2-.2-.1-.3-.3-.4-.4 0 0-.2.3-.5.6l-.4.6c.2 0 .4.1.5.2.5.4.7 1.2.3 1.8-.4.5-1.2.7-1.8.3-.2-.1-.3-.3-.4-.4l-.4.6-.4.6c.2 0 .4.1.5.2.6.4.7 1.2.3 1.7-.4.6-1.2.7-1.7.3-.2-.1-.3-.3-.4-.4l-.4.6-.4.6c.2 0 .4.1.5.2.6.4.8 1.1.4 1.7-.4.6-1.1.8-1.7.4-.2-.1-.3-.2-.4-.4 0 0 0 .1-.1.2s-.2.3-.2.4l-.4.6c.2 0 .4.1.5.2.6.3.8 1.1.5 1.7-.3.6-1.1.8-1.7.5-.2-.1-.3-.2-.4-.4l-.7 1.3c.2 0 .4 0 .6.1.6.3.9 1.1.6 1.7-.3.6-1.1.9-1.7.6-.2-.1-.3-.2-.4-.4L9 50.6c.2 0 .4 0 .6.1.6.3.9 1 .6 1.7-.3.6-1 .9-1.6.7-.2-.1-.3-.2-.5-.3L7.6 54c.2 0 .4 0 .6.1.6.3 1 1 .7 1.6-.3.6-1 1-1.6.7-.2-.1-.3-.2-.5-.3l-.5 1.4c.2 0 .4 0 .6.1.7.2 1 .9.8 1.6-.2.6-.9 1-1.6.8-.2-.1-.4-.2-.5-.3l-.4 1.4h.6c.7.2 1 .9.8 1.5-.2.7-.9 1.1-1.5.9-.2-.1-.4-.1-.5-.3l-.4 1.4h.6c.7.2 1.1.8.9 1.5-.1.7-.8 1.1-1.5.9-.2 0-.4-.1-.5-.2l-.3 1.4c.2 0 .4-.1.6 0 .7.1 1.1.8 1 1.5l.5.1s.2-.9.5-2.4c.2-.8.4-1.8.7-2.9 0-.5.1-1.1.3-1.8.2-.6.4-1.3.6-2.1.9-2.9 2.1-6.4 4-10.2 1.8-3.8 4.2-8 7.2-12.3 3-4.2 6.7-8.5 11.1-12.6 2.2-2 4.6-4 7.1-5.8l.9-.7 1-.7c.7-.4 1.3-.9 2-1.3 1.4-.8 2.7-1.7 4.2-2.5 2.8-1.6 5.8-3 8.9-4.3 3.1-1.3 6.3-2.3 9.6-3.2.8-.2 1.7-.4 2.5-.6.9-.1 1.7-.2 2.6-.4.4-.1.8-.2 1.3-.3l1.3-.2c.9-.1 1.7-.3 2.6-.4 3.4-.4 6.9-.6 10.4-.7 3.5 0 6.9.2 10.4.7.9.1 1.7.3 2.6.4l1.3.2c.4.1.8.2 1.3.3.8.2 1.7.3 2.5.5s1.7.4 2.5.6c3.3.9 6.5 1.9 9.6 3.2 3.1 1.3 6.1 2.7 8.9 4.3 1.4.8 2.8 1.7 4.2 2.5.7.4 1.3.9 2 1.3l1 .7.9.7c2.6 1.8 4.9 3.8 7.1 5.8 4.4 4.1 8.1 8.4 11.1 12.6 3 4.3 5.4 8.4 7.2 12.3 1.8 3.8 3.1 7.3 4 10.2l.6 2.1c.2.6.3 1.3.5 1.8.3 1.1.5 2.1.7 2.9.3 1.6.5 2.4.5 2.4l.5-.1c-.4-.6.1-1.3.7-1.4z"/><path d="M30.3 95.6h-.4l.2 1c.1-.1.2-.1.3-.2.5-.1.9.2 1 .6.1.4-.2.9-.6 1h-.4l.2 1c.1-.1.2-.1.3-.2.5-.1.9.2 1 .6.1.4-.1.9-.6 1h-.4l.3.9c.1-.1.2-.2.3-.2.4-.1.9.1 1.1.5.2.4-.1.9-.5 1.1-.1 0-.3.1-.4 0l.3.9c.1-.1.2-.2.3-.2.4-.2.9.1 1.1.5.2.4 0 .9-.5 1.1-.1 0-.3.1-.4.1l.4.9c.1-.1.2-.2.3-.2.4-.2.9 0 1.1.4.2.4 0 .9-.4 1.1-.1.1-.3.1-.4.1l.4.9c.1-.1.2-.2.3-.2.4-.2.9 0 1.1.4.2.4 0 .9-.4 1.1-.1.1-.2.1-.4.1l.4.9.3-.3c.4-.2.9-.1 1.1.3.2.4.1.9-.3 1.1-.1.1-.2.1-.4.1l.2.4.2.4.3-.3c.4-.2.9-.1 1.2.3.2.4.1.9-.3 1.2-.1.1-.2.1-.4.1 0 0 .1.2.3.4.1.2.3.4.3.4l.3-.3c.4-.3.9-.1 1.2.2.3.4.2.9-.2 1.2-.1.1-.2.1-.4.1 0 0 .1.2.3.4.1.2.3.4.3.4.1-.1.1-.2.2-.3.4-.3.9-.2 1.2.2.3.4.2.9-.2 1.2-.1.1-.2.1-.3.2 0 0 .1.2.3.4.2.2.3.4.3.4.1-.1.1-.2.2-.3.4-.3.9-.2 1.2.1.3.4.2.9-.1 1.2-.1.1-.2.1-.3.2 0 0 .2.2.3.4.2.2.3.4.3.4 0-.1.1-.2.2-.3.4-.3.9-.3 1.2.1.3.3.3.9-.1 1.2-.1.1-.2.2-.3.2l.7.7c0-.1.1-.2.2-.3.3-.3.9-.3 1.2 0 .3.3.3.9 0 1.2-.1.1-.2.2-.3.2l.7.7c0-.1.1-.2.2-.3.3-.3.9-.3 1.2 0 .3.3.4.8 0 1.2-.1.1-.2.2-.3.2l.7.7c0-.1.1-.2.2-.3.3-.3.8-.4 1.2-.1.3.3.4.8.1 1.2-.1.1-.2.2-.3.2l.8.6c0-.1.1-.2.2-.3.3-.4.8-.4 1.2-.1.4.3.4.8.2 1.2-.1.1-.2.2-.3.2l.8.6c0-.1.1-.2.1-.4.3-.4.8-.5 1.2-.2.4.3.5.8.2 1.2l-.3.3.8.6c0-.1.1-.2.1-.4.3-.4.8-.5 1.2-.2.4.2.5.8.3 1.2l-.3.3.8.5c0-.1 0-.3.1-.4.2-.4.7-.5 1.1-.3.4.2.5.7.3 1.1l-.3.3.9.5c0-.1 0-.3.1-.4.2-.4.7-.5 1.1-.3.4.2.6.7.4 1.1-.1.1-.1.2-.2.3l.9.4c0-.1 0-.3.1-.4.2-.4.7-.6 1.1-.4.4.2.6.7.4 1.1-.1.1-.1.2-.2.3l.9.4c0-.1 0-.3.1-.4.2-.4.7-.6 1.1-.5.4.2.6.7.5 1.1 0 .1-.1.2-.2.3l.9.4v-.4c.2-.4.6-.7 1.1-.5.4.2.7.6.5 1.1 0 .1-.1.2-.2.3 0 0 .2.1.5.2.2.1.5.2.5.2v-.4c.1-.4.6-.7 1.1-.6.4.1.7.6.6 1 0 .1-.1.2-.2.3 0 0 .2.1.5.1.2.1.5.1.5.1v-.4c.1-.4.6-.7 1-.6.4.1.7.6.6 1 0 .1-.1.2-.2.3 0 0 .2.1.5.1.2.1.5.1.5.1v-.4c.1-.5.6-.7 1-.7.5.1.7.5.7 1 0 .1-.1.2-.2.3 0 0 .2 0 .5.1.2 0 .5.1.5.1v-.4c.1-.5.5-.8 1-.7.5.1.8.5.7 1 0 .1-.1.3-.1.4 0 0 .2 0 .5.1.2 0 .5.1.5.1 0-.1-.1-.2 0-.4.1-.5.5-.8.9-.7.5.1.8.5.7.9 0 .1-.1.3-.1.4 0 0 .2 0 .5.1h.5c0-.1-.1-.2-.1-.4 0-.5.4-.8.9-.8s.8.4.8.9c0 .1 0 .3-.1.4h1c-.1-.1-.1-.2-.1-.4 0-.5.4-.8.9-.8s.8.4.8.9c0 .1 0 .3-.1.4h1c-.1-.1-.1-.2-.1-.4 0-.5.4-.9.8-.9.5 0 .8.4.9.8 0 .1 0 .3-.1.4h1c-.1-.1-.1-.2-.1-.4 0-.5.3-.9.8-.9s.9.3.9.8c0 .1 0 .3-.1.4h.5c.2 0 .5-.1.5-.1-.1-.1-.1-.2-.1-.4 0-.5.3-.9.7-.9.5-.1.9.3.9.7v.4s.2 0 .5-.1c.2 0 .5-.1.5-.1-.1-.1-.1-.2-.1-.4-.1-.5.3-.9.7-1 .5-.1.9.2 1 .7v.4s.2 0 .5-.1c.2 0 .5-.1.5-.1-.1-.1-.1-.2-.2-.3-.1-.5.2-.9.7-1 .4-.1.9.2 1 .7v.4s.2 0 .5-.1c.2-.1.5-.1.5-.1-.1-.1-.1-.2-.2-.3-.1-.5.2-.9.6-1 .4-.1.9.2 1 .6v.4s.2-.1.5-.1c.2-.1.5-.1.5-.1-.1-.1-.2-.2-.2-.3-.1-.4.1-.9.6-1 .4-.1.9.1 1.1.6v.4s.2-.1.5-.2c.2-.1.5-.2.5-.2-.1-.1-.2-.2-.2-.3-.1-.4.1-.9.5-1.1.4-.2.9.1 1.1.5 0 .1.1.3 0 .4l.9-.4c-.1-.1-.2-.2-.2-.3-.2-.4 0-.9.5-1.1.4-.2.9 0 1.1.5.1.1.1.3.1.4l.9-.4c-.1-.1-.2-.2-.2-.3-.2-.4 0-.9.4-1.1.4-.2.9 0 1.1.4.1.1.1.3.1.4l.9-.4c-.1-.1-.2-.2-.2-.3-.2-.4 0-.9.4-1.1.4-.2.9-.1 1.1.3.1.1.1.2.1.4l.9-.5-.3-.3c-.2-.4-.1-.9.3-1.1.4-.2.9-.1 1.1.3.1.1.1.2.1.4l.8-.5-.3-.3c-.2-.4-.1-.9.3-1.2.4-.2.9-.1 1.2.2.1.1.1.2.1.4l.8-.6c-.1-.1-.2-.1-.3-.3-.3-.4-.2-.9.2-1.2.4-.3.9-.2 1.2.2.1.1.1.2.1.4l.8-.6c-.1-.1-.2-.1-.3-.2-.3-.4-.2-.9.2-1.2.4-.3.9-.2 1.2.1.1.1.1.2.2.3l.8-.6c-.1-.1-.2-.1-.3-.2-.3-.4-.2-.9.1-1.2.3-.3.9-.3 1.2.1.1.1.1.2.2.3l.7-.7c-.1 0-.2-.1-.3-.2-.3-.3-.3-.9 0-1.2.3-.3.9-.3 1.2 0 .1.1.2.2.2.3l.7-.7c-.1 0-.2-.1-.3-.2-.3-.3-.3-.9 0-1.2.3-.3.9-.3 1.2 0 .1.1.2.2.2.3l.7-.7c-.1 0-.2-.1-.3-.2-.3-.3-.4-.9-.1-1.2.3-.3.8-.4 1.2-.1.1.1.2.2.2.3 0 0 .2-.2.3-.4.2-.2.3-.4.3-.4-.1 0-.2-.1-.3-.2-.4-.3-.4-.8-.1-1.2.3-.4.8-.4 1.2-.1.1.1.2.2.2.3 0 0 .2-.2.3-.4.2-.2.3-.4.3-.4-.1 0-.2-.1-.3-.2-.4-.3-.4-.8-.2-1.2.3-.4.8-.4 1.2-.2.1.1.2.2.2.3 0 0 .1-.2.3-.4.1-.2.3-.4.3-.4-.1 0-.2-.1-.4-.1-.4-.3-.5-.8-.2-1.2.3-.4.8-.5 1.2-.2l.3.3s.1-.2.3-.4c.1-.2.3-.4.3-.4-.1 0-.2-.1-.4-.1-.4-.2-.5-.8-.3-1.2.2-.4.8-.5 1.2-.3l.3.3.2-.4.2-.4c-.1 0-.3 0-.4-.1-.4-.2-.5-.7-.3-1.1.2-.4.7-.5 1.1-.3.1.1.2.1.3.3l.4-.9c-.1 0-.3 0-.4-.1-.4-.2-.6-.7-.4-1.1.2-.4.7-.6 1.1-.4.1.1.2.1.3.2l.4-.9c-.1 0-.3 0-.4-.1-.4-.2-.6-.7-.4-1.1.2-.4.7-.6 1.1-.4.1.1.2.1.3.2l.4-.9c-.1 0-.3 0-.4-.1-.4-.2-.6-.7-.5-1.1.2-.4.6-.7 1.1-.5.1 0 .2.1.3.2l.3-.9h-.4c-.4-.2-.7-.6-.5-1.1.2-.4.6-.7 1.1-.5.1 0 .2.1.3.2l.3-.9h-.4c-.4-.1-.7-.6-.6-1 .1-.4.6-.7 1-.6.1 0 .2.1.3.2l.2-1h-.4c-.5-.1-.7-.6-.6-1 .1-.4.5-.7 1-.6.1 0 .2.1.3.2l.2-1h-.4c-.5-.1-.7-.5-.7-1l-.3-.1s-.1.6-.3 1.6c-.1.5-.3 1.2-.5 2s-.4 1.6-.7 2.6c-1.2 3.9-3.4 9.4-7.5 15.1-2 2.8-4.5 5.7-7.5 8.5-1.5 1.3-3.1 2.7-4.8 3.9-.8.6-1.7 1.2-2.6 1.8-.9.6-1.8 1.1-2.8 1.7-3.8 2.1-8 3.9-12.5 5-2.2.6-4.5 1-6.8 1.3-2.3.3-4.6.4-7 .5-2.3 0-4.7-.2-7-.5s-4.6-.7-6.8-1.3c-4.4-1.2-8.7-2.9-12.5-5-1-.5-1.9-1.1-2.8-1.7-.9-.6-1.8-1.2-2.6-1.8-1.7-1.2-3.3-2.6-4.8-3.9a58.6 58.6 0 0 1-7.5-8.5c-4.1-5.7-6.3-11.2-7.5-15.1-.3-1-.6-1.8-.7-2.6-.2-.8-.4-1.4-.5-2-.2-1.1-.3-1.6-.3-1.6l-.3.1c.6.4.3.9-.1 1zM136.9 72.1c0-.4.2-.7.6-.8h.4l-.2-1c-.1.1-.2.1-.3.2-.5.1-.9-.1-1-.6-.1-.4.1-.9.6-1h.4l-.3-.9c-.1.1-.2.2-.3.2-.4.1-.9-.1-1.1-.5-.2-.4.1-.9.5-1.1.1 0 .3-.1.4 0l-.3-.9c-.1.1-.2.2-.3.2-.4.2-.9-.1-1.1-.5-.2-.4 0-.9.5-1.1.1-.1.3-.1.4-.1l-.4-.9c-.1.1-.2.2-.3.2-.4.2-.9 0-1.1-.4-.2-.4 0-.9.4-1.1.1-.1.3-.1.4-.1l-.4-.9c-.1.1-.2.2-.3.2-.4.2-.9 0-1.1-.4-.2-.4 0-.9.4-1.1.1-.1.2-.1.4-.1l-.4-.9-.3.3c-.4.2-.9.1-1.1-.3-.2-.4-.1-.9.3-1.1.1-.1.2-.1.4-.1l-.2-.4-.2-.4-.3.3c-.4.2-.9.1-1.2-.3-.2-.4-.1-.9.3-1.2.1-.1.2-.1.4-.1 0 0-.1-.2-.3-.4-.1-.2-.3-.4-.3-.4-.1.1-.1.2-.3.3-.4.3-.9.1-1.2-.2-.3-.4-.2-.9.2-1.2.1-.1.2-.1.4-.1 0 0-.1-.2-.3-.4-.1-.2-.3-.4-.3-.4-.1.1-.1.2-.2.3-.4.3-.9.2-1.2-.2-.3-.4-.2-.9.2-1.2.1-.1.2-.1.3-.2 0 0-.1-.2-.3-.4-.2-.2-.3-.4-.3-.4-.1.1-.1.2-.2.3-.4.3-.9.2-1.2-.1-.3-.4-.2-.9.1-1.2.1-.1.2-.1.3-.2 0 0-.2-.2-.3-.4-.2-.2-.3-.4-.3-.4 0 .1-.1.2-.2.3-.4.3-.9.3-1.2-.1-.3-.3-.3-.9.1-1.2.1-.1.2-.2.3-.2l-.7-.7c0 .1-.1.2-.2.3-.3.3-.9.3-1.2 0-.3-.3-.3-.9 0-1.2.1-.1.2-.2.3-.2l-.7-.7c0 .1-.1.2-.2.3-.3.3-.9.3-1.2 0-.3-.3-.4-.8 0-1.2.1-.1.2-.2.3-.2l-.7-.7c0 .1-.1.2-.2.3-.3.3-.8.4-1.2.1-.3-.3-.4-.8-.1-1.2.1-.1.2-.2.3-.2l-.8-.6c0 .1-.1.2-.2.3-.3.4-.8.4-1.2.1-.4-.3-.4-.8-.2-1.2.1-.1.2-.2.3-.2l-.8-.6c0 .1-.1.2-.1.4-.3.4-.8.5-1.2.2-.4-.3-.5-.8-.2-1.2l.3-.3-.8-.6c0 .1-.1.2-.1.4-.3.4-.8.5-1.2.2-.4-.2-.5-.8-.3-1.2l.3-.3-.8-.5c0 .1 0 .3-.1.4-.2.4-.7.5-1.1.3-.4-.2-.5-.7-.3-1.1l.3-.3-.9-.5c0 .1 0 .3-.1.4-.2.4-.7.6-1.1.4-.4-.2-.6-.7-.4-1.1.1-.1.1-.2.2-.3l-.9-.4c0 .1 0 .3-.1.4-.2.4-.7.6-1.1.4-.4-.2-.6-.7-.4-1.1.1-.1.1-.2.2-.3l-.9-.4c0 .1 0 .3-.1.4-.2.4-.7.6-1.1.5-.4-.2-.6-.7-.5-1.1 0-.1.1-.2.2-.3l-.9-.4v.4c-.2.4-.6.7-1.1.5-.4-.2-.7-.6-.5-1.1 0-.1.1-.2.2-.3 0 0-.2-.1-.5-.2-.2-.1-.5-.2-.5-.2v.4c-.1.4-.6.7-1.1.6-.4-.1-.7-.6-.6-1 0-.1.1-.2.2-.3 0 0-.2-.1-.5-.1-.2-.1-.5-.1-.5-.1v.4c-.1.4-.6.7-1 .6-.4-.1-.7-.6-.6-1 0-.1.1-.2.2-.3 0 0-.2-.1-.5-.1-.2-.1-.5-.1-.5-.1v.4c-.1.5-.6.7-1 .7-.5-.1-.7-.5-.7-1 0-.1.1-.2.2-.3 0 0-.2-.1-.5-.1-.2 0-.5-.1-.5-.1v.4c-.1.5-.5.8-1 .7-.5-.1-.8-.5-.7-1 0-.1.1-.3.1-.4 0 0-.2 0-.5-.1-.2 0-.5-.1-.5-.1 0 .1.1.2 0 .4-.1.5-.5.8-.9.7-.5-.1-.8-.5-.7-.9 0-.1.1-.3.1-.4 0 0-.2 0-.5-.1h-.5c0 .1.1.2.1.4 0 .5-.4.8-.9.8s-.8-.4-.8-.9c0-.1 0-.3.1-.4h-1c.1.1.1.2.1.4 0 .5-.4.8-.9.8s-.8-.4-.8-.9c0-.1 0-.3.1-.4h-1c.1.1.1.2.1.4 0 .5-.4.8-.8.9-.5 0-.8-.4-.9-.8 0-.1 0-.3.1-.4h-1c.1.1.1.2.1.4 0 .5-.3.9-.8.9s-.9-.3-.9-.8c0-.1 0-.3.1-.4h-.5c-.2 0-.5.1-.5.1.1.1.1.2.1.4 0 .5-.3.9-.7.9-.5.1-.9-.3-.9-.7V30s-.2 0-.5.1c-.2 0-.5.1-.5.1.1.1.1.2.1.4.1.5-.3.9-.7 1-.5.1-.9-.2-1-.7v-.4s-.2 0-.5.1c-.2.1-.5.1-.5.1.1.1.1.2.2.3.1.5-.2.9-.7 1-.4.1-.9-.2-1-.7v-.4s-.2 0-.5.1c-.2.1-.5.1-.5.1.1.1.1.2.2.3.1.5-.2.9-.6 1-.4.1-.9-.2-1-.6v-.4s-.2.1-.5.1c-.2.1-.5.1-.5.1.1.1.2.2.2.3.1.4-.1.9-.6 1-.4.1-.9-.1-1.1-.6v-.4s-.2.1-.5.2c-.2.1-.5.2-.5.2.1.1.2.2.2.3.1.4-.1.9-.5 1.1-.4.1-.9-.1-1.1-.5 0-.1-.1-.3 0-.4l-.9.3c.1.1.2.2.2.3.2.4 0 .9-.5 1.1-.4.2-.9 0-1.1-.5-.1-.1-.1-.3-.1-.4l-.8.4c.1.1.2.2.2.3.2.4 0 .9-.4 1.1-.4.2-.9 0-1.1-.4-.1-.1-.1-.2-.1-.4l-.9.4c.1.1.2.2.2.3.2.4 0 .9-.4 1.1-.4.2-.9.1-1.1-.4-.1-.1-.1-.2-.1-.4l-.9.5.3.3c.2.4.1.9-.3 1.1-.4.2-.9.1-1.1-.3-.1-.1-.1-.2-.1-.4l-.9.8.3.3c.2.4.1.9-.3 1.2-.4.2-.9.1-1.2-.2-.1-.1-.1-.2-.1-.4l-.8.6c.1.1.2.1.3.3.3.4.2.9-.2 1.2-.4.3-.9.2-1.2-.2-.1-.1-.1-.2-.1-.4l-.8.6c.1.1.2.1.3.2.3.4.2.9-.2 1.2-.4.3-.9.2-1.2-.1-.1-.1-.1-.2-.2-.3l-.7.4c.1.1.2.1.3.2.3.4.2.9-.1 1.2-.3.3-.9.3-1.2-.1-.1-.1-.1-.2-.2-.3l-.7.6c.1 0 .2.1.3.2.3.3.3.9 0 1.2-.3.3-.9.3-1.2 0-.1-.1-.2-.2-.2-.3l-.7.7c.1 0 .2.1.3.2.3.3.3.9 0 1.2-.3.3-.9.3-1.2 0-.1-.1-.2-.2-.2-.3l-.7.7c.1 0 .2.1.3.2.3.3.4.9.1 1.2-.3.3-.8.4-1.2.1-.1-.1-.2-.2-.2-.3 0 0-.2.2-.3.4-.2.2-.3.4-.3.4.1 0 .2.1.3.2.4.3.4.8.1 1.2-.3.4-.8.4-1.2.1-.1-.1-.2-.2-.2-.3 0 0-.2.2-.3.4-.2.2-.3.4-.3.4.1 0 .2.1.3.2.4.3.4.8.2 1.2-.3.4-.8.4-1.2.2-.1-.1-.2-.2-.2-.3 0 0-.1.2-.3.4-.1.2-.3.4-.3.4.1 0 .2.1.4.1.4.3.5.8.2 1.2s-.8.5-1.2.2l-.3-.3s-.1.2-.3.4c-.1.2-.3.4-.3.4.1 0 .2.1.4.1.4.2.5.8.3 1.2-.2.4-.8.5-1.2.3l-.3-.3-.2.4-.2.4c.1 0 .3 0 .4.1.4.2.5.7.3 1.1-.2.4-.7.5-1.1.3l-.3-.3-.4.9c.1 0 .3 0 .4.1.4.2.6.7.4 1.1-.2.4-.7.6-1.1.4-.1-.1-.2-.1-.3-.2l-.4.9c.1 0 .3 0 .4.1.4.2.6.7.4 1.1-.2.4-.7.6-1.1.4-.1-.1-.2-.1-.3-.2l-.4.9c.1 0 .3 0 .4.1.4.2.6.7.5 1.1-.2.4-.6.7-1.1.5-.1 0-.2-.1-.3-.2l-.3.9h.4c.4.2.7.6.5 1.1-.2.4-.6.7-1.1.5-.1 0-.2-.1-.3-.2l-.3.9h.4c.4.1.7.6.6 1-.1.4-.6.7-1 .6-.1 0-.2-.1-.3-.2l-.2.8c.1 0 .2.1.2.2h.1c.3.1.6.4.6.7.1.1.2.3.3.4.1-.4.2-.8.3-1.3.2-.8.4-1.6.7-2.6 1.2-3.9 3.4-9.4 7.5-15.1 2-2.8 4.5-5.7 7.5-8.5 1.5-1.3 3.1-2.7 4.8-3.9.8-.6 1.7-1.2 2.6-1.8.9-.6 1.8-1.1 2.8-1.7 3.8-2.1 8-3.9 12.5-5 2.2-.6 4.5-1 6.8-1.3 2.3-.3 4.6-.4 7-.5 2.3 0 4.7.2 7 .5s4.6.7 6.8 1.3c4.4 1.2 8.7 2.9 12.5 5 1 .5 1.9 1.1 2.8 1.7.9.6 1.8 1.2 2.6 1.8 1.7 1.2 3.3 2.6 4.8 3.9 2.9 2.7 5.4 5.6 7.5 8.5 4.1 5.7 6.3 11.2 7.5 15.1.3 1 .6 1.8.7 2.6.1.5.3 1 .4 1.4-.4 0-.3-.1-.2-.3z"/><path d="M76.3 130.4h.4c.2 0 .6 0 .9-.1.7-.2 1.5-.7 1.9-1.7l1.7.1c.1.6.3 1 .6 1.3.3.3.6.6 1 .7.7.3 1.3.4 1.3.4-1 .4-1.8.3-2.4.1-.6-.3-1.1-.7-1.4-1.2-.4.4-.9.8-1.6.9-.3.1-.7.1-1.1 0-.2 0-.4-.1-.6-.2-.2 0-.4-.1-.7-.3zm6.3.7c-.1-.1-.5-.2-.9-.5s-.7-.8-.8-1.4c0 0-.1.4.1.8s.6.9 1.6 1.1zm-4.5-.4c1-.1 1.5-.5 1.8-.9.2-.4.2-.7.2-.7-.4 1.2-1.7 1.5-2 1.6z"/><path d="M79.6 132.2s.1.6.1 1.2l.2 1.2s.2-.6.4-1.1c.2-.6.3-1.1.3-1.1-.4-.5-.4-1.1-.4-1.1s-.1.5-.6.9zm-1.7-.7c.8.1 1.4-.1 1.8-.3.4-.2.6-.4.6-.4l.5.5c.4.3.9.6 1.7.6 0 0-.1.1-.3.1-.2.1-.5.1-.8 0 0 0-.3 2.3-1.5 3-.5-.5-.8-1.3-.9-2-.1-.7-.1-1.3-.1-1.3-.7.1-1-.2-1-.2zM75.4 129.4c.3.5.7 1 1.3 1.3.6.3 1.4.4 2.4.2 0 0-.6-.1-1.2-.5s-1.3-1.1-1.4-2.2l-.8-.2-.8-.2c-.5 1-1.4 1.4-2.1 1.5-.7.1-1.3 0-1.3 0 .4.3.8.6 1.2.7.4.1.8.1 1.1.1.6-.1 1.1-.4 1.6-.7z"/><path d="M76 128.6c.1 1.2 1.2 2 1.5 2.1-.5-.2-.8-.4-1.1-.6-.2-.2-.4-.5-.4-.7-.1-.5 0-.8 0-.8zM75.3 128.4s0 .4-.3.7c-.3.4-.8.7-1.9.7.3-.1 1.6-.3 2.2-1.4zM74.5 131.4v2.4s.2-.5.5-1.1c.2-.5.5-1.1.5-1.1-.4-.5-.3-1.1-.3-1.1s-.2.6-.7.9zm-1.7-.9c.8.2 1.4 0 1.8-.1.4-.2.6-.4.6-.4s.1.3.5.6c.3.3.8.7 1.6.8 0 0-.4.3-1.1 0 0 0-.5 2.2-1.8 2.9-.5-.5-.6-1.4-.7-2.1 0-.7.1-1.3.1-1.3-.7 0-1-.4-1-.4z"/><path d="M70.6 128.2c.2.5.6 1 1.1 1.4.3.2.6.4 1 .4.4.1.9.1 1.4 0 0 0-.6-.2-1.2-.6-.6-.5-1.1-1.2-1.1-2.4l-.8-.2c-.4-.1-.8-.3-.8-.3-.6.9-1.5 1.3-2.3 1.3-.7 0-1.3-.2-1.3-.2.8.7 1.5 1 2.2 1 .7.1 1.3-.1 1.8-.4z"/><path d="M71.3 127.4c0 1.2 1 2.1 1.3 2.3-.9-.5-1.3-1.1-1.3-1.5-.1-.4 0-.8 0-.8zM70.6 127.2s-.1.4-.4.7c-.3.3-.9.6-1.9.5.2-.1 1.6-.2 2.3-1.2zM69.5 130.1s-.1.6-.1 1.2c-.1.6-.1 1.2-.1 1.2l.6-1 .6-1c-.3-.6-.2-1.1-.2-1.1s-.3.4-.8.7zm-1.6-1.1c.8.2 1.4.2 1.8.1.4-.1.7-.3.7-.3s.1.3.4.6c.3.3.8.7 1.5 1 0 0-.5.2-1.1-.1 0 0-.8 2.2-2.1 2.7-.9-1.2-.2-3.4-.2-3.4-.7-.1-1-.6-1-.6z"/><path d="M65.9 126.4c.1.3.2.6.3.8.2.3.4.5.6.7.3.2.6.4 1 .5.4.1.9.2 1.4.1 0 0-.1-.1-.4-.2-.2-.1-.5-.3-.8-.6-.5-.5-1-1.3-.8-2.5 0 0-.1 0-.2-.1s-.3-.2-.5-.2l-.8-.4c-.4.4-.8.7-1.2.9-.4.2-.8.2-1.2.2-.7 0-1.3-.3-1.3-.3.7.8 1.4 1.2 2.1 1.3.7.2 1.3.1 1.8-.2z"/><path d="M66.7 125.8c-.2 1.2.8 2.2 1 2.4-.9-.6-1.1-1.2-1.2-1.6 0-.5.2-.8.2-.8zM66 125.4s-.1.3-.5.6c-.2.1-.4.3-.7.3-.3.1-.7.1-1.2-.1.3.2 1.6.2 2.4-.8zM64.6 128.2s-.1.6-.2 1.1l-.2 1.2s.3-.5.7-.9c.3-.5.7-.9.7-.9-.2-.6 0-1.2 0-1.2s-.4.5-1 .7zm-1.4-1.2c.2.1.4.2.5.2.2 0 .3.1.5.1h.8c.4-.1.7-.2.7-.2s.1.3.3.7c.3.4.7.8 1.4 1.1 0 0-.5.1-1.1-.2 0 0-.2.5-.7 1.1-.4.6-1 1.2-1.7 1.3-.7-1.3.2-3.4.2-3.4-.3-.1-.6-.3-.7-.4-.2-.2-.2-.3-.2-.3z"/><path d="M61.5 124.2c.1.5.3 1.2.8 1.7.2.2.5.5.9.6.4.2.8.3 1.4.3 0 0-.5-.3-1-.9-.5-.6-.9-1.4-.6-2.5l-1.5-.9c-.8.8-1.7.9-2.5.8-.7-.1-1.2-.5-1.2-.5.3.5.6.8.9 1 .3.2.7.4 1 .5.6.2 1.2.1 1.8-.1z"/><path d="M62.4 123.6c-.3 1.2.5 2.2.7 2.5-.4-.3-.7-.6-.8-.9-.1-.3-.2-.6-.2-.8 0-.5.3-.8.3-.8zM61.7 123.2s-.1.3-.5.6c-.2.1-.4.2-.8.3-.3 0-.7 0-1.2-.2.2 0 .6.1 1 .1.5-.2 1-.3 1.5-.8zM60 125.8s-.2.6-.4 1.1c-.2.6-.4 1.1-.4 1.1s.4-.4.8-.9c.4-.4.8-.9.8-.9-.2-.6.1-1.2.1-1.2s-.3.6-.9.8zm-1.3-1.4c.3.2.7.3 1 .4.3.1.6.1.8.1.4 0 .7-.1.7-.1s0 .3.2.7c.2.4.6.9 1.3 1.3 0 0-.5.1-1.1-.3 0 0-.3.5-.8 1s-1.1 1-1.9 1.1c-.3-.7-.2-1.5 0-2.2.2-.7.5-1.2.5-1.2-.6-.3-.7-.8-.7-.8z"/><path d="M57.3 121.5c0 .6.2 1.2.6 1.7.4.5 1.1 1 2.1 1.2 0 0-.5-.4-.9-1-.2-.3-.4-.7-.5-1.1-.1-.4 0-.9.2-1.5 0 0-.3-.3-.7-.5-.4-.2-.7-.5-.7-.5-.9.7-1.8.7-2.6.5-.7-.2-1.2-.6-1.2-.6.2.5.5.8.8 1.1.3.3.6.5.9.6.8.2 1.4.2 2 .1z"/><path d="M58.2 121c-.2.6-.2 1.1 0 1.6.1.5.4.8.5.9-.2-.2-.3-.4-.5-.5-.1-.2-.2-.3-.2-.5-.1-.3-.1-.6-.1-.8.1-.4.3-.7.3-.7zM57.6 120.5s-.2.3-.6.5c-.4.2-1 .3-2-.2.3.2 1.6.5 2.6-.3zM55.6 122.9s-.2.5-.5 1.1c-.2.5-.5 1.1-.5 1.1s.4-.4.9-.8c.4-.4.9-.8.9-.8-.1-.6.2-1.1.2-1.1s-.3.4-1 .5zm-1.1-1.5c.6.5 1.2.6 1.7.7.5 0 .7-.1.7-.1s0 .3.2.7c.1.2.2.4.4.7.2.3.4.5.7.7h-.3c-.2 0-.4-.2-.7-.4 0 0-1.4 1.8-2.9 1.8-.2-.7 0-1.5.3-2.2.3-.6.6-1.1.6-1.1-.6-.3-.7-.8-.7-.8z"/><path d="M53.4 118.3c0 .6.1 1.2.4 1.8.2.3.4.6.7.8.3.2.7.4 1.3.6 0 0-.5-.4-.8-1.1-.3-.7-.5-1.6 0-2.6l-.6-.6-.6-.6c-.5.3-1 .4-1.4.4h-.6c-.2 0-.4-.1-.6-.2-.7-.3-1.1-.7-1.1-.7.7 2.1 2.3 2.4 3.3 2.2z"/><path d="M54.4 118c-.6 1.1 0 2.3.2 2.6-.6-.8-.7-1.5-.6-1.9.2-.5.4-.7.4-.7zM53.8 117.4s-.2.3-.6.4c-.4.2-1.1.2-2-.4.3.2 1.6.7 2.6 0zM51.6 119.6l-.6 1-.6 1s.5-.3 1-.7c.5-.3 1-.7 1-.7 0-.6.3-1.1.3-1.1s-.4.5-1.1.5zm-.9-1.6c.6.5 1.2.7 1.6.8.4.1.7 0 .7 0s0 .3.1.7c.1.4.4 1 1 1.5 0 0-.5 0-.9-.6 0 0-1.6 1.6-3.1 1.5-.3-1.4 1.2-3.2 1.2-3.2-.3-.2-.4-.4-.5-.6-.1 0-.1-.1-.1-.1z"/><path d="M50 114.8c0 .3-.1.6 0 .9 0 .3.1.6.3.9.3.6.8 1.2 1.8 1.6 0 0-.1-.1-.2-.3-.1-.2-.3-.5-.4-.8-.3-.7-.3-1.6.3-2.6l-.2-.2c-.1-.1-.2-.3-.4-.4-.3-.3-.6-.7-.6-.7-.5.2-1 .3-1.4.3-.4 0-.8-.2-1.2-.4-.3-.2-.6-.4-.8-.5l-.3-.3c.3 1 .8 1.7 1.4 2 .5.4 1.1.5 1.7.5z"/><path d="M51 114.5c-.7 1-.2 2.3-.1 2.6-.6-.9-.5-1.5-.4-2 .2-.4.5-.6.5-.6zM50.5 113.9s-.2.3-.7.4c-.2.1-.5.1-.8 0-.2 0-.3-.1-.5-.2s-.4-.2-.6-.4c.1.1.5.3 1 .4.4.1 1 .1 1.6-.2zM48 115.8s-.4.5-.7.9c-.3.5-.7.9-.7.9l1-.6 1-.6c0-.7.5-1.1.5-1.1s-.4.6-1.1.5zm-.8-1.7c.5.6 1.1.9 1.5 1 .4.1.7.1.7.1s-.1.3 0 .7c.1.4.3 1 .8 1.6 0 0-.5-.1-.9-.6 0 0-.4.4-1.1.7-.6.3-1.4.6-2.1.5-.1-1.5 1.6-3 1.6-3-.3-.2-.4-.5-.5-.7v-.3z"/><path d="M46.9 110.9c-.2.5-.2 1.2 0 1.8.2.6.7 1.3 1.7 1.8 0 0-.1-.1-.2-.3-.1-.2-.2-.5-.3-.9-.2-.7-.2-1.6.6-2.5l-1-1.4c-1.1.4-1.9.1-2.6-.4-.3-.2-.6-.4-.7-.6-.2-.2-.2-.3-.2-.3.1.5.2 1 .4 1.3.2.4.4.6.7.9.4.4 1 .5 1.6.6z"/><path d="M47.9 110.7c-.4.5-.5 1-.5 1.5s.1.9.2 1c-.2-.5-.3-.9-.3-1.2 0-.3.1-.6.2-.8.1-.3.4-.5.4-.5zM47.5 110.1s-.3.2-.7.3c-.2 0-.5 0-.8-.1-.3-.1-.6-.3-1-.7.2.2 1.3.9 2.5.5zM44.8 111.7s-.4.4-.8.9c-.4.4-.8.9-.8.9s.5-.2 1.1-.4c.5-.2 1.1-.5 1.1-.5.1-.6.6-1 .6-1s-.5.2-1.2.1zm-.6-1.8c.4.6 1 1 1.4 1.2.4.2.7.2.7.2s-.1.3-.1.7c0 .2 0 .5.1.8.1.3.3.6.5.9 0 0-.5-.1-.8-.7 0 0-1.9 1.3-3.3.8 0-.7.5-1.4.9-1.9l.9-.9c-.3-.6-.3-1.1-.3-1.1z"/><path d="M44.2 106.6c-.2.5-.3 1.1-.2 1.8.1.7.6 1.4 1.4 2 0 0-.3-.5-.4-1.3-.1-.7 0-1.7.8-2.5 0 0-.2-.4-.4-.7-.1-.2-.2-.4-.3-.5-.1-.1-.1-.2-.1-.2-1.1.3-2-.1-2.5-.6s-.8-1-.8-1c0 .5.1 1 .3 1.4.2.4.4.7.6.9.5.4 1.1.7 1.6.7z"/><path d="M45.3 106.6c-.9.9-.7 2.2-.7 2.5-.2-.5-.2-.9-.2-1.2 0-.3.1-.6.3-.8.3-.3.6-.5.6-.5zM44.9 106s-.3.2-.7.2c-.5 0-1.1-.2-1.7-1 .2.2 1.2 1 2.4.8zM42.1 107.3s-.4.4-.9.8c-.4.4-.9.8-.9.8s.6-.2 1.1-.3c.6-.2 1.1-.3 1.1-.3.2-.6.7-.9.7-.9s-.1.1-.3.1c-.2-.2-.5-.1-.8-.2zm-.4-1.9c.4.7.9 1.1 1.2 1.3.2.1.4.2.5.2h.2s-.1.3-.1.7c0 .4 0 1.1.4 1.8 0 0-.5-.2-.7-.8 0 0-2 1-3.4.4.1-.7.7-1.4 1.2-1.8.5-.5 1-.8 1-.8-.4-.5-.3-1-.3-1z"/><path d="M42.1 102.2c-.3.5-.4 1.1-.4 1.8 0 .3.1.7.3 1.1.2.4.5.7.9 1.1 0 0-.3-.6-.3-1.3 0-.7.2-1.7 1.1-2.4 0 0 0-.1-.1-.2s-.2-.3-.2-.5c-.2-.4-.3-.8-.3-.8-1.1.1-2-.4-2.4-.9-.5-.5-.7-1.1-.7-1.1 0 .5 0 1 .1 1.4.1.2.1.4.2.5.1.2.2.3.3.4.4.4.9.7 1.5.9z"/><path d="M43.1 102.3c-1 .8-.9 2.1-.9 2.4-.2-1 0-1.6.3-2 .3-.3.6-.4.6-.4zM42.8 101.5s-.3.2-.8.1c-.4 0-1.1-.3-1.6-1.2.2.3 1.2 1.3 2.4 1.1zM39.9 102.6s-.5.3-1 .7c-.5.3-1 .7-1 .7l1.2-.2 1.2-.2c.1-.3.3-.5.5-.7.2-.1.3-.2.3-.2s-.6.1-1.2-.1zm-.2-1.9c.3.7.7 1.2 1.1 1.4.4.3.6.3.6.3s-.2.3-.2.7c-.1.4-.1 1.1.2 1.8 0 0-.4-.2-.6-.9 0 0-.5.2-1.2.3-.7.1-1.6.1-2.2-.2.4-1.4 2.5-2.3 2.5-2.3-.2-.3-.2-.6-.2-.8-.1-.2 0-.3 0-.3z"/><path d="M40.4 97.5c-.3.5-.6 1.1-.6 1.7 0 .7.2 1.5 1 2.2 0 0 0-.1-.1-.4 0-.2-.1-.6 0-.9.1-.7.4-1.6 1.3-2.2 0 0 0-.1-.1-.3 0-.2-.1-.4-.2-.6l-.2-.8c-.6 0-1-.1-1.4-.4-.4-.2-.7-.5-.9-.8-.2-.3-.4-.6-.5-.8-.1-.2-.1-.4-.1-.4-.2 1 0 1.8.4 2.4.4.7.9 1.1 1.4 1.3z"/><path d="M41.4 97.7c-1.1.6-1.2 2-1.2 2.3-.1-1 .2-1.6.5-1.9.4-.3.7-.4.7-.4zM41.2 96.9s-.3.1-.8.1c-.2 0-.5-.1-.7-.4-.1-.1-.3-.2-.4-.4l-.3-.6c.1.1.3.5.7.8.4.3.9.6 1.5.5zM38.2 97.6l-1 .6-1 .6s.6 0 1.2-.1c.6 0 1.2-.1 1.2-.1.3-.6.9-.8.9-.8s-.7.1-1.3-.2zm0-1.9c.2.8.6 1.3.9 1.6.3.3.6.4.6.4s-.2.2-.3.7c-.1.4-.2 1.1 0 1.8 0 0-.4-.3-.5-1 0 0-.6.1-1.3.2-.7 0-1.5 0-2.1-.5.5-1.4 2.7-2.1 2.7-2.1-.1-.3-.1-.6-.1-.8.1-.1.1-.3.1-.3z"/><path d="M39.3 92.6c-.4.4-.7 1-.8 1.7-.1.7.1 1.5.7 2.3 0 0 0-.1-.1-.4 0-.2 0-.6.1-.9.1-.7.5-1.6 1.6-2.1l-.3-1.7c-1.1-.1-1.8-.8-2.2-1.4-.2-.3-.3-.6-.4-.9-.1-.2-.1-.4-.1-.4-.2.5-.2 1-.2 1.4 0 .4.1.8.3 1.1.1.3.3.6.6.8.3.2.6.4.8.5z"/><path d="M40.3 93c-.5.3-.9.7-1.1 1.2-.2.4-.3.8-.3 1 0-.5.1-.9.2-1.2.1-.3.3-.5.5-.6.3-.4.7-.4.7-.4zM40.1 92.2s-.3.1-.8 0c-.2-.1-.5-.2-.7-.4-.2-.2-.4-.6-.6-1.1.1.1.3.5.6.8.4.3.9.6 1.5.7zM37.1 92.5s-.5.2-1.1.4c-.5.2-1.1.4-1.1.4s.6 0 1.2.1h1.2c.4-.5.9-.7.9-.7s-.6.2-1.1-.2zm.2-1.8c.1.8.4 1.3.8 1.6.3.3.6.5.6.5s-.2.2-.4.6c-.1.2-.2.5-.2.8 0 .3 0 .6.1 1 0 0-.4-.3-.4-1 0 0-2.3.3-3.3-.7.3-.7 1-1.1 1.7-1.4.6-.3 1.2-.4 1.2-.4-.4-.6-.1-1-.1-1z"/><path d="M38.7 87.7c-.4.4-.8.9-1 1.6-.1.7 0 1.5.5 2.4 0 0 0-.6.2-1.3.1-.4.3-.7.6-1.1.3-.3.7-.6 1.2-.8 0 0 0-.4-.1-.9V87v-.3c-1.1-.2-1.7-1-2-1.6-.2-.3-.2-.7-.3-.9v-.4c-.4 1-.4 1.8-.2 2.4.1.3.3.6.5.8.1.3.4.5.6.7z"/><path d="M39.6 88.1c-.6.2-1 .6-1.2 1-.3.4-.4.8-.4 1 0-.5.2-.9.3-1.2.2-.3.4-.5.6-.6.4-.2.7-.2.7-.2zM39.6 87.4s-.4.1-.8-.1-.9-.6-1.1-1.6c.1.2.7 1.4 1.9 1.7zM36.5 87.4s-.6.2-1.1.3c-.6.2-1.1.3-1.1.3l1.2.2 1.2.2c.4-.5 1-.6 1-.6s-.7 0-1.2-.4zm.4-1.9c0 .8.3 1.4.6 1.7.3.4.5.5.5.5s-.2.2-.4.6c-.2.4-.4 1-.4 1.8 0 0-.1-.1-.2-.3-.1-.2-.2-.4-.1-.8 0 0-2.3.1-3.2-1 .4-.6 1.1-1 1.8-1.2.7-.2 1.2-.3 1.2-.3-.1-.6.2-1 .2-1z"/><path d="M38.6 82.7c-.4.3-.9.8-1.1 1.5-.1.3-.2.7-.1 1.1 0 .4.1.9.3 1.3 0 0 0-.6.3-1.3.3-.7.9-1.4 2-1.7v-.9-.9c-1.1-.4-1.6-1.1-1.8-1.8-.1-.4-.1-.7-.2-.9v-.4c-.3.5-.4.9-.5 1.3-.1.4 0 .8 0 1.1.3.7.7 1.3 1.1 1.6z"/><path d="M39.5 83.3c-1.2.3-1.8 1.5-1.9 1.8.1-.5.3-.9.5-1.2.2-.3.4-.4.6-.5.5-.2.8-.1.8-.1zM39.6 82.5s-.4 0-.8-.2-.8-.7-.9-1.8c.1.3.5 1.6 1.7 2z"/><g><path d="M36.5 82.2l-1.2.2-1.2.2s.6.2 1.1.3c.6.1 1.1.3 1.1.3.5-.4 1.1-.5 1.1-.5s-.5-.1-.9-.5zm.6-1.8c0 .8.2 1.4.4 1.8.2.4.5.6.5.6l-.5.5c-.2.4-.5.9-.6 1.7 0 0-.1-.1-.1-.3-.1-.2-.1-.5 0-.8 0 0-2.3-.2-3.1-1.4.4-.6 1.3-.8 2-1 .7-.1 1.3-.1 1.3-.1-.2-.7.1-1 .1-1z"/></g><g><path d="M39.1 77.8c-.5.3-1 .7-1.2 1.3-.3.6-.4 1.4-.1 2.4 0 0 .1-.6.4-1.3.4-.6 1-1.3 2.2-1.4 0 0 .1-.4.1-.9l.2-.8c-1-.5-1.5-1.3-1.6-2-.1-.7 0-1.3 0-1.3-.3.4-.5.9-.6 1.2s-.1.8-.1 1.1c0 .7.3 1.3.7 1.7z"/><path d="M39.9 78.4c-1.2.1-1.9 1.3-2.1 1.6.3-1 .8-1.4 1.3-1.5.5-.2.8-.1.8-.1zM40.1 77.6s-.4 0-.7-.3c-.4-.3-.7-.8-.8-1.9 0 .4.3 1.7 1.5 2.2z"/><g><path d="M37 77s-.6 0-1.2.1c-.6 0-1.2.1-1.2.1s.5.2 1.1.4c.5.2 1.1.4 1.1.4.5-.4 1.1-.3 1.1-.3s-.5-.2-.9-.7zm.8-1.7c-.1.8 0 1.4.2 1.8.2.4.4.6.4.6s-.3.1-.5.5c-.3.3-.6.9-.7 1.7 0 0-.3-.4-.1-1.1 0 0-2.3-.4-2.9-1.7.5-.5 1.4-.7 2.1-.7.7-.1 1.3 0 1.3 0-.1-.8.2-1.1.2-1.1z"/></g></g><g><path d="M40.1 72.9c-.5.2-1 .6-1.4 1.2-.2.3-.3.6-.4 1-.1.4 0 .9.1 1.4 0 0 .1-.6.6-1.2.4-.6 1.2-1.2 2.3-1.2 0 0 0-.1.1-.3 0-.2.1-.4.2-.6l.2-.8c-1-.6-1.3-1.5-1.4-2.2-.1-.7.1-1.3.1-1.3-.7.8-1 1.6-.9 2.3-.1.7.2 1.3.5 1.7z"/><path d="M40.9 73.6c-1.2 0-2 1.1-2.2 1.4.4-1 1-1.3 1.4-1.4.4-.1.8 0 .8 0zM41.1 72.9s-.4-.1-.7-.4c-.3-.3-.7-.9-.5-1.9-.1.3.1 1.7 1.2 2.3z"/><g><path d="M38.1 71.9s-.6 0-1.2-.1c-.6 0-1.2-.1-1.2-.1s.5.3 1 .5c.5.3 1 .5 1 .5.3-.2.6-.2.8-.2h.4s-.4-.1-.8-.6zm1-1.6c-.2.8-.1 1.4 0 1.8.1.4.3.7.3.7s-.1 0-.2.1-.3.2-.4.3c-.3.3-.7.8-.9 1.6 0 0-.2-.5 0-1.1 0 0-.5-.2-1.2-.5-.6-.3-1.3-.8-1.6-1.5 1.2-.9 3.4-.4 3.4-.4.1-.3.2-.6.3-.8.2-.1.3-.2.3-.2z"/></g></g><g><path d="M41.7 68.2c-.5.2-1.1.5-1.5 1-.2.3-.4.6-.5 1-.1.2-.1.4-.1.6v.7s0-.1.2-.4c.1-.2.3-.5.5-.8.5-.5 1.3-1.1 2.4-.9l.6-1.6c-.9-.7-1.1-1.6-1.1-2.3 0-.4.1-.7.1-.9.1-.2.1-.4.1-.4-.8.7-1.1 1.5-1.2 2.1 0 .8.2 1.4.5 1.9z"/><path d="M42.3 69c-1.2-.1-2.1.9-2.3 1.1.5-.9 1.1-1.2 1.6-1.2.4-.1.7.1.7.1zM42.6 68.2s-.3-.1-.6-.4c-.3-.3-.6-1-.3-2 0 .2 0 .6.1 1 .1.6.3 1.1.8 1.4z"/><g><path d="M39.8 67l-1.2-.2-1.2-.2s.5.3 1 .7l1 .6c.6-.3 1.2-.1 1.2-.1s-.5-.3-.8-.8zm1.2-1.5c-.3.7-.3 1.4-.2 1.8 0 .4.2.7.2.7s-.3.1-.7.3c-.4.3-.8.7-1.1 1.5 0 0-.2-.5.2-1.1 0 0-.5-.2-1.1-.6-.6-.4-1.2-1-1.4-1.7 1.2-.8 3.4 0 3.4 0 .1-.3.3-.6.4-.7.2-.2.3-.2.3-.2z"/></g></g><g><path d="M43.7 63.7c-.5.1-1.1.4-1.6.8-.5.5-.8 1.2-.8 2.3v-.1c0-.1.1-.1.2-.2.1-.2.3-.5.6-.7.6-.5 1.4-.9 2.5-.7l.8-1.5c-.8-.8-.9-1.7-.9-2.4 0-.4.1-.7.2-.9l.2-.4c-.9.6-1.3 1.3-1.4 2-.2.6 0 1.2.2 1.8z"/><path d="M44.3 64.5c-.6-.1-1.2 0-1.6.2-.4.2-.7.5-.8.6.6-.9 1.2-1.1 1.7-1.1.4.1.7.3.7.3zM44.7 63.8s-.3-.1-.6-.5-.4-1-.1-2c-.1.3-.3 1.7.7 2.5z"/><g><path d="M42 62.2s-.6-.2-1.1-.3c-.6-.2-1.1-.3-1.1-.3s.4.4.9.8.9.7.9.7c.6-.2 1.2 0 1.2 0s-.6-.3-.8-.9zm1.3-1.3c-.4.7-.5 1.3-.4 1.8 0 .4.2.7.2.7s-.3 0-.7.3c-.2.1-.4.3-.6.5-.2.2-.4.5-.6.9v-.3c0-.2.1-.5.3-.8 0 0-2-1.1-2.2-2.6.7-.3 1.5-.2 2.2-.1.7.2 1.2.4 1.2.4.2-.6.6-.8.6-.8z"/></g></g><g><path d="M46.2 59.4c-.6.1-1.2.2-1.7.7-.1.1-.3.2-.4.4-.1.1-.2.3-.3.5-.2.4-.3.8-.4 1.3 0 0 .3-.5.9-1 .6-.4 1.5-.8 2.6-.4 0 0 .2-.4.5-.7.1-.2.2-.4.3-.5l.2-.2c-.7-.9-.8-1.8-.6-2.5.2-.7.5-1.2.5-1.2-.5.3-.8.6-1.1.9-.3.3-.4.6-.5 1-.2.5-.1 1.1 0 1.7z"/><path d="M46.7 60.3c-1.2-.4-2.3.4-2.5.6.7-.8 1.4-.9 1.8-.9.5.1.7.3.7.3zM47.2 59.6s-.3-.2-.5-.6c-.2-.4-.3-1 .1-2-.1.4-.4 1.7.4 2.6z"/><g><path d="M44.7 57.8s-.5-.2-1.1-.4c-.5-.2-1.1-.4-1.1-.4s.4.4.8.9l.8.8c.6-.1 1.1.2 1.1.2s-.1-.1-.2-.3c-.1-.3-.2-.5-.3-.8zm1.4-1.2c-.4.7-.6 1.3-.6 1.7v.7s-.3 0-.7.2c-.4.2-.9.5-1.4 1.2v-.3c0-.2.1-.4.4-.7 0 0-1.9-1.3-1.9-2.8.7-.3 1.5-.1 2.2.2.7.2 1.1.6 1.1.6.5-.7.9-.8.9-.8z"/></g></g><g><path d="M49.2 55.4c-.6 0-1.2.1-1.8.5-.3.2-.6.4-.8.8-.2.3-.4.8-.5 1.3 0 0 .4-.5 1-.9.7-.4 1.6-.6 2.6-.1l.2-.2c.1-.1.2-.3.4-.5l.6-.6c-.6-.9-.6-1.9-.3-2.6.3-.7.7-1.2.7-1.2-1 .4-1.5 1-1.8 1.6-.4.7-.4 1.4-.3 1.9z"/><path d="M49.6 56.4c-1.1-.5-2.3.1-2.6.3.8-.7 1.4-.8 1.9-.7.5.1.7.4.7.4zM50.1 55.8s-.3-.2-.5-.6c-.2-.4-.2-1.1.3-2-.1.3-.5 1.6.2 2.6z"/><g><path d="M47.9 53.6l-1-.6c-.5-.3-1-.5-1-.5s.4.5.7.9c.4.5.7.9.7.9.3 0 .6 0 .8.1.2.1.3.2.3.2s-.5-.3-.5-1zm1.5-1c-.5.6-.7 1.2-.8 1.6-.1.4 0 .7 0 .7h-.2c-.1 0-.3 0-.5.1-.4.1-1 .4-1.5 1 0 0 0-.5.5-1 0 0-.4-.4-.8-1s-.8-1.3-.8-2c1.4-.3 3.2 1.1 3.2 1.1.4-.4.9-.5.9-.5z"/></g></g><g><path d="M52.6 51.8c-.5-.1-1.2 0-1.8.3-.3.2-.6.4-.9.7-.1.2-.3.3-.4.5-.1.2-.2.4-.3.7l.3-.3c.2-.2.5-.3.8-.5.7-.3 1.6-.4 2.6.2l1.3-1.2c-.5-1-.4-1.9 0-2.6.2-.3.4-.6.5-.8l.3-.3c-.5.1-.9.4-1.2.6-.3.2-.6.5-.7.8-.5.7-.5 1.3-.5 1.9z"/><path d="M52.9 52.8c-1.1-.6-2.3-.1-2.6 0 .9-.6 1.5-.6 1.9-.5.5.2.7.5.7.5zM53.5 52.2s-.3-.2-.4-.7c-.1-.4-.1-1.1.5-1.9-.1.1-.3.5-.4 1 0 .5 0 1.1.3 1.6z"/><g><path d="M51.5 49.9s-.5-.3-1-.7c-.5-.3-1-.7-1-.7l.6 1 .6 1c.6 0 1.1.4 1.1.4s-.3-.4-.3-1zm1.6-.9c-.3.3-.5.5-.7.8-.1.3-.2.5-.3.7-.1.4-.1.7-.1.7h-.7c-.5.1-1 .3-1.6.9 0 0 .1-.5.6-.9 0 0-1.5-1.7-1.3-3.1 1.4-.2 3.1 1.4 3.1 1.4.5-.5 1-.5 1-.5z"/></g></g><g><path d="M56.4 48.5c-.5-.1-1.2-.2-1.8.1-.6.3-1.3.8-1.7 1.7 0 0 .1-.1.3-.2.2-.1.5-.3.9-.4.4-.1.8-.2 1.2-.1.4.1.9.2 1.4.6 0 0 .3-.3.7-.5.2-.1.3-.3.5-.4l.2-.2c-.4-1-.1-1.9.2-2.6.2-.3.4-.6.6-.7l.3-.3c-1.1.2-1.7.7-2.1 1.2-.2.3-.3.6-.4.9-.3.3-.3.6-.3.9z"/><path d="M56.6 49.6c-.5-.4-1.1-.5-1.6-.5s-.9.1-1 .2c.9-.5 1.6-.4 2-.2.4.1.6.5.6.5zM57.2 49.1s-.3-.3-.3-.7c-.1-.5 0-1.1.7-1.8-.2.2-.9 1.3-.4 2.5z"/><g><path d="M55.4 46.5s-.4-.4-.9-.8c-.4-.4-.9-.8-.9-.8s.2.5.5 1.1c.3.5.5 1.1.5 1.1.6.1 1 .5 1 .5s-.2-.4-.2-1.1zm1.8-.7c-.6.5-1 1-1.1 1.4-.2.4-.1.7-.1.7s-.3-.1-.7 0c-.4 0-1.1.2-1.7.7 0 0 0-.1.1-.3s.3-.4.6-.6c0 0-1.3-1.9-.9-3.3.7 0 1.4.4 2 .9.5.4.9.9.9.9.4-.4.9-.4.9-.4z"/></g></g><g><path d="M60.5 45.7c-.5-.2-1.2-.3-1.8-.1-.7.2-1.3.6-1.9 1.5 0 0 .5-.3 1.2-.5.4-.1.8-.1 1.2 0 .4.1.9.3 1.3.7 0 0 .4-.2.7-.5.4-.2.7-.4.7-.4-.3-1.1.1-2 .5-2.5.5-.6 1-.9 1-.9-1.1.1-1.8.5-2.2 1-.4.6-.6 1.2-.7 1.7z"/><path d="M60.5 46.8c-.9-.8-2.2-.6-2.5-.5 1-.4 1.6-.2 2 0 .4.1.5.5.5.5zM61.2 46.3s-.2-.3-.3-.7c0-.5.1-1.1.9-1.8-.1.3-.9 1.4-.6 2.5z"/><g><path d="M59.8 43.6s-.4-.4-.8-.9c-.4-.4-.8-.9-.8-.9s.2.6.4 1.1c.2.6.4 1.1.4 1.1.6.1 1 .6 1 .6s-.4-.4-.2-1zm1.8-.5c-.7.4-1.1.9-1.3 1.3-.2.4-.2.7-.2.7s-.3-.1-.7-.1c-.4 0-1.1.1-1.7.5 0 0 0-.1.2-.3.1-.2.3-.3.6-.5 0 0-1.1-2-.6-3.4 1.5.1 2.7 2.1 2.7 2.1.5-.4 1-.3 1-.3z"/></g></g><g><path d="M64.9 43.4c-.3-.1-.5-.2-.8-.3-.3-.1-.6-.1-1 0-.3.1-.7.2-1 .4-.4.2-.7.5-1 .9 0 0 .1-.1.4-.1.2-.1.5-.2.9-.2.7 0 1.7.1 2.4 1l.8-.4c.4-.2.8-.3.8-.3-.1-.6 0-1 .1-1.5.2-.4.4-.7.7-1 .5-.5 1.1-.8 1.1-.8-1.1 0-1.8.3-2.3.7-.7.4-1 1-1.1 1.6z"/><path d="M64.8 44.4c-.8-.9-2.1-.8-2.5-.8 1-.3 1.6-.1 2 .2.4.3.5.6.5.6zM65.5 44.1s-.2-.3-.2-.8c0-.2.1-.5.2-.8.2-.3.4-.6.9-.9-.2.3-1.1 1.3-.9 2.5z"/><g><path d="M64.4 41.2s-.4-.5-.7-.9c-.4-.5-.7-.9-.7-.9s.1.6.2 1.1c.1.6.3 1.1.3 1.1.6.2.9.7.9.7s-.2-.5 0-1.1zm1.8-.3c-.2.1-.3.2-.5.3-.1.1-.3.2-.4.3-.2.2-.4.4-.5.6-.2.4-.3.7-.3.7s-.3-.1-.7-.2c-.4 0-1.1 0-1.8.3 0 0 .2-.5.9-.7 0 0-.2-.5-.4-1.2-.1-.7-.2-1.6.2-2.2 1.4.3 2.4 2.4 2.4 2.4.3-.2.6-.3.8-.3h.3z"/></g></g><g><path d="M69.5 41.5c-.5-.3-1.1-.6-1.8-.5-.3 0-.7.1-1.1.3-.4.2-.8.4-1.1.8 0 0 .6-.2 1.3-.2.7 0 1.6.3 2.3 1.2l1.6-.5c-.1-1.1.5-1.9 1.1-2.4.3-.2.6-.4.8-.5.2-.1.4-.1.4-.1-.5-.1-1-.1-1.4 0-.4.1-.7.2-1 .4-.6.4-.9 1-1.1 1.5z"/><path d="M69.3 42.5c-.7-1-2-1.1-2.4-1.1 1-.2 1.6.1 2 .4.3.4.4.7.4.7zM70.1 42.3s-.2-.3-.1-.8.4-1 1.3-1.5c-.1.1-.5.4-.7.7-.3.4-.6 1-.5 1.6z"/><g><path d="M69.2 39.3l-.6-1-.6-1s.1.6.1 1.2c.1.6.1 1.2.1 1.2.6.3.8.8.8.8s0-.6.2-1.2zm1.9-.1c-.4.1-.7.3-.9.4-.2.2-.4.4-.6.5-.3.4-.4.6-.4.6s-.2-.2-.7-.3c-.4-.1-1.1-.1-1.8.1 0 0 .3-.4.9-.6 0 0-.2-.6-.2-1.3-.1-.7 0-1.5.4-2.1 1.4.4 2.2 2.6 2.2 2.6.7-.1 1.1.1 1.1.1z"/></g></g><g><path d="M74.3 40.2c-.4-.3-1-.6-1.7-.7-.7 0-1.5.2-2.3.8 0 0 .1 0 .4-.1h.9c.4.1.8.2 1.1.4.4.2.7.6 1 1.1l.8-.2c.2 0 .4-.1.6-.1.2 0 .3-.1.3-.1.1-1.1.7-1.8 1.3-2.2.3-.2.6-.3.8-.4.2-.1.4-.1.4-.1-1-.3-1.8-.1-2.4.2-.3.2-.6.4-.8.6-.1.3-.3.5-.4.8z"/><path d="M74 41.2c-.3-.5-.8-.9-1.2-1.1-.4-.2-.9-.2-1-.3 1-.1 1.6.3 1.9.6.2.4.3.8.3.8zM74.8 41s-.1-.3 0-.8.5-1 1.5-1.4c-.4.2-1.5 1-1.5 2.2z"/><g><path d="M74.3 37.9s-.2-.5-.5-1.1c-.2-.5-.5-1.1-.5-1.1v2.4c.5.3.7.9.7.9s-.1-.5.3-1.1zm1.8.2c-.8.2-1.3.5-1.6.8-.3.3-.4.6-.4.6s-.2-.2-.6-.3c-.4-.1-1-.3-1.8-.1l.2-.2c.2-.1.4-.2.8-.3 0 0-.4-2.3.5-3.4.7.3 1.1 1 1.4 1.6.3.6.4 1.2.4 1.2.7-.2 1.1.1 1.1.1z"/></g></g><g><path d="M79.2 39.4c-.4-.4-.9-.7-1.6-.9-.2 0-.3-.1-.5-.1s-.4 0-.6.1c-.4.1-.8.3-1.3.5 0 0 .6-.1 1.3.1.7.2 1.5.7 1.9 1.7 0 0 .4-.1.9-.1.2 0 .4-.1.6-.1h.3c.2-1.1.9-1.7 1.6-2.1.7-.3 1.3-.4 1.3-.4-.5-.2-1-.3-1.4-.3-.4 0-.8.1-1.1.2-.7.4-1.1.9-1.4 1.4z"/><path d="M78.8 40.3c-.4-1.1-1.8-1.5-2.1-1.6 1 0 1.6.5 1.8.8.3.5.3.8.3.8zM79.6 40.2s-.1-.4.1-.8.6-.9 1.6-1.2c-.3.2-1.5.8-1.7 2z"/><g><path d="M79.4 37.1s-.2-.6-.4-1.1c-.2-.6-.4-1.1-.4-1.1s-.1.6-.1 1.2c-.1.6-.1 1.2-.1 1.2.5.4.6 1 .6 1v-.4c.1-.2.2-.5.4-.8zm1.9.4c-.8.1-1.3.4-1.7.6-.2.1-.3.3-.4.4-.1.1-.1.2-.1.2s-.2-.2-.6-.4c-.4-.2-1-.4-1.8-.3 0 0 .1-.1.3-.2.2-.1.4-.2.8-.2 0 0-.2-2.3.9-3.3.6.3 1 1.1 1.2 1.8.2.7.3 1.2.3 1.2.7-.1 1.1.2 1.1.2z"/></g></g><g><path d="M84.1 39.1c-.3-.4-.8-.8-1.5-1-.3-.1-.6-.2-1.1-.1-.4.1-.8.2-1.3.4 0 0 .6 0 1.3.2.7.3 1.5.8 1.8 1.9h1.8c.3-1.1 1.1-1.7 1.8-1.9.7-.2 1.3-.2 1.3-.2-.5-.2-.9-.4-1.3-.4-.4-.1-.8 0-1.1.1-.8.2-1.3.6-1.7 1z"/><path d="M83.6 40c-.3-1.2-1.6-1.7-1.9-1.8 1 .2 1.5.6 1.7 1 .3.5.2.8.2.8zM84.4 40s0-.4.2-.8.7-.8 1.7-1c-.3.1-1.5.6-1.9 1.8z"/><g><path d="M84.6 36.9l-.2-1.2c-.1-.6-.3-1.2-.3-1.2s-.1.6-.3 1.1c-.1.6-.2 1.1-.2 1.1.5.4.5 1 .5 1s.1-.3.5-.8zm1.8.6c-.8 0-1.4.2-1.8.5-.4.2-.6.5-.6.5s-.2-.2-.6-.5c-.4-.2-1-.5-1.8-.5 0 0 .4-.3 1.1-.2 0 0 .1-2.3 1.3-3.2 1.2.9 1.2 3.2 1.2 3.2.9-.2 1.2.2 1.2.2z"/></g></g><g><path d="M89.1 39.4c-.3-.5-.7-.9-1.4-1.2-.3-.1-.7-.2-1.1-.2-.4 0-.9.1-1.4.3 0 0 .6 0 1.3.4.7.4 1.4 1 1.5 2.1h.3c.2 0 .4 0 .6.1.4.1.9.1.9.1.4-1 1.2-1.5 2-1.7.7-.2 1.3-.1 1.3-.1-.4-.3-.9-.5-1.3-.6-.2 0-.4-.1-.6-.1h-.5c-.7.1-1.2.5-1.6.9z"/><path d="M88.5 40.2c-.2-1.2-1.4-1.8-1.7-2 1 .3 1.4.8 1.6 1.2.2.5.1.8.1.8zM89.3 40.3s0-.4.2-.7c.3-.4.8-.8 1.8-.8-.2 0-1.6.4-2 1.5z"/><g><path d="M89.8 37.3s-.1-.6-.1-1.2c-.1-.6-.1-1.2-.1-1.2s-.2.6-.4 1.1c-.2.6-.4 1.1-.4 1.1.2.2.3.5.3.7v.4s.2-.5.7-.9zm1.8.7c-.8-.1-1.4.1-1.8.3-.4.2-.6.4-.6.4s0-.1-.1-.2l-.4-.4c-.4-.3-.9-.6-1.7-.7 0 0 .4-.3 1.1-.1 0 0 .1-.6.3-1.2.2-.7.6-1.4 1.3-1.8 1.1 1 .9 3.3.9 3.3.4 0 .6.1.8.2l.2.2z"/></g></g><g><path d="M94 40.2c-.1-.3-.3-.5-.5-.7-.2-.2-.5-.4-.8-.6-.6-.3-1.4-.5-2.4-.2 0 0 .2 0 .4.1s.5.2.8.4c.6.4 1.2 1.1 1.3 2.2 0 0 .1 0 .3.1.2 0 .4.1.6.1l.8.2c.3-.5.6-.8 1-1.1.4-.2.8-.3 1.1-.4.4-.1.7 0 .9 0 .2 0 .4.1.4.1-.8-.7-1.6-.9-2.3-.8-.6-.1-1.1.2-1.6.6z"/><path d="M93.3 40.9c-.1-1.2-1.2-2-1.5-2.1 1 .4 1.3.9 1.5 1.4.2.4 0 .7 0 .7zM94.1 41.1s0-.4.3-.7c.1-.2.4-.3.7-.5.3-.1.7-.2 1.2-.2-.3.1-1.6.3-2.2 1.4z"/><g><path d="M95 38.2V37v-1.2s-.3.5-.5 1.1c-.2.5-.5 1.1-.5 1.1.3.6.3 1.1.3 1.1s.1-.6.7-.9zm1.6.9c-.8-.2-1.4-.1-1.8.1l-.6.3s-.1-.3-.4-.6c-.3-.3-.8-.7-1.6-.8 0 0 .4-.2 1.1 0 0 0 .1-.6.5-1.2.3-.6.8-1.3 1.4-1.6 1 1.1.5 3.4.5 3.4.4 0 .6.2.8.3l.1.1z"/></g></g><g><path d="M98.8 41.5c-.2-.5-.5-1.1-1.1-1.5-.3-.2-.6-.3-1-.4-.4-.1-.9-.1-1.4 0 0 0 .1 0 .4.1.2.1.5.3.8.5.6.5 1.1 1.2 1 2.4l1.6.6c.6-.9 1.5-1.2 2.3-1.2.8 0 1.3.2 1.3.2-.4-.4-.7-.6-1.1-.8-.4-.2-.7-.3-1.1-.3-.6-.1-1.2.1-1.7.4z"/><path d="M98 42.2c0-.6-.2-1.2-.5-1.5-.3-.4-.6-.7-.7-.7.5.2.8.5 1 .8.2.3.3.5.3.8.1.3-.1.6-.1.6zM98.8 42.5s.1-.4.4-.7c.2-.2.4-.3.7-.4.3-.1.7-.1 1.2 0-.2 0-.6 0-1 .1-.5.2-1 .5-1.3 1z"/><g><path d="M100 39.6s.1-.6.1-1.2c.1-.6.1-1.2.1-1.2l-.6 1-.6 1c.3.6.1 1.1.1 1.1s.3-.4.9-.7zm1.5 1.1c-.4-.1-.7-.2-1-.2-.3 0-.6 0-.8.1-.4.1-.7.3-.7.3s-.1-.3-.4-.6c-.1-.2-.3-.4-.6-.6-.2-.2-.6-.3-.9-.5 0 0 .5-.2 1.1.1 0 0 .2-.5.6-1.1.4-.6.9-1.2 1.6-1.5.4.6.5 1.4.4 2.1-.1.7-.2 1.2-.2 1.2.6.3.9.7.9.7z"/></g></g><g><path d="M103.4 43.4c-.1-.5-.4-1.1-.9-1.6s-1.3-.7-2.3-.7c0 0 .6.3 1.1.8.3.3.5.6.7 1 .2.4.2.9.1 1.5l.8.4c.2.1.4.2.5.2.1.1.2.1.2.1.7-.9 1.7-1 2.4-1 .4 0 .7.1.9.2l.4.2c-.3-.4-.7-.7-1-.9-.4-.2-.7-.3-1-.4-.3-.1-.7 0-1 0-.3-.1-.6 0-.9.2z"/><path d="M102.6 44c.1-.6-.1-1.2-.3-1.6-.2-.4-.5-.7-.6-.8.2.1.4.3.5.4.1.2.3.3.3.4.2.3.2.6.2.8.1.5-.1.8-.1.8zM103.3 44.3s.1-.3.5-.6 1-.5 2-.2c-.4 0-1.7-.1-2.5.8z"/><g><path d="M104.8 41.6s.1-.6.3-1.1c.1-.6.3-1.1.3-1.1s-.4.5-.7.9c-.4.5-.7.9-.7.9.2.6 0 1.2 0 1.2s.2-.6.8-.8zm1.4 1.2c-.7-.3-1.3-.4-1.8-.3-.4.1-.7.2-.7.2s-.1-.3-.3-.7c-.2-.4-.7-.9-1.4-1.2h.3c.2 0 .5.1.8.3 0 0 1-2 2.5-2.3.4.6.3 1.5.1 2.2-.1.7-.4 1.2-.4 1.2.7.2.9.6.9.6z"/></g></g><g><path d="M107.8 45.7c-.1-.5-.3-1.2-.7-1.7-.4-.5-1.2-.9-2.2-1 0 0 .5.3 1 .9.5.6.8 1.5.5 2.5 0 0 .4.2.7.4.4.2.7.5.7.5.4-.4.9-.6 1.3-.7.4-.1.9-.1 1.2 0 .7.1 1.2.5 1.2.5-.6-.9-1.2-1.4-1.9-1.5-.6-.2-1.3-.1-1.8.1z"/><path d="M106.9 46.2c.3-1.2-.5-2.3-.7-2.5.8.7 1 1.3.9 1.8 0 .4-.2.7-.2.7zM107.6 46.6s.1-.3.5-.6c.4-.2 1-.4 2 0-.3 0-1.6-.2-2.5.6z"/><g><path d="M109.3 44.1s.2-.6.4-1.1c.2-.6.4-1.1.4-1.1l-.8.8c-.4.4-.8.9-.8.9.2.6-.1 1.1-.1 1.1s.3-.5.9-.6zm1.3 1.4c-.7-.4-1.3-.5-1.7-.5-.4 0-.7.1-.7.1s0-.3-.2-.7c-.2-.4-.6-.9-1.2-1.3 0 0 .5-.1 1 .4 0 0 1.3-1.9 2.7-2.1.5 1.4-.6 3.4-.6 3.4.5.2.7.7.7.7z"/></g></g><g><path d="M111.9 48.5c0-.3 0-.6-.1-.9-.1-.3-.2-.6-.4-.9-.4-.5-1.1-1-2.1-1.2l.3.3c.2.2.4.4.6.7.4.6.7 1.5.2 2.6l.2.2c.1.1.3.2.5.4.3.3.7.5.7.5.5-.3.9-.5 1.4-.6.4 0 .8 0 1.2.1.4.1.7.3.9.4.2.1.3.2.3.2-.5-.9-1.1-1.5-1.7-1.7-.8-.2-1.5-.2-2-.1z"/><path d="M111 48.9c.5-1.1-.2-2.3-.4-2.6.7.8.8 1.4.7 1.9-.1.5-.3.7-.3.7zM111.6 49.4s.2-.3.6-.5c.2-.1.5-.2.8-.1.3 0 .7.1 1.2.4-.3-.2-1.7-.5-2.6.2z"/><g><path d="M113.6 47.1s.3-.5.5-1.1c.2-.5.5-1.1.5-1.1s-.5.4-.9.7c-.4.4-.9.8-.9.8.1.6-.2 1.1-.2 1.1s.4-.3 1-.4zm1.1 1.5c-.6-.5-1.2-.7-1.7-.7h-.7s0-.3-.1-.7c-.2-.4-.5-1-1.1-1.4 0 0 .5 0 1 .5l.9-.9c.6-.4 1.3-.9 2-.9.4 1.4-1 3.3-1 3.3.3.2.5.4.6.6.1.1.1.2.1.2z"/></g></g><g><path d="M115.7 51.8c0-.6 0-1.2-.4-1.8-.2-.3-.4-.6-.7-.8-.3-.2-.7-.5-1.2-.6l.3.3c.2.2.3.5.5.8.3.7.5 1.6-.1 2.6l1.2 1.2c1-.6 1.9-.4 2.6-.1.3.1.6.3.8.5l.3.3c-.1-.3-.2-.5-.3-.7-.1-.2-.2-.4-.4-.5-.3-.3-.6-.5-.9-.7-.5-.6-1.2-.6-1.7-.5z"/><path d="M114.7 52.1c.3-.5.3-1.1.2-1.6-.1-.5-.3-.8-.3-1 .3.4.5.8.6 1.1.1.3 0 .6 0 .8-.2.4-.5.7-.5.7zM115.2 52.6s.2-.3.6-.4c.2-.1.5-.1.8-.1.3.1.7.2 1.1.5-.1-.1-.5-.2-1-.3-.3 0-.9 0-1.5.3z"/><g><path d="M117.5 50.5l.6-1 .6-1-1 .6c-.5.3-1 .7-1 .7 0 .6-.4 1.1-.4 1.1.1 0 .6-.4 1.2-.4zm.9 1.7c-.6-.6-1.1-.8-1.6-.9-.4-.1-.7 0-.7 0s0-.3-.1-.7c-.1-.2-.1-.5-.3-.7-.2-.3-.4-.5-.7-.8 0 0 .5 0 1 .6 0 0 1.6-1.6 3.1-1.4.1.7-.2 1.5-.6 2.1-.4.6-.7 1-.7 1 .6.3.6.8.6.8z"/></g></g><g><path d="M119.1 55.4c.1-.5.1-1.2-.2-1.8-.3-.6-.8-1.2-1.8-1.7 0 0 .4.5.7 1.2.3.7.3 1.6-.3 2.6 0 0 .3.3.6.7.1.2.3.3.4.5l.2.2c1-.5 1.9-.2 2.6.1.6.4 1 .9 1 .9-.1-.5-.3-.9-.5-1.3-.2-.3-.5-.6-.8-.8-.7-.5-1.4-.6-1.9-.6z"/><path d="M118 55.6c.7-1 .3-2.3.2-2.6.3.4.4.8.4 1.2 0 .3 0 .6-.1.8-.2.4-.5.6-.5.6zM118.6 56.2s.2-.3.7-.4c.4-.1 1.1 0 1.9.7-.3-.2-1.5-.8-2.6-.3z"/><g><path d="M121 54.4s.4-.5.7-.9c.4-.5.7-.9.7-.9s-.5.3-1 .5c-.5.3-1 .5-1 .5-.1.6-.5 1-.5 1s.5-.3 1.1-.2zm.8 1.7c-.5-.6-1.1-.9-1.5-1-.2-.1-.4-.1-.5-.1h-.2s.1-.3 0-.7c0-.2-.1-.5-.2-.8-.1-.3-.3-.6-.6-.9 0 0 .5.1.9.7 0 0 1.8-1.4 3.2-1.1.1.7-.4 1.5-.8 2-.4.6-.9.9-.9.9.6.5.6 1 .6 1z"/></g></g><g><path d="M122.1 59.4c.2-.5.2-1.2 0-1.8-.1-.3-.3-.7-.5-1-.3-.3-.6-.6-1.1-.9 0 0 .4.5.5 1.2.2.7.1 1.7-.6 2.5l.2.2c.1.1.2.3.3.5.2.4.5.7.5.7 1.1-.3 2 0 2.6.4.6.4.9 1 .9 1-.1-.5-.2-1-.4-1.3-.1-.2-.2-.3-.3-.5-.1-.1-.2-.3-.4-.4-.6-.4-1.2-.6-1.7-.6z"/><path d="M121 59.5c.8-.9.5-2.2.4-2.6.4 1 .3 1.6.1 2-.2.4-.5.6-.5.6zM121.5 60.1s.3-.2.7-.3c.4 0 1.1.1 1.8.9-.3-.2-1.4-1-2.5-.6z"/><g><path d="M124.1 58.6l.8-.8.8-.8s-.5.2-1.1.4c-.5.2-1.1.4-1.1.4-.1.3-.2.6-.3.7-.1.2-.2.3-.2.3s.5-.4 1.1-.2zm.6 1.8c-.4-.7-1-1-1.4-1.2-.4-.2-.7-.2-.7-.2s.1-.3.1-.7c0-.4-.1-1.1-.6-1.7 0 0 .5.1.8.8 0 0 .5-.3 1.1-.5.7-.2 1.5-.4 2.2-.2-.1 1.5-2 2.8-2 2.8.2.3.3.5.4.7.1 0 .1.2.1.2z"/></g></g><g><path d="M124.6 63.6c.2-.5.4-1.1.2-1.8-.1-.7-.5-1.4-1.4-2 0 0 .1.1.2.4.1.2.2.5.2.9.1.7-.1 1.7-.9 2.4 0 0 .1.1.1.2.1.1.2.3.3.5l.4.8c1.1-.2 1.9.2 2.5.7.3.2.5.5.6.7.1.1.1.2.1.2v.1c0-1.1-.4-1.8-.8-2.3-.4-.4-1-.6-1.5-.8z"/><path d="M123.5 63.6c.9-.8.7-2.2.7-2.5.3 1 .2 1.6-.1 2-.2.4-.6.5-.6.5zM123.9 64.3s.3-.2.8-.2c.2 0 .5.1.8.2.3.2.6.4.9.8-.1-.1-.4-.4-.9-.6-.4-.1-1-.3-1.6-.2z"/><g><path d="M126.7 63.1s.5-.4.9-.7c.4-.4.9-.8.9-.8s-.6.1-1.1.3c-.6.2-1.1.3-1.1.3-.2.6-.7.9-.7.9s.5-.2 1.1 0zm.4 1.8c-.3-.7-.8-1.1-1.2-1.3-.4-.2-.7-.3-.7-.3s.1-.3.2-.7c0-.5 0-1.1-.4-1.8 0 0 .5.2.7.8 0 0 .5-.2 1.2-.4s1.5-.3 2.2.1c-.2 1.4-2.2 2.5-2.2 2.5.2.3.3.6.3.8-.1.2-.1.3-.1.3z"/></g></g><g><path d="M126.6 68.2c.3-.5.5-1.1.4-1.8-.1-.7-.4-1.4-1.2-2.1 0 0 .1.1.1.4.1.2.1.6.1.9 0 .7-.2 1.6-1.1 2.3l.6 1.6c1.1-.1 1.9.4 2.4 1 .3.3.4.6.5.8l.2.4V71c0-.2-.1-.4-.1-.6-.1-.4-.3-.7-.5-1-.2-.7-.8-1-1.4-1.2z"/><path d="M125.6 68c.5-.4.8-.9.9-1.4.1-.5.1-.9.1-1 .2 1 0 1.6-.3 2-.4.4-.7.4-.7.4zM125.9 68.8s.3-.2.8-.1c.5 0 1 .3 1.6 1.2-.3-.3-1.2-1.3-2.4-1.1z"/><g><path d="M128.8 67.8l1-.6c.5-.3 1-.7 1-.7l-1.2.2-1.2.2c-.3.6-.8.8-.8.8s.6-.1 1.2.1zm.2 1.9c-.3-.7-.7-1.2-1.1-1.5-.4-.3-.6-.3-.6-.3s.2-.3.2-.7c0-.2.1-.5.1-.8 0-.3-.1-.6-.2-1l.2.2c.1.1.3.4.4.7 0 0 2.2-.8 3.4 0-.2.7-.8 1.3-1.4 1.7-.6.4-1.1.6-1.1.6.3.6.1 1.1.1 1.1z"/></g></g><g><path d="M128.2 72.9c.3-.4.6-1 .6-1.7s-.3-1.5-.9-2.3c0 0 .2.6.1 1.3-.1.7-.4 1.6-1.4 2.2l.2.8c.1.2.1.4.1.6 0 .2.1.3.1.3 1.1 0 1.9.6 2.3 1.2.4.6.5 1.2.5 1.2.1-.5.1-1 .1-1.4-.1-.4-.2-.7-.4-1-.3-.6-.8-1-1.3-1.2z"/><path d="M127.2 72.7c1.1-.6 1.2-2 1.2-2.3.1.5 0 .9-.1 1.2-.1.3-.3.5-.4.7-.4.3-.7.4-.7.4zM127.4 73.4s.3-.1.8 0c.4.1 1 .4 1.4 1.4-.2-.3-1-1.4-2.2-1.4z"/><g><path d="M130.4 72.8s.5-.3 1-.5c.5-.3 1-.5 1-.5h-1.2c-.6 0-1.2.1-1.2.1-.3.6-.9.7-.9.7s.7-.1 1.3.2zm-.1 1.9c-.2-.8-.6-1.3-.9-1.6-.2-.2-.3-.3-.4-.3-.1-.1-.2-.1-.2-.1s.2-.2.3-.7c.1-.4.2-1.1 0-1.8 0 0 .4.3.5 1 0 0 2.2-.5 3.4.4-.2.7-1 1.2-1.6 1.5-.6.3-1.2.5-1.2.5.4.6.1 1.1.1 1.1z"/></g></g><g><path d="M129.2 77.8c.4-.4.7-1 .8-1.6 0-.3 0-.7-.1-1.1-.1-.4-.3-.8-.6-1.2 0 0 .1.6 0 1.3-.2.7-.6 1.6-1.6 2 0 0 .1.4.1.8.1.4.1.9.1.9 1.1.1 1.8.8 2.2 1.5.3.7.4 1.3.4 1.3.3-1 .3-1.8 0-2.4-.4-.8-.8-1.2-1.3-1.5z"/><path d="M128.2 77.4c1.1-.5 1.4-1.8 1.5-2.1 0 1.1-.4 1.6-.8 1.9-.3.2-.7.2-.7.2zM128.3 78.2s.3-.1.8.1c.4.1.9.5 1.3 1.5-.2-.3-.9-1.5-2.1-1.6z"/><g><path d="M131.4 77.9s.6-.2 1.1-.4c.6-.2 1.1-.4 1.1-.4s-.6 0-1.2-.1c-.6 0-1.2-.1-1.2-.1-.4.5-.9.6-.9.6s.6 0 1.1.4zm-.2 1.9c-.1-.8-.4-1.3-.7-1.7l-.5-.5s.2-.2.4-.6c.2-.4.3-1 .2-1.8 0 0 .4.3.4 1 0 0 2.3-.3 3.3.8-.7 1.3-3 1.7-3 1.7.1.7-.1 1.1-.1 1.1z"/></g></g><g><path d="M129.7 82.7c.4-.4.8-.9 1-1.5.1-.3.1-.7.1-1.1-.1-.4-.2-.8-.5-1.3v.4c0 .2 0 .6-.2.9-.3.7-.8 1.5-1.8 1.8V83.7c1.1.3 1.7 1 2 1.7.3.7.3 1.3.3 1.3.2-.5.3-.9.4-1.3 0-.4 0-.8-.1-1.1-.4-.8-.8-1.2-1.2-1.6z"/><path d="M128.7 82.3c1.2-.4 1.6-1.6 1.7-2-.1 1-.6 1.5-.9 1.8-.4.2-.8.2-.8.2zM128.8 83s.4-.1.8.1.9.6 1.1 1.7c-.2-.2-.8-1.5-1.9-1.8z"/><g><path d="M131.9 83.1s.6-.1 1.1-.3c.6-.1 1.1-.3 1.1-.3s-.6-.1-1.1-.2l-1.2-.2c-.4.5-1 .5-1 .5s.6.1 1.1.5zm-.5 1.8c0-.8-.3-1.4-.5-1.7-.3-.4-.5-.5-.5-.5s.1 0 .1-.1c.1-.1.2-.2.3-.4.2-.4.4-1 .4-1.8 0 0 .3.4.3 1.1 0 0 .6 0 1.3.1.7.1 1.5.4 1.9 1-.8 1.2-3.1 1.4-3.1 1.4.1.3 0 .6-.1.8l-.1.1z"/></g></g><g><path d="M129.6 87.7c.2-.2.5-.4.7-.6.2-.2.4-.5.5-.8.2-.6.3-1.5-.2-2.4v.4c0 .2-.1.6-.3.9-.3.7-.9 1.4-2 1.6V87.7c0 .4-.1.9-.1.9.5.2.9.5 1.2.8.3.3.4.7.6 1.1.2.7.2 1.3.2 1.3.5-.9.6-1.7.5-2.4-.3-.8-.7-1.3-1.1-1.7z"/><path d="M128.7 87.1c1.2-.2 1.8-1.5 1.9-1.8-.2 1-.7 1.5-1.1 1.6-.4.3-.8.2-.8.2zM128.7 87.9s.4 0 .7.2c.2.1.4.3.6.6.2.3.3.7.3 1.2 0-.3-.5-1.6-1.6-2z"/><g><path d="M131.7 88.3l1.2-.2 1.2-.2s-.6-.2-1.1-.3c-.6-.2-1.1-.3-1.1-.3-.5.4-1.1.4-1.1.4s.5.1.9.6zm-.6 1.8c.1-.8-.1-1.4-.3-1.8-.2-.4-.4-.6-.4-.6s.3-.2.5-.5c.3-.4.5-.9.6-1.7 0 0 .3.4.2 1.1 0 0 .6.1 1.2.3.7.2 1.4.6 1.8 1.2-.9 1.1-3.2 1-3.2 1 0 .4-.1.6-.1.8-.2.1-.3.2-.3.2z"/></g></g><g><path d="M129 92.6c.2-.1.5-.3.7-.5.2-.2.4-.5.6-.8.1-.3.2-.7.3-1.1 0-.4 0-.9-.2-1.4 0 0 0 .2-.1.4s-.2.5-.4.9c-.4.6-1 1.3-2.2 1.4l-.3 1.7c1 .5 1.4 1.3 1.6 2.1.1.4.1.7.1.9 0 .2-.1.4-.1.4.6-.8.8-1.7.8-2.3-.1-.7-.4-1.2-.8-1.7z"/><path d="M128.2 92c1.2-.1 1.9-1.3 2.1-1.5-.3 1-.9 1.4-1.3 1.5-.5.1-.8 0-.8 0zM128.1 92.8s.4 0 .7.3c.4.3.7.8.7 1.9 0-.2-.1-.6-.3-1-.2-.5-.6-1-1.1-1.2z"/><g><path d="M131.1 93.5h2.4s-.5-.2-1.1-.5c-.5-.2-1.1-.4-1.1-.4-.5.4-1.1.3-1.1.3s.5 0 .9.6zm-.9 1.7c.1-.4.1-.7.1-1 0-.3-.1-.6-.2-.8-.2-.4-.4-.6-.4-.6s.3-.1.6-.5c.3-.3.6-.9.8-1.6 0 0 .3.4.1 1.1 0 0 .6.1 1.2.4.6.3 1.4.7 1.7 1.4-1.1 1-3.3.7-3.3.7-.2.5-.6.9-.6.9z"/></g></g><g><path d="M127.9 97.5c.5-.2 1.1-.6 1.4-1.1.4-.6.5-1.4.4-2.4 0 0 0 .1-.1.4-.1.2-.3.5-.5.8-.2.3-.5.6-.9.8-.4.2-.9.3-1.4.3l-.2.8c-.1.2-.1.4-.2.6 0 .2-.1.3-.1.3 1 .6 1.3 1.5 1.3 2.2 0 .4 0 .7-.1.9 0 .2-.1.4-.1.4.8-.8 1-1.6 1-2.2.1-.8-.2-1.4-.5-1.8z"/><path d="M127.1 96.7c.6 0 1.1-.2 1.5-.5.4-.3.6-.6.7-.8-.4 1-1 1.3-1.5 1.4-.3.1-.7-.1-.7-.1zM126.9 97.5s.4.1.7.4c.3.3.6.9.5 1.9 0-.3-.1-1.7-1.2-2.3z"/><g><path d="M129.8 98.5s.6 0 1.2.1c.6 0 1.2.1 1.2.1l-1-.6-1-.6c-.6.3-1.1.2-1.1.2s.4.3.7.8zm-1 1.6c.2-.8.2-1.4.1-1.8-.1-.4-.3-.7-.3-.7s.3-.1.6-.4c.3-.3.8-.8.9-1.5 0 0 .1.1.1.3 0 .2 0 .5-.1.8 0 0 2.2.7 2.7 2.1-.6.4-1.4.5-2.1.5-.7 0-1.3-.2-1.3-.2-.2.6-.6.9-.6.9z"/></g></g><g><path d="M126.2 102.2c.5-.2 1.1-.5 1.5-1 .1-.1.2-.3.3-.4.1-.2.2-.3.2-.5.1-.4.2-.9.1-1.4 0 0-.2.6-.7 1.1-.5.5-1.3 1-2.4.9 0 0-.2.4-.3.8-.1.2-.2.4-.2.5-.1.1-.1.2-.1.2.9.7 1.1 1.6 1.1 2.4 0 .7-.3 1.3-.3 1.3.4-.3.7-.7.9-1.1.2-.4.3-.7.3-1.1.1-.6-.1-1.2-.4-1.7z"/><path d="M125.6 101.3c1.2.2 2.2-.8 2.4-1.1-.5.9-1.2 1.2-1.6 1.2-.5.1-.8-.1-.8-.1zM125.3 102.1s.3.1.6.4c.3.3.5 1 .3 2 0-.3 0-1.7-.9-2.4z"/><g><path d="M128 103.4l1.2.2 1.2.2s-.5-.3-1-.7c-.5-.3-1-.7-1-.7-.6.2-1.1.1-1.1.1s.1.1.3.2c.1.2.3.4.4.7zm-1.1 1.5c.3-.7.3-1.4.2-1.8 0-.2-.1-.4-.1-.5 0-.1-.1-.2-.1-.2s.3-.1.6-.3c.4-.3.8-.7 1.1-1.4v.3c0 .2-.1.5-.2.8 0 0 2.1 1 2.4 2.4-.6.4-1.5.3-2.2.2-.7-.1-1.2-.3-1.2-.3-.1.6-.5.8-.5.8z"/></g></g><g><path d="M124.1 106.6c.6-.1 1.1-.3 1.6-.8.2-.2.5-.5.6-.9.1-.4.2-.8.3-1.4 0 0-.3.5-.8 1-.6.5-1.4.9-2.5.6 0 0 0 .1-.1.2s-.2.3-.3.5c-.2.4-.4.7-.4.7.8.8.9 1.7.8 2.5-.1.7-.4 1.3-.4 1.3.9-.6 1.3-1.3 1.5-2 0-.5-.1-1.1-.3-1.7z"/><path d="M123.5 105.8c1.2.3 2.2-.6 2.5-.8-.7.8-1.3 1-1.7 1-.5 0-.8-.2-.8-.2zM123.1 106.4s.3.1.6.5c.2.4.4 1 .1 2 0-.3.2-1.6-.7-2.5z"/><g><path d="M125.7 108.1s.6.2 1.1.3c.6.2 1.1.3 1.1.3s-.4-.4-.9-.8c-.4-.4-.9-.8-.9-.8-.3.1-.6.1-.8 0-.2 0-.3-.1-.3-.1s.6.5.7 1.1zm-1.3 1.3c.4-.7.5-1.3.4-1.8 0-.4-.1-.7-.1-.7h.2c.1 0 .3-.1.5-.2.4-.2.9-.6 1.3-1.3 0 0 .1.5-.3 1.1 0 0 .5.3 1 .8s1.1 1.1 1.2 1.9c-1.3.6-3.4-.5-3.4-.5-.1.3-.3.5-.5.7h-.3z"/></g></g><g><path d="M121.4 110.8c.6 0 1.2-.2 1.7-.6.3-.2.5-.5.7-.8.2-.3.4-.8.4-1.3 0 0-.1.1-.2.3-.2.2-.4.4-.7.6-.6.4-1.5.7-2.6.3l-1 1.4c.7.9.7 1.8.5 2.5-.1.4-.2.7-.3.9-.1.2-.2.3-.2.3.9-.5 1.4-1.2 1.7-1.8.2-.6.2-1.2 0-1.8z"/><path d="M121 109.9c1.2.4 2.3-.3 2.5-.5-.7.8-1.4.9-1.8.8-.5 0-.7-.3-.7-.3zM120.5 110.6s.3.2.5.6c.2.4.3 1.1-.2 2 0-.2.2-.6.2-1 0-.6-.1-1.2-.5-1.6z"/><g><path d="M122.9 112.5s.5.2 1.1.5c.5.2 1.1.5 1.1.5s-.4-.4-.8-.9c-.4-.4-.8-.9-.8-.9-.6.1-1.1-.2-1.1-.2s.4.3.5 1zm-1.4 1.2c.2-.3.4-.6.5-.9.1-.3.1-.6.1-.8 0-.4-.1-.7-.1-.7s.3 0 .7-.2c.4-.2.9-.5 1.4-1.2 0 0 0 .5-.4 1 0 0 .5.3.9.9.5.5.9 1.2.9 2-1.4.5-3.3-.8-3.3-.8-.2.3-.4.5-.5.6-.1 0-.2.1-.2.1z"/></g></g><g><path d="M118.3 114.8c.6 0 1.2-.1 1.8-.4.6-.4 1.1-1 1.4-2l-.3.3c-.2.2-.4.4-.8.5-.3.2-.7.3-1.2.4-.4 0-.9-.1-1.4-.3l-.6.6c-.1.2-.3.3-.4.4l-.2.2c.6.9.5 1.9.3 2.6-.1.4-.3.6-.4.8-.1.2-.2.3-.2.3 1-.4 1.6-1 1.9-1.6l.3-.9c-.1-.4-.1-.7-.2-.9z"/><path d="M118 113.8c.6.3 1.1.3 1.6.2.5-.1.8-.3 1-.4-.8.7-1.5.7-1.9.6-.5-.2-.7-.4-.7-.4zM117.5 114.4s.3.2.5.6c.2.4.2 1.1-.4 2 .1-.4.6-1.6-.1-2.6z"/><g><path d="M119.7 116.5l1 .6 1 .6s-.3-.5-.7-1c-.3-.5-.7-.9-.7-.9-.6 0-1.1-.3-1.1-.3s.4.4.5 1zm-1.6 1c.5-.6.8-1.2.8-1.6.1-.4 0-.7 0-.7s.3 0 .7-.1c.4-.1 1-.4 1.5-1 0 0 0 .1-.1.3-.1.2-.2.4-.5.7 0 0 1.7 1.6 1.5 3-.7.2-1.5-.1-2.1-.5-.6-.3-1.1-.7-1.1-.7-.2.6-.7.6-.7.6z"/></g></g><g><path d="M114.9 118.3c1.1.2 2.6-.1 3.4-2.1 0 0-.4.4-1.1.7-.2.1-.4.1-.6.2-.2 0-.4.1-.6 0-.4 0-.9-.1-1.4-.5l-.6.6c-.3.3-.7.6-.7.6.5 1 .3 1.9 0 2.6-.3.7-.8 1-.8 1 .5-.1.9-.3 1.3-.6.3-.2.6-.5.8-.8.2-.5.3-1.1.3-1.7z"/><path d="M114.6 117.3c1 .6 2.3.2 2.6 0-.9.6-1.5.6-2 .4-.4-.1-.6-.4-.6-.4zM114 117.8s.3.2.4.7c.1.4.1 1.1-.6 1.9.2-.3.8-1.5.2-2.6z"/><g><path d="M116 120.2s.5.3 1 .7c.5.3 1 .7 1 .7l-.6-1-.6-1c-.6 0-1.1-.4-1.1-.4s.3.4.3 1zm-1.7.8c.6-.5.9-1.1 1-1.5.1-.2.1-.4.1-.5v-.2s.3.1.7 0c.4-.1 1-.3 1.6-.8 0 0 0 .1-.1.3-.1.2-.3.4-.5.6 0 0 1.5 1.7 1.2 3.2-.7.1-1.5-.3-2.1-.7-.6-.4-1-.8-1-.8-.4.4-.9.4-.9.4z"/></g></g><g><path d="M111 121.5c.5.2 1.2.2 1.8 0 .3-.1.6-.3 1-.6.3-.3.6-.7.8-1.1 0 0-.5.4-1.2.6-.7.2-1.7.2-2.5-.5 0 0-.3.3-.7.5-.4.2-.7.5-.7.5.2.5.2 1 .2 1.5-.1.4-.3.8-.5 1.1-.4.6-.9 1-.9 1 1-.2 1.7-.6 2.2-1.2.3-.7.5-1.3.5-1.8z"/><path d="M110.9 120.4c1 .8 2.3.4 2.6.3-.9.5-1.6.4-2 .2-.4-.2-.6-.5-.6-.5zM110.2 120.9s.2.3.3.7c.1.4 0 1.1-.8 1.8.3-.2 1-1.4.5-2.5z"/><g><path d="M111.9 123.5s.4.4.9.8c.4.4.9.8.9.8s-.2-.5-.5-1.1c-.2-.5-.5-1.1-.5-1.1-.6-.1-1-.6-1-.6s.3.5.2 1.2zm-1.8.6c.3-.2.6-.5.8-.7.2-.2.3-.5.4-.7.2-.4.2-.7.2-.7s.3.1.7.1c.4 0 1-.2 1.7-.7 0 0-.1.5-.7.8 0 0 .3.5.6 1.1.3.6.5 1.5.3 2.2-1.5 0-2.9-1.8-2.9-1.8-.3.2-.5.4-.7.4h-.4z"/></g></g><g><path d="M106.8 124.2c.5.2 1.2.3 1.8.2.3-.1.7-.2 1-.5.3-.2.7-.6.9-1 0 0-.5.3-1.3.4-.7.1-1.7 0-2.5-.8l-1.5.9c.3 1.1-.1 1.9-.6 2.5-.5.6-1 .9-1 .9.5 0 1-.1 1.4-.3.4-.2.7-.4.9-.6.6-.6.9-1.2.9-1.7z"/><path d="M106.8 123.1c.9.9 2.2.7 2.5.6-1 .4-1.6.2-2 0-.3-.3-.5-.6-.5-.6zM106.1 123.5s.2.3.2.7c0 .5-.2 1.1-1 1.7.1-.1.4-.4.6-.9.3-.3.4-.9.2-1.5z"/><g><path d="M107.5 126.3s.4.4.8.9c.4.4.8.9.8.9s-.2-.6-.3-1.1c-.2-.6-.4-1.1-.4-1.1-.6-.2-1-.7-1-.7s.3.5.1 1.1zm-1.8.4c.3-.2.6-.4.8-.6.2-.2.4-.5.5-.6.2-.4.2-.7.2-.7s.3.1.7.1c.5 0 1.1-.1 1.8-.5 0 0-.2.5-.8.8 0 0 .3.5.5 1.2s.3 1.5 0 2.2c-.7-.1-1.4-.6-1.9-1.1-.5-.5-.8-1-.8-1-.5.3-1 .2-1 .2z"/></g></g><g><path d="M102.4 126.4c.5.3 1.1.4 1.8.4.7-.1 1.4-.5 2.1-1.3 0 0-.6.3-1.3.3-.4 0-.8 0-1.2-.2-.4-.2-.8-.4-1.2-.9l-.8.4c-.2.1-.4.2-.5.2-.2.1-.3.1-.3.1.2 1.1-.3 1.9-.9 2.5-.3.3-.5.4-.8.6l-.4.2c.5 0 1 0 1.4-.1.4-.1.7-.3 1-.5.3-.2.5-.5.6-.7.3-.4.4-.7.5-1z"/><path d="M102.5 125.4c.4.5.9.7 1.4.8.5.1.9.1 1 .1-.3.1-.5.1-.7.1h-.6c-.3-.1-.6-.2-.7-.3-.3-.4-.4-.7-.4-.7zM101.8 125.7s.2.3.2.8-.3 1-1.2 1.6c.2-.3 1.2-1.2 1-2.4z"/><g><path d="M102.8 128.6s.3.5.7 1c.3.5.7.9.7.9l-.2-1.2c-.1-.6-.2-1.1-.2-1.1-.6-.2-.9-.8-.9-.8s.2.6-.1 1.2zm-1.8.2c.7-.3 1.2-.7 1.4-1.1.2-.4.3-.7.3-.7s.3.1.7.2c.4.1 1.1.1 1.8-.3 0 0-.1.1-.2.3-.1.1-.4.3-.7.4 0 0 .9 2.1.1 3.4-.7-.1-1.3-.8-1.7-1.3-.4-.6-.7-1.1-.7-1.1-.5.4-1 .2-1 .2z"/></g></g><g><path d="M97.8 128.2c.5.3 1.1.5 1.7.5.7 0 1.5-.3 2.2-1 0 0-.6.2-1.3.2-.7 0-1.6-.4-2.2-1.3 0 0-.4.1-.8.3l-.8.2c0 1.1-.5 1.9-1.1 2.3-.6.4-1.2.6-1.2.6.5.1 1 .1 1.4 0 .4-.1.7-.2 1-.4.5-.4.8-.9 1.1-1.4z"/><path d="M98 127.1c.7 1 2 1.1 2.3 1.1-1 .1-1.6-.2-1.9-.5-.4-.2-.4-.6-.4-.6zM97.2 127.4s.1.3.1.8c-.1.4-.4 1-1.3 1.5.2-.3 1.3-1.1 1.2-2.3z"/><g><path d="M97.9 130.4l.6 1 .6 1s0-.6-.1-1.2-.1-1.2-.1-1.2c-.6-.3-.8-.8-.8-.8s.2.6-.2 1.2zm-1.8 0c.8-.2 1.2-.6 1.5-1 .3-.3.4-.6.4-.6s.2.2.7.3c.4.1 1.1.2 1.8-.1l-.2.2c-.2.1-.4.3-.7.3 0 0 .6 2.2-.2 3.4-.7-.2-1.2-.9-1.6-1.5-.4-.6-.5-1.2-.5-1.2-.8.4-1.2.2-1.2.2z"/></g></g><g><path d="M92.9 129.4c.4.4 1 .7 1.7.7.3 0 .7 0 1.1-.1.4-.1.8-.3 1.2-.7 0 0-.6.1-1.3 0-.7-.1-1.6-.5-2.1-1.5 0 0-.1 0-.3.1-.2 0-.4.1-.6.1-.4.1-.8.1-.8.1-.1 1.1-.7 1.8-1.4 2.2-.6.4-1.2.5-1.2.5 1 .3 1.8.2 2.4-.1.7-.4 1.1-.8 1.3-1.3z"/><path d="M93.3 128.4c.5 1.1 1.9 1.3 2.2 1.4-1.1 0-1.6-.3-1.9-.7-.3-.4-.3-.7-.3-.7zM92.5 128.5s.1.3 0 .8c-.1.4-.5 1-1.5 1.3.3-.1 1.4-.9 1.5-2.1z"/><g><path d="M92.9 131.6s.2.5.5 1.1c.2.5.5 1.1.5 1.1v-1.2-1.2c-.5-.4-.7-.9-.7-.9s0 .6-.3 1.1zm-1.9-.2c.8-.1 1.3-.5 1.6-.8.3-.3.5-.6.5-.6s.1.1.2.1c.1.1.3.2.5.2.4.2 1 .3 1.8.1 0 0-.3.4-1 .4 0 0 .1.6.1 1.3 0 .7-.2 1.6-.7 2.1-1.3-.6-1.8-2.9-1.8-2.9-.3.1-.6.1-.8.1-.3.1-.4 0-.4 0z"/></g></g><g><path d="M84.2 131.1s.6 0 1.3-.4c.3-.2.7-.4 1-.7.3-.3.5-.8.6-1.3 0 0 .4 0 .9-.1H88.9c.4 1.1 1.2 1.5 1.9 1.8.4.1.7.1.9.1h.4c-.2.1-.4.3-.7.3-.2.1-.4.1-.6.2-.4.1-.8.1-1.1 0-.7-.1-1.2-.5-1.6-.9-.3.5-.8.9-1.4 1.2-.7.1-1.6.2-2.5-.2zm6.3-.4c-.3-.1-1.6-.4-2-1.6 0 0 0 .4.2.8.2.3.7.7 1.8.8zm-4.6.4c.3-.1.5-.1.7-.2.2-.1.3-.2.5-.3.3-.2.4-.4.5-.6.2-.4.1-.8.1-.8-.3 1.2-1.5 1.8-1.8 1.9z"/><path d="M87.7 132.2s.2.6.3 1.1c.2.6.3 1.1.3 1.1l.2-1.2.2-1.2c-.5-.4-.6-1-.6-1s0 .8-.4 1.2zm-1.8-.3c.8 0 1.3-.3 1.7-.6.4-.3.5-.5.5-.5s.2.2.6.4c.4.2 1 .4 1.8.3 0 0-.4.4-1 .3 0 0 0 .6-.1 1.3-.1.7-.4 1.5-.9 2-1.2-.8-1.5-3-1.5-3-.3.1-.6 0-.8 0-.2-.2-.3-.2-.3-.2z"/></g><path d="M84.2 44.1c-22.4 0-40.6 18.2-40.6 40.6 0 22.4 18.2 40.6 40.6 40.6 22.4 0 40.6-18.2 40.6-40.6-.1-22.4-18.3-40.6-40.6-40.6zm6.9 22c2.3 0 4.7 0 7 .1 2.4 0 4.3 1.9 4.3 4.3v7.2c.5.8 1.1 1.5 1.6 2.3-.5.8-1.1 1.5-1.6 2.3v7.3c0 2.3-2 4.2-4.3 4.1h-7v-4.9c.3-.4.5-.7.8-1.1h4.5V82c-.5-.7-1-1.5-1.6-2.2.5-.7 1-1.4 1.6-2.1V72h-5.3v-5.9zM80.8 86.5h7.5c-.3.4-.5.7-.8 1.1V95h-5.9v-7.4c-.3-.4-.6-.7-.8-1.1zm-7.1-3.6V84h-5.9v-5l-.9-2.1c8.5 0 17.1 0 25.6.1-.7 1-1.4 1.9-2.1 2.9.7 1 1.5 2.1 2.2 3.1-6.3-.1-12.6-.1-18.9-.1zm7.9-26.8l2.9 2.9 2.9-2.9h1.1c-.3.7-.7 1.5-1 2.2v15.1h-5.9V58.2c-.3-.7-.6-1.4-1-2.2.3.1.7.1 1 .1zM52.2 93.6l.9-2.1v-9.4c-.5-.8-1.1-1.5-1.7-2.3.6-.8 1.1-1.5 1.7-2.3v-9.4l-.9-2.1h25.7v6H59v5.7c.5.7 1 1.4 1.5 2.2-.5.7-1 1.4-1.5 2.2v5.7h18.1c.3.4.5.7.8 1.1v4.8c-8.6-.1-17.2-.1-25.7-.1zm35.2 20.9l-2.9-2.9-2.9 2.9h-1.1c.3-.8.7-1.5 1-2.3v-4h5.9v4c.3.8.7 1.5 1 2.3h-1zm29.7-13.9c0 2.3-1.9 4.1-4.3 4.1-14.2-.2-28.4-.3-42.5-.3h-3.4l.9-2.1v-5.2h5.9v1.4c12.5 0 24.9.1 37.4.2V93c-.5-.7-1-1.5-1.5-2.2l1.5-2.1V83c-1.6 0-3.2 0-4.9-.1.7-1 1.5-2 2.2-3-.7-1-1.4-1.9-2.1-2.9 2.1 0 4.3 0 6.4.1 2.3 0 4.3 2 4.3 4.3v7.2c.5.8 1.1 1.5 1.6 2.3-.5.8-1.1 1.5-1.6 2.3v7.4z"/><g><path d="M7.2 81.2l3.2.6v.9l-.3-.3-1.7-.3v.7l1.1.2.3-.2v1.1l-.3-.3-1.1-.2v.7l1.7.3.3-.2v.9l-3.2-.6.2-.2v-2.9l-.2-.2zM14.9 82.5v1.1c-.5-.3-1-.5-1.4-.6-.2 0-.4 0-.4.1s.3.4 1 .7c.7.4 1 .8 1 1.2 0 .7-.5 1-1.4.8-.4-.1-.8-.2-1.3-.5l-.3.2v-1.2c.5.4 1 .7 1.5.8.3 0 .4 0 .4-.2 0-.1-.3-.3-.8-.6-.4-.2-.7-.4-.9-.7-.2-.2-.2-.4-.2-.7 0-.3.2-.5.5-.7.3-.1.6-.1.9 0 .3 0 .6.2 1.1.4l.3-.1zM20.3 83.5v1l-.2-.2-.9-.2v2.3l.2.3-1.4-.2.2-.2V84l-.9-.2-.3.2v-1l3.3.5zM22.1 87.2l.2-.2v-2.9l-.2-.3 1.8.3c1.2.2 1.9.9 1.9 2s-.6 1.6-1.8 1.3l-1.9-.2zm1.2-.5l.5.1c.6.1.9-.2.9-.8 0-.7-.3-1-1-1.2l-.5-.1v2z"/></g><g><path d="M144.3 87.6c0-.3 0-.5.1-.6.1-.3.3-.6.5-.8.1-.1.3-.3.6-.5l.4-.2c.2-.1.3-.2.4-.3.1-.1.1-.2.1-.3 0-.1 0-.2-.1-.2s-.2-.1-.4 0c-.2 0-.4.1-.6.3-.3.1-.5.4-.7.6l-.4-.7c.5-.5 1.1-.8 1.8-1 .4-.1.7 0 .9.1.2.2.4.4.4.7 0 .3-.1.6-.3.9-.1.2-.3.3-.6.5l-.4.2s-.1.1-.3.2c-.2.1-.3.2-.3.2l1.8-.3.2-.2v1l-3.1.4zM150.7 83c.4-.1.8 0 1.1.2.3.3.5.7.5 1.2 0 .2 0 .4-.1.5 0 .2-.1.4-.2.5-.2.3-.3.5-.6.6-.2.1-.5.2-.7.3-.4.1-.8 0-1.1-.2-.1-.1-.3-.3-.3-.4-.1-.2-.2-.5-.2-.8 0-.4.1-.8.3-1.1.1-.3.3-.5.6-.6.2 0 .5-.1.7-.2zm0 .8c-.2 0-.4.2-.5.4-.1.2-.2.5-.2.7 0 .3.1.5.2.7.1.2.3.2.5.2s.4-.2.5-.4c.1-.2.2-.4.2-.7 0-.3-.1-.5-.2-.7-.1-.2-.2-.3-.5-.2zM153.5 83.9v-.6l1-.9.3-.1v3.2l.1.2-1.2.2.1-.2v-2.1l-.3.3zM159.2 82.7c-.3-.2-.7-.3-1.1-.2-.2 0-.4.1-.6.3-.1.1-.2.2-.2.3-.1.1-.1.2-.1.2.1-.1.2-.1.3-.2.2-.1.4-.2.6-.2.4-.1.7 0 .9.1.1.1.3.2.4.3.1.1.1.3.1.5 0 .4-.2.7-.5 1-.3.3-.6.4-1.1.5-.5.1-.8 0-1.1-.2-.2-.1-.3-.3-.4-.5-.1-.2-.1-.5-.1-.7 0-.5.2-1 .5-1.4.3-.4.8-.6 1.3-.7.5-.1.9 0 1.3.2l-.2.7zm-1.2.9c-.2 0-.4.1-.5.2-.1.1-.2.2-.2.3 0 .1.1.2.2.3.1.1.3.1.5.1s.4-.1.5-.2c.1-.1.2-.2.2-.3 0-.1 0-.2-.2-.3-.1-.1-.2-.1-.5-.1z"/></g><g><path d="M30.6 121.8l-.4-.6-4.8 3.4.4.6c.6.8 1.3 1.2 2 1.3.7.1 1.4-.2 2.1-.7.7-.5 1.2-1.1 1.3-1.8.2-.6 0-1.3-.6-2.2zM116 141.9c-.4-.1-.8-.1-1.3.2l-1.1.6 1.5 2.9 1.1-.6c.5-.3.8-.6.9-1 .1-.5-.1-.9-.2-1.2-.1-.4-.4-.8-.9-.9zM95.5 149.8c-.6-.5-1.4-.7-2.2-.6-.8.1-1.5.5-1.9 1.1-.5.6-.7 1.4-.6 2.2.1.8.5 1.5 1.1 1.9.6.5 1.4.7 2.2.6.8-.1 1.5-.5 1.9-1.1.5-.6.7-1.4.6-2.2-.1-.8-.5-1.5-1.1-1.9zM123.8 141.6l1.7-1.2-2.4-1.5z"/><path d="M163.6 90.4c-.4-.3-.8-.5-1.2-.7v-.1l-.3.1h-.2c-.4-.1-.9-.1-1.3 0l-4.4.8-9.6 1.7-4.4.8h-.7c-.7 0-1.3-.3-1.9-.7-.7-.6-1.1-1.4-1.1-2.4h-.5c0 1.1.4 2.1 1.2 2.8.6.5 1.3.8 2.2.8-4.2 27.7-28.2 48.9-57.1 48.9-28.8 0-52.8-21.3-57.1-48.9.8 0 1.6-.3 2.2-.8.8-.7 1.3-1.7 1.3-2.8H30c0 1-.4 1.8-1.1 2.4-.5.4-1.2.7-1.9.7h-.7l-4.4-.8-9.6-1.7-4.4-.8c-.4-.1-.9-.1-1.3 0h-.2l-.4-.2v.1c-.5.1-.9.4-1.3.7-.8.7-1.2 1.7-1.2 2.9C3.5 95.3 5 97.3 7 98c2.7 15.9 10.2 30.5 21.8 42.1C43.5 154.9 63.2 163 84.2 163c20.9 0 40.6-8.1 55.4-22.9 11.6-11.6 19.1-26.2 21.8-42.1 2-.7 3.4-2.7 3.4-4.8 0-1.2-.4-2.2-1.2-2.8zM4 93.2c0-1 .4-1.8 1.1-2.4.3-.2.6-.4.9-.5.2 2.4.4 4.8.8 7.1-1.6-.8-2.8-2.5-2.8-4.2zm17.4 19.6l-1 1.4c-.5.7-.9 1.4-.9 1.4s-.1-.3-.3-.8c-.1-.3-.2-.6-.3-1-.1-.4-.2-.8-.3-1.3-.5-1.8-1-4.3-1.3-6.8-.3-2.5-.4-4.9-.4-6.8 0-1.8.2-3 .2-3s.2 1.2.7 2.9c.5 1.7 1.3 4 2.3 6.1 1 2.1 2.1 4.2 3 5.6.2.4.4.7.6 1 .2.3.4.5.5.7.3.4.4.6.4.6h-3.2zm6.3 15.2c-.6-.1-1.1-.2-1.6-.6-.5-.3-1-.8-1.4-1.3l-.9-1.3-.3-.4 7-5 .8 1.1.4.6c.4.6.7 1.1.8 1.7.1.6.2 1.1 0 1.7-.2 1-.8 1.9-1.8 2.6-.9.7-2 1-3 .9zm8.6 5.8l-2.2-2.2-1.9 1.8 2.6 2.7-.9.8-2.7-2.7-.9-1 6.2-6 .9 1 2.7 2.7-.9.8-2.6-2.7-1.6 1.6 2.2 2.2-.9 1zm7.5 1.9c-.3-.1-.6-.1-.8 0-.1.1-.3.3-.2.8l.3 2c0 .3.1.6.1.9.1.5 0 .9-.1 1.3s-.4.7-.7 1c-.7.5-1.7.6-2.6.1-.2-.1-.3-.2-.4-.3-.3-.2-.5-.5-.7-.8-.3-.5-.4-1.1-.4-1.7h1.4c0 .4.1.8.2 1 .1.2.3.4.6.5.4.2.9.2 1.2 0 .3-.2.3-.7.3-1-.1-.5-.2-1.4-.2-1.4l-.2-1.4c-.1-.4 0-.9.1-1.2.1-.4.4-.7.7-.9.3-.2.7-.3 1.1-.4.4 0 .8.1 1.1.3.4.2.7.5.9.9.2.4.4.9.4 1.4h-1.3c-.2-.7-.6-1-.8-1.1zm2.4 10.6l-1.1-.7 4.6-7.3 1.1.7-4.6 7.3zm12.4-.9c-.1-.2-.2-.4-.4-.6l-.4-.4-.1-.1h-.1-.1c-.5-.2-1-.3-1.5-.3h-.1c-.2 0-.4.1-.6.2-.1 0-.1 0-.2.1-.1 0-.2.1-.2.1s-.1 0-.1.1c-.3.2-.5.4-.7.6-.1.1-.1.2-.2.3 0 0 0 .1-.1.1l-.1.1s0 .1-.1.1c-.1.2-.1.4-.2.6-.1.5 0 1 .1 1.5.3.7.8 1.3 1.5 1.7h.2c.1 0 .2 0 .3.1h.5l.7-1.4-1.5-.7.5-1.1 2.7 1.3-.5 1.1-1 2.1-.4.1h-.1-.1-.1-.1-.1-.1-.1c-.5 0-1-.1-1.5-.3h-.1-.1c-.4-.2-.8-.5-1.1-.8l-.1-.1-.1-.1c-.1-.1-.2-.2-.3-.4-.2-.3-.4-.7-.6-1.1-.2-.5-.3-1.1-.3-1.6 0-.4.1-.9.2-1.3 0-.1.1-.3.2-.4 0-.1.1-.1.1-.2.2-.4.5-.8.9-1.2.4-.4.9-.7 1.4-.8.5-.2 1.1-.3 1.6-.2.6 0 1.1.2 1.6.4h.2s.1 0 .1.1c.4.2.8.6 1.2.9v.1l-.5 1.4zm8.9 10.2l-3.6-7.2-1.5 5.3-1.3-.4 2.5-8.6 3.6 7.2 1.5-5.3 1.3.4-2.5 8.6zm18.1.8c-.2.1-.5.3-.7.4-.5.2-1.1.3-1.7.3-.6 0-1.1-.1-1.7-.4-.5-.2-1-.6-1.3-1-.4-.4-.7-.9-.9-1.4-.2-.5-.3-1.1-.3-1.7 0-.6.1-1.1.4-1.7.2-.5.6-1 1-1.3.4-.4.9-.7 1.4-.9.5-.2 1.1-.3 1.7-.3.6 0 1.1.1 1.7.4.1 0 .1.1.2.1v1.6c-.5-.4-1.2-.7-1.8-.7-.8 0-1.5.3-2.1.8-.6.5-.9 1.3-.9 2.1s.3 1.5.8 2.1c.5.6 1.3.9 2.1.9s1.5-.3 2.1-.8l.3-.3-.3 1.8zm12.2-3.2c-.1.5-.4 1-.7 1.5-.3.4-.7.8-1.2 1.1-.5.3-1 .5-1.6.6-.6.1-1.1 0-1.7-.1-.5-.1-1-.4-1.5-.7-.4-.3-.8-.7-1.1-1.2-.3-.5-.5-1-.6-1.6-.1-.6 0-1.1.1-1.7.1-.5.4-1 .7-1.5.3-.4.7-.8 1.2-1.1.5-.3 1-.5 1.6-.6.6-.1 1.1 0 1.7.1.5.1 1 .4 1.5.7.4.3.8.8 1.1 1.2.3.5.5 1 .6 1.6.1.6.1 1.2-.1 1.7zm12.1-.8l-1.5-4.3-1.3 4.6-3.8-2.9 1.5 4.3-1.3.4-2.9-8.5 5.7 4.4 1.9-7 2.9 8.5-1.2.5zm8.4-8.2c-.1.5-.5 1.2-1.5 1.8l-1.1.6 1.4 2.6-1.2.6-4-7.6 1-.5 1.2-.7c1-.5 1.8-.4 2.3-.3.6.2 1.2.7 1.5 1.4.5.8.6 1.5.4 2.1zm9.9-2.1l-1.7-1.1-2.5 1.8.5 1.9-1.2.9-2.2-9.5 8.3 5.1-1.2.9zm5.7-4.8l-.9.9-6.3-6.4 8 .4-3.9-3.9 1-1 6.3 6.3-8-.4 3.8 4.1zm8.6-9.8l-3.6-2.6-5.1.1.9-1.3h3.6l-1.1-3.4.9-1.3 1.6 4.8 3.6 2.6-.8 1.1zm8-21.8c-.3 2.5-.8 4.9-1.3 6.8-.1.5-.2.9-.3 1.3-.1.4-.2.7-.3 1-.2.5-.3.8-.3.8s-.5-.7-.9-1.4l-1-1.4s-.8.1-1.7.1H143s.2-.2.4-.6c.1-.2.3-.5.5-.7.2-.3.4-.6.6-1 .9-1.4 2.1-3.5 3-5.6 1-2.1 1.8-4.4 2.3-6.1.5-1.7.7-2.9.7-2.9s.1 1.2.2 3c.2 1.8.1 4.2-.2 6.7zm11-8.4c.4-2.3.7-4.7.8-7.1.3.1.7.3.9.5.7.6 1.1 1.4 1.1 2.4 0 1.8-1.2 3.5-2.8 4.2z"/></g><g><path d="M94.9 14.7c-.1-.4-.2-.7-.4-1-.1-.3-.3-.5-.5-.7-.4-.4-.8-.7-1.4-.8H92l-1.4 11 .7.1c.6 0 1.1-.1 1.6-.4.2-.1.4-.3.6-.5.2-.2.4-.5.6-.8.2-.3.4-.8.5-1.2.1-.5.3-1 .3-1.7l.1-.9c.1-.7.1-1.2.1-1.7 0-.6-.1-1.1-.2-1.4zM112 17.2l-.2-.2-.7-.3c-.1 0-.2-.1-.3-.1-.1 0-.2 0-.3.1-.3.1-.6.3-.9.6-.3.3-.6.7-.8 1.1-.2.4-.5.9-.7 1.3-.2.5-.4.9-.5 1.2l-.3.8c-.1.4-.3.8-.5 1.2-.2.5-.3.9-.4 1.4-.1.5-.2.9-.2 1.4 0 .4.1.8.2 1 .1.1.1.2.2.3l.2.2.7.3c.1 0 .2.1.3.1.1 0 .2 0 .3-.1.3-.1.6-.3.9-.6.3-.3.5-.7.8-1.1.2-.4.5-.9.7-1.3.2-.5.4-.9.5-1.2l.2-.4.2-.4c.1-.4.3-.8.5-1.2.2-.5.3-.9.4-1.4.1-.5.2-.9.2-1.4 0-.4 0-.8-.2-1l-.3-.3zM40.1 33.1c.2-.2.3-.5.3-.7 0-.2 0-.5-.1-.7-.1-.2-.3-.5-.6-.8l-.2-.3c-.4-.4-.8-.7-1.2-.8-.4-.1-.8-.1-1.2 0-.4.1-.9.3-1.3.5l-.4.4 3.4 3.9.7-.6c.2-.4.5-.7.6-.9zM56.9 26.6c-.1-.5-.3-.9-.5-1.4-.2-.5-.4-.9-.6-1.2l-.2-.4-.2-.4c-.2-.3-.4-.7-.6-1.2-.2-.4-.5-.8-.8-1.2-.3-.4-.6-.7-.9-1-.3-.3-.6-.5-.9-.5h-.3c-.1 0-.2 0-.3.1l-.6.2c-.1.1-.2.1-.2.2s-.1.2-.2.3c-.1.3-.2.6-.1 1s.2.9.3 1.3c.1.5.3.9.5 1.4.2.5.4.9.6 1.2l.4.8c.2.3.4.7.6 1.2.2.4.5.9.8 1.2.3.4.6.7.9 1 .3.3.6.5.9.5h.3c.1 0 .2 0 .3-.1l.6-.3c.1-.1.2-.1.2-.2s.1-.2.2-.3c.1-.3.2-.6.1-1 0-.3-.1-.7-.3-1.2z"/><path d="M165.3 76.2c-.8-.7-1.9-1-3.1-.8h-.2c-2-17.5-9.8-33.6-22.4-46.2-14.8-14.8-34.5-23-55.4-23s-40.6 8.2-55.4 23C16.1 41.9 8.4 58 6.3 75.5h-.2c-1.1-.3-2.2 0-3.1.7-.8.7-1.3 1.7-1.3 2.8h.5c0-1 .4-1.8 1.1-2.4.5-.4 1.2-.7 1.9-.7.2 0 .5 0 .7.1h.3l.5.1 6.9 1.2 6.4 1.1 6.1 1.1.5.1.4.1.7.1c.3 0 .5.1.8.1.9 0 1.7-.3 2.3-.8.8-.7 1.2-1.7 1.2-2.8 0-2.3-1.8-4.5-4.1-4.9C34 46 56.8 27.1 84.1 27.1s50.1 18.9 56.2 44.3c-2.3.5-4.1 2.7-4.1 4.9 0 1.1.4 2.1 1.2 2.8.6.5 1.4.8 2.3.8.2 0 .5 0 .8-.1l.7-.1.4-.1.5-.1 6.1-1.1 6.4-1.1 6.9-1.2.5-.1h.2c.2 0 .5-.1.7-.1.7 0 1.4.3 1.9.7.7.6 1.1 1.4 1.1 2.4h.5c.1-1.2-.3-2.2-1.1-2.8zM24.2 56.8c-.1.2-.3.5-.5.7-.2.3-.4.6-.6 1-.9 1.4-2.1 3.5-3 5.6-1 2.1-1.8 4.4-2.3 6.1-.5 1.7-.7 2.9-.7 2.9s-.1-1.2-.2-3c0-1.8.1-4.3.4-6.8.3-2.5.8-4.9 1.3-6.8.1-.5.2-.9.3-1.3.1-.4.2-.7.3-1 .2-.5.3-.8.3-.8s.5.7.9 1.4l1 1.4s.8-.1 1.7-.1h1.7s-.3.3-.6.7zm7.3 19.4c0 1-.4 1.8-1.1 2.4-.7.6-1.6.8-2.6.6l-1.1-.2c.2-2.5.6-4.9 1.2-7.3 2 .5 3.6 2.5 3.6 4.5zm1.1-25.5l-.1-.1 1-1.3-8.9-6.6-1 1.3-.1-.1 4.2-5.6.1.1-1 1.3 8.9 6.6 1-1.3.1.1-4.2 5.6zm14.2-15.2c-.4.4-.9.6-1.4.6-.5 0-1.1 0-1.6-.1-.6-.1-1.1-.3-1.7-.5-.6-.2-1.1-.4-1.7-.5-.6-.1-1-.3-1.2-.3-.2-.1-.4-.1-.4-.1l3.8 4.4 1.2-1.1.1.1-5.2 4.5-.1-.1 1.2-1.1-7.3-8.4-1.2 1.1-.1-.1 6.4-5.6c.5-.4 1.1-.7 1.6-.9.2-.1.5-.1.7-.2h.8c.3 0 .5.1.8.3.3.1.5.3.7.6.4.5.6.9.6 1.4 0 .4-.1.9-.3 1.2-.2.4-.4.7-.7 1l-.6.6-.2.1-1.6 1.4 1.2-.9c.4-.2.8-.4 1.2-.5.4-.1.8-.2 1.2-.1.5.1 1 .2 1.6.3.6.2 1.2.3 1.7.5.6.2 1.1.3 1.5.4.4.1.7.1.8 0l.1.1-1.9 1.9zM60 25.9c-.1.4-.2.8-.3 1.1-.1.3-.3.5-.5.8l-.6.6c-.2.2-.5.4-.8.6-.3.2-.6.4-1 .6l-.6.3c-.4.2-.7.4-1 .5l-.9.3c-.3.1-.6.1-.9.1-.3 0-.6 0-.9-.1-.4-.1-.7-.2-1.1-.4-.4-.2-.7-.5-1.1-.8-.4-.3-.7-.6-1-1-.3-.4-.6-.8-.8-1.3-.2-.5-.4-.9-.5-1.4-.1-.5-.2-.9-.2-1.4v-1.3c.1-.4.2-.8.3-1.1.1-.3.3-.5.4-.8l.6-.6c.2-.2.5-.4.8-.5.3-.2.6-.4 1-.5l.6-.3c.4-.2.7-.4 1-.5l.9-.3c.3-.1.6-.1.8-.1.3 0 .6 0 .9.1.4.1.7.2 1.1.4.4.2.7.5 1.1.8.4.3.7.6 1 1 .3.4.6.8.8 1.3.2.5.4.9.5 1.4.1.5.2.9.2 1.4.3.3.2.7.2 1.1zm14.6-2.3c-.2.1-.6 0-1-.2s-.9-.4-1.5-.7c-.6-.3-1.1-.7-1.8-1.1-.6-.4-1.3-.9-1.9-1.3-1.5-1-3-2.2-4.7-3.6l1.9 8.1c0 .2.2.4.3.5.2.1.4.1.6.1l.8-.2v.1l-3.1.7v-.1l.8-.2c.2 0 .4-.2.5-.3.1-.2.1-.4.1-.6l-1.9-8.2-.8-.5c-.3-.2-.6-.3-.8-.4-.3-.1-.5-.2-.7-.2-.2-.1-.4-.1-.6-.1v-.1l3.4-.8c.2 0 .5-.1.8 0 .2 0 .5.1.9.1.3.1.7.2 1.1.4.4.2.8.4 1.3.7.5.3.9.6 1.4.9.5.3.9.6 1.4 1 .5.3.9.6 1.3.9.4.3.7.6 1 .8.3.2.5.4.6.6l-1.5-6.4c0-.2-.2-.4-.3-.5-.2-.1-.4-.1-.6-.1l-1.1.1v-.1l1.7-.4 1.6-.4v.1l-.8.2c-.2 0-.4.2-.5.3-.1.2-.1.4-.1.6l2.4 10.2-.2.1zm24.1-4.9c-.1.8-.3 1.4-.5 1.9-.3.5-.6 1-.9 1.3-.4.4-.8.6-1.2.9-.4.2-.9.4-1.3.5-1 .2-2.2.3-3.4.1l-.7-.1-3.7-.4-1.6-.2v-.1l1.6.2 1.4-11-1.6-.2v-.1l1.6.2 3.6.5.7.1c1.2.1 2.3.5 3.3 1 .4.2.8.5 1.1.8.4.3.7.7.9 1.2.3.5.4 1 .6 1.6.2.4.2 1.1.1 1.8zm16.6 4.3c-.1.5-.2 1-.4 1.4-.2.5-.4.9-.7 1.3-.3.4-.6.8-.9 1.1-.3.3-.7.6-1 .8-.4.2-.7.4-1.1.5-.3.1-.6.1-.9.2h-.9c-.3-.1-.6-.1-1-.2-.3-.1-.7-.2-1.1-.4l-.6-.2c-.4-.2-.7-.3-1.1-.5-.3-.1-.6-.3-.8-.5-.2-.2-.5-.4-.7-.6-.2-.2-.4-.4-.5-.7-.2-.3-.3-.7-.4-1.1-.1-.4-.1-.9-.2-1.3 0-.5 0-.9.1-1.4.1-.5.2-1 .4-1.4.2-.5.4-.9.7-1.3.3-.4.6-.8.9-1.1.3-.3.7-.6 1-.8.4-.2.7-.4 1.1-.5.3-.1.6-.1.9-.2h.9c.3 0 .6.1.9.2.3.1.7.2 1.1.4l.7.3c.4.2.7.3 1.1.5.3.1.6.3.8.5.2.2.5.4.6.6.2.2.4.4.5.7.2.3.3.7.4 1.1s.1.9.2 1.3c.1.3.1.8 0 1.3zm10.4 13.7c-.4.1-.8.2-1.2.2-.3 0-.6 0-.9-.1-.3-.1-.5-.1-.8-.3-.3-.1-.6-.3-.9-.5-.3-.2-.6-.4-1-.7l-.5-.4c-.3-.3-.6-.5-.9-.7-.3-.2-.5-.4-.7-.7-.2-.2-.4-.5-.5-.7-.1-.2-.2-.5-.3-.8-.1-.4-.1-.7-.1-1.2 0-.4.1-.9.2-1.3s.3-.9.5-1.3.5-.9.8-1.3c.3-.4.6-.8 1-1.1.4-.3.8-.6 1.1-.9l1.2-.6c.4-.1.8-.2 1.2-.2.3 0 .6 0 .9.1s.5.1.8.3c.3.1.6.3.8.5.3.2.6.4.9.7l.6.4c.3.3.6.5.9.7.3.2.5.4.7.7.2.2.4.5.5.7.1.2.2.5.3.8.1.4.1.7.1 1.2 0 .4-.1.9-.2 1.3s-.3.9-.5 1.3-.5.9-.8 1.3c-.3.4-.6.8-1 1.1l-1.2.9c-.2.3-.6.5-1 .6zm14.8 42.6c-1 .2-1.9 0-2.6-.6-.7-.6-1.1-1.4-1.1-2.4 0-2 1.6-4 3.7-4.4.5 2.4.9 4.8 1.2 7.3l-1.2.1zm2.2-36.4c0 .3-.1.5-.3.8-.1.2-.3.5-.6.7-.5.4-.9.6-1.4.6-.4 0-.9-.1-1.2-.3-.4-.2-.7-.4-1-.7l-.6-.6-.1-.2-1.4-1.6c.3.4.6.8.8 1.2.2.4.4.8.5 1.2.1.4.2.8.1 1.2-.1.5-.2 1-.4 1.6-.2.6-.4 1.2-.5 1.7-.2.6-.3 1.1-.4 1.5-.1.4-.1.7 0 .8l-.1.1-1.8-2.2c-.4-.4-.6-.9-.6-1.4 0-.5 0-1.1.2-1.6.1-.6.3-1.1.6-1.7.2-.6.4-1.1.6-1.7.2-.6.3-1 .4-1.2.1-.2.1-.3.1-.4l-4.5 3.7 1 1.3-.1.1-4.3-5.3.1-.1 1 1.3 8.6-7-1-1.3.1-.1 5.4 6.6c.4.6.7 1.1.8 1.6.1.2.1.5.2.7-.1.2-.1.4-.2.7zm8.2 27.2c0 1.8-.2 3-.2 3s-.2-1.2-.7-2.9c-.5-1.7-1.3-4-2.3-6.1-1-2.1-2.1-4.2-3-5.6-.2-.4-.4-.7-.6-1-.2-.3-.4-.5-.5-.7-.3-.4-.4-.6-.4-.6h1.7c.8 0 1.7.1 1.7.1l1-1.4c.5-.7.9-1.4.9-1.4s.1.3.3.8c.1.3.2.6.3 1 .1.4.2.8.3 1.3.5 1.8 1 4.3 1.3 6.8.1 2.4.2 4.9.2 6.7z"/><path d="M139.9 37.7l-.4-.4-4 3.3.6.8c.3.3.5.6.7.7.2.2.4.3.7.3.2 0 .5 0 .7-.1.2-.1.5-.3.9-.6l.3-.2c.5-.4.7-.8.9-1.2.1-.4.1-.8.1-1.2-.1-.5-.3-1-.5-1.4zM128.2 26.7c0-.1-.1-.2-.1-.3 0-.1-.1-.1-.2-.2l-.6-.4c-.1-.1-.2-.1-.3-.1h-.3c-.3 0-.6.1-1 .4s-.7.5-1.1.9c-.3.3-.7.7-1 1.1-.3.4-.6.7-.8 1l-.5.7c-.2.3-.5.7-.8 1.1-.3.4-.5.8-.8 1.3-.2.4-.4.9-.5 1.3-.1.4-.1.8-.1 1.1 0 .1.1.2.1.3 0 .1.1.1.2.2l.6.4c.1.1.2.1.3.1h.3c.3 0 .6-.1 1-.4.4-.2.7-.5 1.1-.9.3-.3.7-.7 1-1.1.3-.4.6-.7.8-1l.3-.4.3-.4c.2-.3.5-.7.8-1.1.3-.4.5-.8.8-1.3.2-.4.4-.9.5-1.3.1-.3.1-.7 0-1z"/></g></svg>