<svg id="Layer_1" xmlns="http://www.w3.org/2000/svg" viewBox="0 0 168.3 169.3"><style>.st0{fill:#FFF}</style><path class="st0" d="M92.6 82.9c-6.3 0-12.5-.1-18.8-.1V84h-5.9v-5l-.9-2.1c8.5 0 17 0 25.5.1-.7 1-1.4 1.9-2.1 2.9.7 1 1.4 2 2.2 3zM118.6 91.1c-.5.8-1.1 1.5-1.6 2.3v7.3c0 2.3-1.9 4.2-4.2 4.1-14.1-.2-28.2-.3-42.3-.3H67l.9-2.1v-5.2h5.9v1.4c12.4 0 24.8.1 37.2.2v-5.7c-.5-.7-1-1.5-1.5-2.2l1.5-2.1v-5.7c-1.6 0-3.2 0-4.8-.1.7-1 1.4-2.1 2.2-3.1-.7-1-1.4-1.9-2-2.9 2.1 0 4.2 0 6.4.1 2.3 0 4.2 2 4.2 4.3v7.3c.5.8 1 1.6 1.6 2.4z"/><path class="st0" d="M103.9 79.9c-.5.8-1.1 1.5-1.6 2.3v7.3c0 2.3-1.9 4.2-4.2 4.2-2.3 0-4.6 0-7-.1v-4.9c.3-.4.5-.7.8-1.1h4.5v-5.7c-.5-.7-1-1.5-1.5-2.2l1.5-2.1v-5.7h-5.3v-6c2.3 0 4.6 0 7 .1 2.3 0 4.2 1.9 4.2 4.3v7.3c.5.8 1.1 1.6 1.6 2.3zM59.1 71.9v5.7c.5.7 1 1.4 1.5 2.2-.5.7-1 1.5-1.5 2.2v5.7h18c.3.4.5.7.8 1.1v4.9H52.3l.9-2.1v-9.5c-.5-.8-1.1-1.5-1.6-2.3.6-.8 1.1-1.5 1.6-2.3V68l-.9-2.1h25.6v6H59.1zM88.4 55.9c-.3.7-.7 1.5-1 2.2v15.2h-5.9V58.1c-.3-.7-.6-1.4-1-2.2h1l2.9 2.9 2.9-2.9h1.1zM88.5 114.7h-1.1l-2.9-2.9-2.9 2.9h-1.1c.3-.8.7-1.6 1-2.3v-4.1h5.9v4.1c.4.7.7 1.5 1.1 2.3zM88.2 86.5c-.3.4-.5.7-.8 1.1V95h-5.9v-7.4c-.3-.4-.5-.7-.8-1.1h7.5zM35.9 46.1l1-1.3.1.1-4.1 5.6-.1-.1 1-1.3-8.9-6.7-1 1.3-.1-.1 4.1-5.6.1.1-1 1.3 8.9 6.7zM43.4 32c.5.1 1 .2 1.6.3.6.2 1.2.3 1.7.5.6.2 1.1.3 1.5.4.4.1.7.1.8 0l.1.1-2.2 1.9c-.4.4-.9.6-1.4.6-.5 0-1.1 0-1.6-.1-.6-.1-1.1-.3-1.7-.5-.6-.2-1.1-.4-1.7-.5-.6-.1-1-.3-1.2-.3-.2-.1-.4-.1-.4-.1l3.8 4.4 1.2-1.1.1.1-5.1 4.5-.1-.1L40 41l-7.2-8.4-1.2 1.1-.1-.1 6.4-5.6c.5-.4 1.1-.7 1.6-.9.2-.1.5-.1.7-.2h.8c.3 0 .5.1.8.3.2.1.5.3.7.6.4.5.6.9.6 1.4 0 .4-.1.9-.3 1.2-.2.4-.4.7-.7 1l-.6.6-.2.1-1.6 1.4 1.2-.9c.4-.2.8-.4 1.2-.5.5-.1 1-.1 1.3-.1zm-7.9-1.7l3.4 3.9.7-.7.7-.7c.2-.2.3-.5.3-.7 0-.2 0-.5-.1-.7-.1-.2-.3-.5-.6-.9l-.2-.3c-.4-.5-.8-.7-1.2-.8-.4-.1-.8-.1-1.2 0-.4.1-.8.3-1.3.5l-.5.4zM55.4 17.9c.4.1.7.2 1.1.4.4.2.7.5 1.1.8.4.3.7.7 1 1 .3.4.6.8.8 1.3.2.5.4.9.5 1.4.1.5.2 1 .2 1.4v1.3c-.1.4-.2.8-.3 1.1-.1.3-.3.5-.5.8l-.6.6c-.2.2-.5.4-.8.6-.3.2-.6.4-1 .6l-.6.3c-.4.2-.7.4-1 .5l-.9.3c-.3.1-.6.1-.9.1-.3 0-.6 0-.9-.1-.4-.1-.7-.2-1.1-.4-.4-.2-.7-.5-1.1-.8-.4-.3-.7-.7-1-1-.3-.4-.6-.8-.8-1.3-.2-.5-.4-.9-.5-1.4-.1-.5-.2-1-.2-1.4v-1.3c.1-.4.2-.8.3-1.1.1-.3.3-.5.4-.8l.6-.6c.2-.2.5-.4.8-.6.3-.2.6-.4 1-.6l.6-.3c.4-.2.7-.4 1-.5l.9-.3c.3-.1.6-.1.8-.1.5 0 .8.1 1.1.1zm.2 4.9c-.2-.3-.4-.7-.6-1.2-.2-.4-.5-.9-.8-1.3-.3-.4-.6-.7-.9-1-.3-.3-.6-.5-.9-.5h-.3c-.1 0-.2 0-.3.1l-.6.3c-.1.1-.2.1-.2.2s-.1.2-.2.3c-.1.3-.2.6-.1 1.1.1.4.2.9.3 1.3.1.5.3.9.5 1.4.2.5.4.9.6 1.2l.4.8c.2.3.4.7.6 1.2.2.4.5.9.8 1.3.3.4.6.7.9 1 .3.3.6.5.9.5h.3c.1 0 .2 0 .3-.1l.6-.3c.1-.1.2-.1.2-.2s.1-.2.2-.3c.1-.3.2-.6.1-1.1-.1-.4-.2-.9-.3-1.3-.1-.5-.3-.9-.5-1.4-.2-.5-.4-.9-.6-1.2l-.2-.4-.2-.4zM73.8 11.7v.1l-.8.2c-.2 0-.4.2-.5.3-.1.2-.1.4-.1.6l2.4 10.2h-.1c-.2.1-.6 0-1-.2s-.9-.4-1.5-.7c-.6-.3-1.1-.7-1.8-1.1-.6-.4-1.2-.9-1.9-1.3-1.4-1-3-2.3-4.7-3.6l1.9 8.1c0 .2.2.4.3.5.2.1.4.1.6.1l.8-.2v.1l-3.3.8v-.1l.8-.2c.2 0 .4-.2.5-.3.1-.2.1-.4.1-.6l-1.9-8.2-.8-.5c-.3-.2-.6-.3-.8-.4-.3-.1-.5-.2-.7-.2-.2-.1-.4-.1-.6-.1v-.1l3.4-.8c.2 0 .5-.1.8 0 .2 0 .5.1.9.1.3.1.7.2 1.1.4.4.2.8.4 1.3.7.5.3.9.6 1.4.9.5.3.9.6 1.4 1 .5.3.9.6 1.3.9.4.3.7.6 1 .8.3.2.5.4.6.6L72.3 13c0-.2-.2-.4-.3-.5-.2-.1-.4-.1-.6-.1l-.8.2v-.1l1.7-.4 1.5-.4zM92.7 11.7c1.2.1 2.3.5 3.2 1 .4.2.8.5 1.1.8.4.3.7.7.9 1.2.3.5.4 1 .6 1.6.1.6.1 1.3 0 2.1s-.3 1.4-.5 1.9c-.3.5-.6 1-.9 1.4-.4.4-.8.7-1.2.9-.4.2-.9.4-1.3.5-1 .2-2.2.3-3.4.1l-.6-.2-3.6-.5-1.6-.2v-.1l1.6.2 1.4-11.1-1.6-.2V11l1.6.2 3.6.5h.7zm2.3 5.6c.1-.7.1-1.2.1-1.7s-.1-1-.2-1.3c-.1-.4-.2-.7-.3-1-.1-.3-.3-.5-.5-.7-.4-.4-.8-.7-1.4-.8H92l-1.4 11.1.7.1c.6 0 1.1-.1 1.6-.4.2-.1.4-.3.6-.5.2-.2.4-.5.6-.8.2-.3.4-.8.5-1.2.1-.5.3-1 .3-1.7l.1-1.1zM114.7 18.7c.2.3.3.7.4 1.1.1.4.1.9.2 1.3 0 .5 0 .9-.1 1.4-.1.5-.2 1-.4 1.4-.2.5-.4.9-.7 1.3-.3.4-.6.8-.9 1.1-.3.3-.7.6-1 .9-.4.2-.7.4-1.1.5-.3.1-.6.1-.9.2-.3 0-.6 0-.9-.1-.3-.1-.6-.1-.9-.2-.3-.1-.7-.2-1.1-.4l-.6-.2c-.4-.2-.7-.3-1.1-.5-.3-.2-.6-.3-.8-.5-.2-.2-.5-.4-.7-.6-.2-.2-.4-.4-.5-.7-.2-.3-.3-.7-.4-1.1-.1-.4-.1-.9-.2-1.3 0-.5 0-.9.1-1.4.1-.5.2-1 .4-1.4.2-.5.4-.9.7-1.3.3-.4.6-.8.9-1.1.3-.3.7-.6 1-.9.4-.2.7-.4 1.1-.5.3-.1.6-.1.9-.2h.9c.3 0 .6.1.9.2.3.1.7.2 1.1.4l.7.3c.4.2.7.3 1.1.5.3.2.6.3.8.5.2.2.5.4.6.6.2.2.3.5.5.7zm-3.5 3.4c.1-.4.3-.8.5-1.2.2-.5.3-.9.4-1.4.1-.5.2-.9.2-1.4 0-.4 0-.8-.2-1-.1-.1-.1-.2-.2-.3l-.2-.2-.7-.3c-.1 0-.2-.1-.3-.1-.1 0-.2 0-.3.1-.3.1-.6.3-.9.6-.3.3-.6.7-.8 1.1-.2.4-.5.9-.7 1.3-.2.5-.4.9-.5 1.2l-.3.8c-.1.4-.3.8-.5 1.2-.2.5-.3.9-.4 1.4-.1.5-.2.9-.2 1.4 0 .4.1.8.2 1 .1.1.1.2.2.3l.2.2.7.3c.1 0 .2.1.3.1.1 0 .2 0 .3-.1.3-.1.6-.3.9-.6.3-.3.5-.7.8-1.1.2-.4.5-.9.7-1.3.2-.5.4-.9.5-1.2l.2-.4.1-.4zM130.2 28.7c.1.4.1.8.1 1.2 0 .4-.1.9-.2 1.3-.1.5-.3.9-.5 1.4-.2.5-.5.9-.8 1.3-.3.4-.6.8-1 1.1-.4.3-.7.6-1.1.9l-1.2.6c-.4.1-.8.2-1.2.2-.3 0-.6 0-.9-.1-.3-.1-.5-.1-.8-.3-.3-.1-.6-.3-.9-.5-.3-.2-.6-.4-1-.7l-.5-.4c-.3-.3-.6-.5-.9-.7-.3-.2-.5-.5-.7-.7-.2-.2-.4-.5-.5-.7-.1-.2-.2-.5-.3-.8-.1-.4-.1-.8-.1-1.2 0-.4.1-.9.2-1.3.1-.5.3-.9.5-1.4.2-.5.5-.9.8-1.3.3-.4.6-.8 1-1.1.4-.3.7-.6 1.1-.9l1.2-.6c.4-.1.8-.2 1.2-.2.3 0 .6 0 .9.1.3.1.5.1.8.3.3.1.6.3.8.5.3.2.6.4.9.7l.6.4c.3.3.6.5.9.7.3.2.5.5.7.7.2.2.4.5.5.7.2.2.3.5.4.8zm-4.2 2.4c.2-.3.5-.7.8-1.1.3-.4.5-.8.8-1.3.2-.4.4-.9.5-1.3.1-.4.2-.8.1-1.1 0-.1-.1-.2-.1-.3 0-.1-.1-.1-.2-.2l-.6-.4c-.1-.1-.2-.1-.3-.1h-.3c-.3 0-.6.1-1 .4-.4.2-.7.5-1.1.9-.3.3-.7.7-1 1.1-.3.4-.6.7-.8 1l-.5.7c-.2.3-.5.7-.8 1.1-.3.4-.5.8-.8 1.3-.2.4-.4.9-.5 1.3-.1.4-.1.8-.1 1.1 0 .1.1.2.1.3 0 .1.1.1.2.2l.6.4c.1.1.2.1.3.1h.3c.3 0 .6-.1 1-.4.4-.2.7-.5 1-.9.3-.3.7-.7 1-1.1.3-.4.6-.7.8-1l.3-.4.3-.3zM137.3 45c-.1.5-.2 1-.4 1.6-.2.6-.4 1.2-.5 1.7-.2.6-.3 1.1-.4 1.5-.1.4-.1.7 0 .8l-.1.1-1.8-2.2c-.4-.4-.6-.9-.6-1.5 0-.5 0-1.1.2-1.6.1-.6.3-1.1.6-1.7.2-.6.4-1.1.6-1.7.2-.6.3-1 .4-1.2.1-.2.1-.4.1-.4l-4.5 3.7 1 1.3-.1.1-4.3-5.3.1-.1 1 1.3 8.5-7.1-1-1.3.1-.1 5.4 6.6c.4.6.7 1.1.8 1.7.1.2.1.5.2.7v.8c0 .3-.1.5-.3.8-.1.2-.3.5-.6.7-.5.4-.9.6-1.4.6-.4 0-.8-.1-1.2-.3-.4-.2-.7-.4-1-.7l-.6-.6-.1-.2-1.3-1.6c.3.4.6.8.8 1.3.2.4.4.8.5 1.2 0 .3 0 .7-.1 1.1zm2-8l-4 3.3.6.8c.3.3.5.6.7.7.2.2.4.3.7.3.2 0 .5 0 .7-.1.2-.1.5-.3.9-.6l.3-.2c.5-.4.7-.8.9-1.2.1-.4.1-.8.1-1.2-.1-.4-.2-.9-.5-1.3l-.4-.5zM31 127.3c-1 .7-2 1-3 .9-.6-.1-1.1-.2-1.6-.6-.5-.3-1-.8-1.4-1.3l-.9-1.3-.3-.4 6.9-5 .8 1.1.4.6c.4.6.7 1.1.8 1.7.1.6.2 1.1 0 1.7-.1 1-.7 1.9-1.7 2.6zm-.8-1.1c.7-.5 1.2-1.1 1.3-1.8.2-.7 0-1.5-.6-2.3l-.4-.6-4.8 3.5.4.6c.6.8 1.2 1.3 2 1.3.7.1 1.4-.2 2.1-.7zM35.3 131l2.2 2.3-.9.8-2.2-2.3-1.9 1.9 2.6 2.7-.9.8-2.6-2.8-.9-1 6.1-6 .9 1 2.6 2.8-.9.8-2.6-2.7-1.5 1.7zM42.5 142c-.7.5-1.7.6-2.5.1-.2-.1-.3-.2-.4-.3-.3-.2-.5-.5-.7-.8-.3-.5-.4-1.1-.4-1.8h1.3c0 .4.1.8.2 1.1.1.2.3.4.6.5.4.2.9.2 1.1 0 .3-.2.3-.7.3-1-.1-.5-.2-1.4-.2-1.5l-.2-1.4c-.1-.4 0-.9.1-1.2.1-.4.4-.7.7-.9.3-.2.7-.3 1.1-.4.4 0 .8.1 1.1.3.4.2.7.5.9.9.2.4.4.9.4 1.4h-1.3c0-.7-.4-1-.6-1.1-.3-.1-.6-.1-.8 0-.1.1-.3.3-.2.8l.3 2c0 .3.1.6.1.9.1.5 0 1-.1 1.4-.2.5-.4.8-.8 1zM45.2 146l4.6-7.3 1.1.7-4.6 7.3-1.1-.7zM58 149.2l-1 2.1-.4.1h-.1-.1-.1-.1-.1-.1-.1c-.5 0-1-.1-1.5-.3h-.1-.1c-.4-.2-.8-.5-1.1-.8l-.1-.1-.1-.1c-.1-.1-.2-.2-.3-.4-.2-.3-.4-.7-.6-1.1-.2-.5-.3-1.1-.3-1.6 0-.4.1-.9.2-1.3 0-.1.1-.3.2-.4 0-.1.1-.1.1-.2.2-.4.5-.8.9-1.2.4-.4.9-.7 1.4-.8.5-.2 1.1-.3 1.6-.2.6 0 1.1.2 1.6.4h.2s.1 0 .1.1c.4.2.8.6 1.2.9v.1l-.7 1.4c-.1-.2-.2-.4-.4-.6l-.4-.4-.1-.1h-.1-.1c-.5-.2-1-.3-1.5-.3h-.1c-.2 0-.4.1-.6.2-.1 0-.1 0-.2.1-.1 0-.2.1-.2.1s-.1 0-.1.1c-.3.2-.5.4-.7.6-.1.1-.1.2-.2.3 0 0 0 .1-.1.1l-.1.1s0 .1-.1.1c-.1.2-.1.4-.2.6-.1.5 0 1 .1 1.5.3.7.8 1.3 1.5 1.7h.2c.1 0 .2 0 .2.1h.5l.7-1.4-1.5-.7.5-1.1 2.7 1.3-.2 1.1zM64 148.9l-1.5 5.3-1.3-.4 2.4-8.7 3.6 7.2 1.5-5.3 1.3.4-2.4 8.7-3.6-7.2zM85.6 156.9c-.2.1-.5.3-.7.4-.5.2-1.1.3-1.7.3-.6 0-1.1-.1-1.6-.4-.5-.2-1-.6-1.3-1-.4-.4-.7-.9-.9-1.4-.2-.5-.3-1.1-.3-1.7 0-.6.1-1.1.4-1.7.2-.5.6-1 1-1.3.4-.4.9-.7 1.4-.9.5-.2 1.1-.3 1.7-.3.6 0 1.1.1 1.7.4.1 0 .1.1.2.1v1.6c-.5-.4-1.1-.7-1.8-.7-.8 0-1.5.3-2.1.8-.6.5-.9 1.3-.9 2.1s.3 1.5.8 2.1c.5.6 1.3.9 2 .9.8 0 1.5-.3 2.1-.8l.3-.3-.3 1.8zM92.6 156.7c-.5-.1-1-.4-1.5-.7-.4-.3-.8-.7-1.1-1.2-.3-.5-.5-1-.6-1.6-.1-.6 0-1.2.1-1.7s.4-1 .7-1.5c.3-.4.7-.8 1.2-1.1.5-.3 1-.5 1.6-.6.6-.1 1.1 0 1.7.1.5.1 1 .4 1.5.7.4.3.8.8 1.1 1.2.3.5.5 1 .6 1.6.1.6 0 1.2-.1 1.7s-.4 1-.7 1.5c-.3.4-.7.8-1.2 1.1-.5.3-1 .5-1.6.6-.6.1-1.2.1-1.7-.1zm-1.3-5.9c-.5.6-.7 1.4-.6 2.2.1.8.5 1.5 1.1 2 .6.5 1.4.7 2.2.6.8-.1 1.5-.5 1.9-1.2.5-.6.7-1.4.6-2.2-.1-.8-.5-1.5-1.1-2-.6-.5-1.4-.7-2.2-.6-.7.1-1.4.5-1.9 1.2zM109.8 152.8l-1.4-4.3-1.3 4.7-3.8-2.9 1.4 4.3-1.3.4-2.9-8.6 5.7 4.4 1.9-7 2.9 8.6-1.2.4zM112.8 142l1.2-.7c1-.5 1.8-.4 2.3-.3.6.2 1.2.7 1.5 1.4.4.7.5 1.4.3 2.1-.1.5-.5 1.2-1.5 1.8l-1.1.6 1.4 2.6-1.2.6-4-7.6 1.1-.5zm4 1.1c-.2-.3-.4-.7-.9-.9-.4-.1-.8-.1-1.3.2l-1.1.6 1.5 2.9 1.1-.6c.5-.3.8-.6.9-1 .1-.4 0-.9-.2-1.2zM126.4 141.4l-2.5 1.8.5 1.9-1.2.9-2.2-9.5 8.2 5.1-1.2.9-1.6-1.1zm-1.1-.7l-2.4-1.5.7 2.7 1.7-1.2zM129.8 133.7l3.9 3.9-.9 1-6.3-6.4 7.9.4-3.9-3.9 1-1 6.3 6.4-8-.4zM139.4 124l3.6 2.6-.8 1.1-3.6-2.6-5.1.1.9-1.3h3.6l-1.1-3.5.9-1.3 1.6 4.9z"/><path class="st0" d="M4.2 101h-.6l.3 1.5c.1-.1.3-.2.5-.2.7-.1 1.3.3 1.5 1 .2.7-.2 1.3-.9 1.5h-.6l.4 1.4c.1-.1.3-.2.5-.3.7-.2 1.3.2 1.5.9.2.7-.2 1.4-.8 1.6-.2.1-.4.1-.6 0l.4 1.4c.1-.1.3-.2.5-.3.7-.2 1.3.2 1.6.8.2.6-.1 1.4-.8 1.6-.2.1-.4.1-.6.1l.5 1.4c.1-.1.3-.2.5-.3.7-.2 1.3.1 1.6.7.3.6-.1 1.4-.7 1.6-.2.1-.4.1-.6.1l.5 1.4c.1-.1.3-.3.5-.3.6-.3 1.3 0 1.6.7.3.6 0 1.4-.6 1.7-.2.1-.4.1-.6.1l.6 1.4.4-.4c.6-.3 1.4 0 1.7.6.3.6.1 1.4-.6 1.7-.2.1-.4.1-.6.1l.7 1.3c.1-.2.3-.3.4-.4.6-.3 1.4-.1 1.7.5.3.6.1 1.4-.5 1.7-.2.1-.4.2-.5.2l.4.6c.1.2.2.3.2.4.1.1.1.2.1.2.1-.2.2-.3.4-.4.6-.4 1.4-.2 1.7.4.4.6.2 1.4-.4 1.7-.2.1-.4.2-.5.2l.4.6.4.6c.1-.2.2-.3.4-.4.6-.4 1.4-.2 1.7.3.4.6.2 1.4-.3 1.8-.2.1-.3.2-.5.2l.4.6.4.6c.1-.2.2-.3.4-.4.6-.4 1.3-.3 1.7.3.4.6.3 1.3-.2 1.8-.2.1-.3.2-.5.2l.4.6c.2.3.5.6.5.6.1-.2.2-.3.4-.5.5-.4 1.3-.3 1.8.2.4.5.4 1.3-.2 1.8-.2.1-.3.2-.5.3 0 0 .2.3.5.6.2.3.5.6.5.6.1-.2.2-.3.3-.5.5-.5 1.3-.4 1.8.1s.4 1.3-.1 1.8c-.1.1-.3.2-.5.3l.5.5.5.5c.1-.2.2-.3.3-.5.5-.5 1.3-.5 1.8 0s.5 1.3 0 1.8c-.1.1-.3.2-.5.3l1.1 1c.1-.2.1-.3.3-.5.5-.5 1.3-.5 1.8 0s.5 1.3.1 1.8c-.1.1-.3.3-.5.3l1.1 1c0-.2.1-.4.3-.5.5-.5 1.2-.6 1.8-.1.5.5.6 1.2.2 1.8-.1.2-.3.3-.5.3l1.1.9c0-.2.1-.4.2-.5.4-.5 1.2-.6 1.7-.2.5.4.7 1.2.2 1.8-.1.2-.3.3-.4.4l1.2.9c0-.2.1-.4.2-.5.4-.6 1.2-.7 1.7-.3.6.4.7 1.2.3 1.7-.1.2-.3.3-.4.4l1.3.7c0-.2.1-.4.2-.5.4-.6 1.1-.7 1.7-.4.6.4.8 1.1.4 1.7-.1.2-.2.3-.4.4l1.3.8c0-.2.1-.4.2-.5.4-.6 1.1-.8 1.7-.4.6.3.8 1.1.5 1.7-.1.2-.2.3-.4.4l1.3.7c0-.2.1-.4.1-.6.3-.6 1.1-.8 1.7-.5.6.3.9 1.1.5 1.7-.1.2-.2.3-.4.4l1.3.7c0-.2 0-.4.1-.6.3-.6 1-.9 1.7-.6.6.3.9 1 .6 1.7-.1.2-.2.3-.3.5l1.3.6c0-.2 0-.4.1-.6.3-.6 1-.9 1.6-.7.6.3.9 1 .7 1.6-.1.2-.2.3-.3.5l1.4.5c0-.2 0-.4.1-.6.2-.6 1-1 1.6-.8.6.2 1 .9.8 1.6-.1.2-.2.4-.3.5 0 0 .3.1.7.2.2.1.3.1.5.2.1 0 .2.1.2.1v-.6c.2-.7.9-1 1.6-.8.7.2 1 .9.8 1.6-.1.2-.2.4-.3.5 0 0 .3.1.7.2.4.1.7.2.7.2v-.6c.2-.7.9-1.1 1.5-.9.7.2 1.1.9.9 1.5 0 .2-.1.4-.3.5 0 0 .4.1.7.2.4.1.7.2.7.2 0-.2-.1-.4 0-.6.2-.7.8-1.1 1.5-1 .7.1 1.1.8 1 1.5 0 .2-.1.4-.2.5 0 0 .4.1.7.1.4.1.7.1.7.1-.1-.2-.1-.4 0-.6.1-.7.8-1.2 1.4-1 .7.1 1.1.8 1 1.4 0 .2-.1.4-.2.5 0 0 .4.1.7.1.4 0 .7.1.7.1-.1-.2-.1-.4-.1-.6.1-.7.7-1.2 1.4-1.1.7.1 1.2.7 1.1 1.4 0 .2-.1.4-.2.5 0 0 .4 0 .7.1h.7c-.1-.2-.1-.4-.1-.6.1-.7.7-1.2 1.3-1.2.7 0 1.2.6 1.2 1.3 0 .2-.1.4-.2.5h1.4c-.1-.2-.1-.4-.1-.6 0-.7.6-1.2 1.3-1.2.7 0 1.2.6 1.2 1.3 0 .2-.1.4-.1.6h1.4c-.1-.2-.1-.4-.1-.6 0-.7.5-1.3 1.2-1.3s1.3.5 1.3 1.2c0 .2 0 .4-.1.6h1.4c-.1-.2-.2-.3-.2-.5 0-.7.5-1.3 1.2-1.3s1.3.5 1.3 1.2c0 .2 0 .4-.1.6h.7c.4 0 .7-.1.7-.1-.1-.2-.2-.3-.2-.5-.1-.7.4-1.3 1.1-1.4.7-.1 1.3.4 1.4 1.1 0 .2 0 .4-.1.6 0 0 .4 0 .7-.1.4-.1.7-.1.7-.1-.1-.2-.2-.3-.2-.5-.1-.7.4-1.3 1-1.4.7-.1 1.3.4 1.4 1v.6s.4-.1.7-.1c.4-.1.7-.1.7-.1-.1-.1-.2-.3-.2-.5-.1-.7.3-1.3 1-1.5.7-.1 1.3.3 1.5 1v.6s.4-.1.7-.2c.4-.1.7-.2.7-.2-.1-.1-.2-.3-.3-.5-.2-.7.2-1.4.9-1.5.7-.2 1.3.2 1.5.9.1.2.1.4 0 .6 0 0 .4-.1.7-.2.4-.1.7-.2.7-.2-.1-.1-.2-.3-.3-.5-.2-.7.2-1.4.8-1.6.7-.2 1.4.2 1.6.8.1.2.1.4 0 .6 0 0 .1 0 .2-.1.1 0 .3-.1.5-.2.3-.1.7-.2.7-.2-.1-.1-.2-.3-.3-.5-.2-.7.1-1.4.8-1.6.6-.2 1.4.1 1.6.8.1.2.1.4.1.6l1.4-.5c-.1-.1-.3-.3-.3-.5-.2-.6.1-1.4.7-1.6.6-.3 1.4.1 1.6.7.1.2.1.4.1.6l1.3-.6c-.1-.1-.3-.3-.3-.5-.3-.6 0-1.4.6-1.7.6-.3 1.4 0 1.7.6.1.2.1.4.1.6l1.3-.7-.4-.4c-.3-.6-.1-1.4.5-1.7.6-.3 1.4-.1 1.7.5.1.2.1.4.1.6l1.3-.7c-.2-.1-.3-.2-.4-.4-.3-.6-.1-1.4.5-1.7.6-.3 1.3-.2 1.7.4.1.2.2.4.2.5l1.3-.8c-.2-.1-.3-.2-.4-.4-.4-.6-.2-1.4.4-1.7.6-.4 1.3-.2 1.7.4.1.2.2.4.2.5l1.2-.8c-.2-.1-.3-.2-.4-.4-.4-.6-.2-1.4.3-1.7.5-.4 1.3-.3 1.7.3.1.2.2.3.2.5l1.2-.9c-.2-.1-.3-.2-.4-.4-.4-.6-.3-1.3.2-1.8.5-.4 1.3-.3 1.7.2.1.2.2.3.2.5l1.1-.9c-.2-.1-.3-.2-.5-.3-.4-.5-.3-1.3.2-1.8s1.3-.4 1.8.1c.1.2.2.3.3.5l1.1-1c-.2-.1-.3-.2-.5-.3-.5-.5-.4-1.3.1-1.8s1.3-.5 1.8 0c.1.1.2.3.3.5l1.1-1c-.2-.1-.3-.2-.5-.3-.5-.5-.5-1.3 0-1.8s1.3-.5 1.8 0c.1.1.2.3.3.5l.5-.5.5-.5c-.2 0-.3-.1-.5-.3-.5-.5-.5-1.3-.1-1.8.5-.5 1.2-.6 1.8-.1.2.1.3.3.3.5 0 0 .2-.3.5-.6.2-.3.5-.6.5-.6-.2 0-.4-.1-.5-.3-.5-.4-.6-1.2-.2-1.8.4-.5 1.2-.6 1.8-.2.2.1.3.3.3.5 0 0 .2-.3.5-.6l.4-.6c-.2 0-.4-.1-.5-.2-.5-.4-.7-1.2-.3-1.8.4-.6 1.2-.7 1.7-.3.2.1.3.3.4.4l.4-.6.4-.6c-.2 0-.4-.1-.5-.2-.6-.4-.7-1.2-.3-1.8.4-.6 1.2-.7 1.7-.3.2.1.3.3.4.4l.4-.6.4-.6c-.2 0-.4-.1-.5-.2-.6-.4-.8-1.2-.4-1.7.4-.6 1.1-.8 1.7-.4.2.1.3.2.4.4 0 0 0-.1.1-.2s.2-.3.2-.4l.4-.6c-.2 0-.4-.1-.5-.2-.6-.3-.8-1.1-.5-1.7.3-.6 1.1-.8 1.7-.5.2.1.3.2.4.4l.7-1.3c-.2 0-.4 0-.6-.1-.6-.3-.9-1.1-.6-1.7.3-.6 1.1-.9 1.7-.6.2.1.3.2.4.4l.6-1.4c-.2 0-.4 0-.6-.1-.6-.3-.9-1-.6-1.7.3-.6 1-.9 1.6-.7.2.1.3.2.5.3l.5-1.4c-.2 0-.4 0-.6-.1-.6-.3-1-1-.7-1.6.3-.6.9-1 1.6-.7.2.1.3.2.5.3l.5-1.4c-.2 0-.4 0-.6-.1-.7-.2-1-.9-.8-1.6.2-.6.9-1 1.6-.8.2.1.4.2.5.3l.4-1.4h-.6c-.7-.2-1-.9-.8-1.6.2-.7.9-1.1 1.5-.9.2.1.4.1.5.3l.4-1.4h-.6c-.7-.2-1.1-.8-.9-1.5.1-.7.8-1.1 1.5-1 .2 0 .4.1.5.2l.3-1.5c-.2.1-.4.1-.6 0-.7-.1-1.1-.8-1-1.5l-.5-.1s-.2.9-.5 2.5c-.1.8-.4 1.8-.7 2.9-.2.6-.3 1.2-.5 1.8-.2.7-.4 1.3-.6 2.1-.9 2.9-2.1 6.4-4 10.3-1.8 3.8-4.1 8.1-7.1 12.3-3 4.3-6.7 8.6-11.1 12.7-2.2 2-4.5 4-7.1 5.8l-.9.7-1 .7c-.7.4-1.3.9-2 1.3-1.4.8-2.7 1.7-4.1 2.5-2.8 1.6-5.8 3-8.9 4.3-3.1 1.3-6.3 2.3-9.6 3.2-.8.2-1.7.4-2.5.6-.8.2-1.7.3-2.5.5-.4.1-.8.2-1.3.3l-1.3.2c-.9.1-1.7.3-2.6.4-3.4.5-6.9.6-10.3.7-3.5 0-6.9-.2-10.3-.7-.9-.1-1.7-.3-2.6-.4l-1.3-.2c-.4-.1-.8-.2-1.3-.3-.8-.2-1.7-.3-2.5-.5s-1.7-.4-2.5-.6c-3.3-.9-6.5-1.9-9.6-3.2-3.1-1.3-6.1-2.7-8.9-4.3-1.4-.8-2.8-1.7-4.1-2.5-.7-.4-1.3-.9-2-1.3l-1-.7-.9-.7c-2.5-1.8-4.9-3.8-7.1-5.8-4.4-4.1-8-8.4-11.1-12.7-3-4.3-5.3-8.5-7.1-12.3-1.8-3.8-3-7.4-4-10.3l-.6-2.1c-.2-.7-.3-1.3-.5-1.8-.3-1.1-.5-2.1-.7-2.9-.3-1.6-.5-2.5-.5-2.5l-.5.1c1.6.8 1.2 1.5.5 1.6zM164.1 68.3h.6l-.3-1.5c-.1.1-.3.2-.5.2-.7.1-1.3-.3-1.5-1-.2-.7.2-1.3.9-1.5h.6l-.4-1.4c-.1.1-.3.2-.5.3-.7.2-1.3-.2-1.5-.9-.2-.7.2-1.4.8-1.6.2-.1.4-.1.6 0l-.4-1.4c-.1.1-.3.2-.5.3-.7.2-1.3-.2-1.6-.8-.2-.6.1-1.4.8-1.6.2-.1.4-.1.6-.1l-.5-1.4c-.1.1-.3.2-.5.3-.7.2-1.3-.1-1.6-.7-.3-.6.1-1.4.7-1.6.2-.1.4-.1.6-.1l-.5-1.4c-.1.1-.3.3-.5.3-.6.3-1.3 0-1.6-.7-.3-.6 0-1.4.6-1.7.2-.1.4-.1.6-.1l-.6-1.4c-.1.2-.3.3-.4.4-.6.3-1.4 0-1.7-.6-.3-.6-.1-1.4.6-1.7.2-.1.4-.1.6-.1l-.7-1.3c-.1.2-.3.3-.4.4-.6.3-1.4.1-1.7-.5-.3-.6-.1-1.4.5-1.7.2-.1.4-.2.5-.2l-.4-.6c-.1-.2-.2-.3-.2-.4-.1-.1-.1-.2-.1-.2-.1.2-.2.3-.4.4-.6.4-1.4.2-1.7-.4-.4-.6-.2-1.4.4-1.7.2-.1.4-.2.5-.2l-.4-.6-.4-.6c-.1.2-.2.3-.4.4-.6.4-1.4.2-1.7-.3-.4-.6-.2-1.4.3-1.8.2-.1.3-.2.5-.2l-.4-.6-.4-.6c-.1.2-.2.3-.4.4-.6.4-1.3.3-1.8-.3-.4-.6-.3-1.3.3-1.8.2-.1.3-.2.5-.2l-.4-.6c-.2-.3-.5-.6-.5-.6-.1.2-.2.3-.3.5-.5.4-1.3.3-1.8-.2-.4-.5-.4-1.3.2-1.8.2-.1.3-.2.5-.3 0 0-.2-.3-.5-.6-.2-.3-.5-.6-.5-.6-.1.2-.2.3-.3.5-.5.5-1.3.4-1.8-.1s-.4-1.3.1-1.8c.1-.1.3-.2.5-.3l-.5-.5-.5-.5c-.1.2-.2.3-.3.5-.5.5-1.3.5-1.8 0s-.5-1.3 0-1.8c.1-.1.3-.2.5-.3l-1.1-1c-.1.2-.1.4-.3.5-.5.5-1.3.5-1.8 0s-.5-1.3-.1-1.8c.1-.1.3-.3.5-.3l-1.1-1c0 .2-.1.4-.3.5-.5.5-1.2.6-1.8.1-.5-.5-.6-1.2-.2-1.8.1-.2.3-.3.5-.3l-1.1-.9c0 .2-.1.4-.2.5-.4.5-1.2.6-1.7.2-.5-.4-.7-1.2-.2-1.8.1-.2.3-.3.4-.4l-1.2-.9c0 .2-.1.4-.2.5-.4.6-1.2.7-1.7.3-.6-.4-.7-1.2-.3-1.7.1-.2.3-.3.4-.4l-1.2-.8c0 .2-.1.4-.2.5-.4.6-1.1.7-1.7.4-.6-.4-.8-1.1-.4-1.7.1-.2.2-.3.4-.4l-1.3-.8c0 .2-.1.4-.2.5-.4.6-1.1.8-1.7.4-.6-.3-.8-1.1-.5-1.7.1-.2.2-.3.4-.4l-1.3-.7c0 .2-.1.4-.1.6-.3.6-1.1.8-1.7.5-.6-.3-.9-1.1-.5-1.7.1-.2.2-.3.4-.4l-1.3-.7c0 .2 0 .4-.1.6-.3.6-1 .9-1.7.6-.6-.3-.9-1-.6-1.7.1-.2.2-.3.3-.5l-1.3-.6c0 .2 0 .4-.1.6-.3.6-1 .9-1.6.7-.6-.3-.9-1-.7-1.6.1-.2.2-.3.3-.5l-1.4-.5c0 .2 0 .4-.1.6-.2.6-1 1-1.6.8-.6-.2-1-.9-.8-1.6.1-.2.2-.4.3-.5 0 0-.3-.1-.7-.2-.2-.1-.3-.1-.5-.2-.1 0-.2-.1-.2-.1v.6c-.2.7-.9 1-1.6.8-.7-.2-1-.9-.8-1.6.1-.2.2-.4.3-.5 0 0-.4-.1-.7-.2-.4-.1-.7-.2-.7-.2V5c-.2.7-.9 1.1-1.5.9-.7-.2-1.1-.9-.9-1.5 0-.2.1-.4.3-.5 0 0-.4-.1-.7-.2-.4-.1-.7-.2-.7-.2 0 .2.1.4 0 .6-.2.7-.8 1.1-1.5 1-.7-.1-1.1-.8-1-1.5 0-.2.1-.4.2-.5 0 0-.4-.1-.7-.1-.4-.1-.7-.1-.7-.1.1.2.1.4 0 .6-.1.7-.8 1.2-1.4 1-.7-.1-1.1-.8-1-1.4 0-.2.1-.4.2-.5 0 0-.4-.1-.7-.1-.4 0-.7-.1-.7-.1.1.2.1.4.1.6-.5.6-1.1 1.1-1.8 1-.7-.1-1.2-.7-1.1-1.4 0-.2.1-.4.2-.5 0 0-.4 0-.7-.1h-.8c.1.1.1.3.1.5-.1.7-.7 1.2-1.3 1.2-.7 0-1.2-.6-1.2-1.3 0-.2.1-.4.2-.5 0 0-.4 0-.7-.1h-.7c.1.2.1.4.1.6 0 .7-.6 1.2-1.3 1.2-.7 0-1.2-.6-1.2-1.3 0-.2.1-.4.1-.6h-1.4c.1.2.1.4.1.6 0 .7-.5 1.3-1.2 1.3s-1.3-.5-1.3-1.2c0-.2 0-.4.1-.6h-.7c-.4 0-.7.1-.7.1.1.2.2.3.2.5 0 .7-.5 1.3-1.2 1.3s-1.3-.5-1.3-1.2c0-.2 0-.4.1-.6 0 0-.4 0-.7.1-.7 0-1 .1-1 .1.1.2.2.3.2.5.1.7-.4 1.3-1.1 1.4-.7.1-1.3-.4-1.4-1.1 0-.2 0-.4.1-.6 0 0-.4 0-.7.1-.4.1-.7.1-.7.1.1.2.2.3.2.5.1.7-.4 1.3-1 1.4-.7.1-1.3-.4-1.4-1v-.6s-.4.1-.7.1c-.4.1-.7.1-.7.1.1.1.2.3.2.5.1.7-.3 1.4-1 1.5-.7.1-1.3-.3-1.5-1v-.6s-.4.1-.7.2c-.5.3-.8.4-.8.4.1.1.2.3.3.5.1.7-.3 1.3-1 1.5-.7.2-1.3-.2-1.5-.9-.1-.2-.1-.4 0-.6 0 0-.4.1-.7.2-.4.1-.7.2-.7.2.1.1.2.3.3.5.2.7-.2 1.4-.8 1.6-.7.2-1.4-.2-1.6-.8-.1-.2-.1-.4 0-.6 0 0-.1 0-.2.1-.1 0-.3.1-.5.2-.3.1-.7.2-.7.2.1.1.2.3.3.5.2.7-.1 1.4-.8 1.6-.7.2-1.4-.2-1.7-.8-.1-.2-.1-.4-.1-.6l-1.4.5c.1.1.3.3.3.5.2.6-.1 1.4-.7 1.6-.6.2-1.4-.1-1.6-.7-.1-.2-.1-.4-.1-.6l-1.3.6c.1.1.3.3.3.5.3.6 0 1.4-.6 1.7-.6.3-1.4 0-1.7-.6-.1-.2-.1-.4-.1-.6l-1.3.7.4.4c.3.6.1 1.4-.5 1.7-.6.3-1.4.1-1.7-.5-.1-.2-.1-.4-.1-.6l-1.3.7c.2.1.3.2.4.4.3.6.1 1.4-.5 1.7-.6.3-1.3.2-1.7-.4-.1-.2-.2-.4-.2-.5l-1.3.8c.2.1.3.2.4.4.4.6.2 1.4-.4 1.7-.6.4-1.3.2-1.7-.4-.1-.2-.2-.4-.2-.5l-1.2.8c.2.1.3.2.4.4.4.6.2 1.4-.3 1.7-.5.4-1.3.3-1.7-.3-.1-.2-.2-.3-.2-.5l-1.2.9c.2.1.3.2.4.4.4.6.3 1.3-.2 1.8-.5.4-1.3.3-1.7-.2-.2-.2-.3-.3-.3-.5l-1.1.9c.2.1.3.2.5.3.4.5.3 1.3-.2 1.8s-1.3.4-1.8-.1c-.1-.2-.2-.3-.3-.5l-1.1 1c.2.1.3.2.5.3.5.5.4 1.3-.1 1.8s-1.3.5-1.8 0c-.1-.1-.2-.3-.3-.5l-1.1 1c.2.1.3.2.5.3.5.5.5 1.3 0 1.8s-1.3.5-1.8 0c-.1-.1-.2-.3-.3-.5l-.5.5-.5.5c.2.1.3.1.5.3.5.5.5 1.3.1 1.8-.5.5-1.2.6-1.8.1-.1-.1-.3-.3-.3-.5 0 0-.2.3-.5.6-.2.3-.5.6-.5.6.2 0 .4.1.5.3.5.4.6 1.2.2 1.8-.4.5-1.2.6-1.8.2-.2-.1-.3-.3-.3-.5 0 0-.2.3-.5.6l-.4.6c.2 0 .4.1.5.2.5.4.7 1.2.2 1.8-.4.6-1.2.7-1.7.3-.2-.1-.3-.3-.4-.4l-.4.6-.4.6c.2 0 .4.1.5.2.6.4.7 1.2.3 1.8-.4.6-1.2.7-1.7.3-.2-.1-.3-.3-.4-.4l-.4.6-.4.6c.2 0 .4.1.5.2.6.4.8 1.2.4 1.7-.4.6-1.1.8-1.7.4-.2-.1-.3-.2-.4-.4 0 0 0 .1-.1.2s-.2.3-.2.4l-.4.6c.2 0 .4.1.5.2.6.3.8 1.1.5 1.7-.3.6-1.1.8-1.7.5-.2-.1-.3-.2-.4-.4L11 47c.2 0 .4 0 .6.1.6.3.9 1.1.6 1.7-.3.6-1.1.9-1.7.6-.2-.1-.3-.2-.4-.4l-.6 1.4c.2 0 .4 0 .6.1.6.3.9 1 .6 1.7-.3.6-1 .9-1.6.7-.2-.1-.3-.2-.5-.3L8.1 54c.2 0 .4 0 .6.1.6.3.9 1 .7 1.6-.3.6-.9 1-1.6.7-.2-.1-.3-.2-.5-.3l-.5 1.4c.2 0 .4 0 .6.1.6.2 1 .9.8 1.6-.2.6-.9 1-1.6.8-.2-.1-.4-.2-.5-.3L5.5 61h.6c.7.2 1 .9.8 1.6-.2.7-.9 1.1-1.5.9-.2-.1-.4-.1-.5-.3l-.4 1.4h.6c.7.2 1.1.8.9 1.5-.1.7-.8 1.1-1.5 1-.2 0-.4-.1-.5-.2l-.3 1.5c.2 0 .4-.1.6 0 .7.1 1.1.8 1 1.5l.5.1s.2-.9.5-2.5c.1-.8.4-1.8.7-2.9.2-.6.3-1.2.5-1.8.1-.8.3-1.5.5-2.3.9-2.9 2.1-6.4 4-10.3 1.8-3.8 4.1-8.1 7.1-12.3 3-4.3 6.7-8.6 11.1-12.7 2.2-2 4.5-4 7.1-5.8l.9-.7 1-.7c.7-.4 1.3-.9 2-1.3 1.4-.8 2.7-1.7 4.1-2.5 2.8-1.6 5.8-3 8.9-4.3 3.1-1.3 6.3-2.3 9.6-3.2.8-.2 1.7-.4 2.5-.6.8-.2 1.7-.4 2.5-.5.4-.1.8-.2 1.3-.3l1.3-.2c.9-.1 1.7-.3 2.6-.4 3.3-.5 6.7-.7 10.2-.7 3.5 0 6.9.2 10.3.7.9.1 1.7.3 2.6.4l1.3.2c.4.1.8.2 1.3.3.8.2 1.7.3 2.5.5s1.7.4 2.5.6c3.3.9 6.5 1.9 9.6 3.2 3.1 1.3 6.1 2.7 8.9 4.3 1.4.8 2.8 1.7 4.1 2.5.7.4 1.3.9 2 1.3l1 .7.9.7c2.5 1.8 4.9 3.8 7.1 5.8 4.4 4.1 8.1 8.4 11.1 12.7 3 4.3 5.3 8.5 7.1 12.3 1.8 3.8 3 7.4 4 10.3l.6 2.1c.2.7.3 1.3.5 1.8.3 1.2.5 2.1.7 2.9.3 1.6.5 2.5.5 2.5l.5-.1c-.3-.6.1-1.3.8-1.4z"/><path class="st0" d="M30.5 95.7h-.4l.2 1c.1-.1.2-.1.3-.2.5-.1.9.2 1 .6.1.4-.2.9-.6 1h-.4l.2 1c.1-.1.2-.1.3-.2.5-.1.9.2 1 .6.1.4-.1.9-.6 1h-.4l.3 1c.1-.1.2-.2.3-.2.4-.1.9.1 1 .5.2.4-.1.9-.5 1.1-.1 0-.3.1-.4 0l.3.9c.1-.1.2-.2.3-.2.4-.2.9.1 1.1.5.2.4 0 .9-.5 1.1-.1 0-.3.1-.4.1l.4.9c.1-.1.2-.2.3-.2.4-.2.9 0 1.1.4.2.4 0 .9-.4 1.1-.1.1-.2.1-.4.1l.4.9c.1-.1.2-.2.3-.2.4-.2.9 0 1.1.4.2.4 0 .9-.4 1.1-.1.1-.2.1-.4.1l.4.9.3-.3c.4-.2.9-.1 1.1.3.2.4.1.9-.3 1.2-.1.1-.2.1-.4.1l.2.4.2.4.3-.3c.4-.2.9-.1 1.2.3.2.4.1.9-.3 1.2-.1.1-.2.1-.4.1 0 0 .1.2.3.4.1.2.3.4.3.4l.3-.3c.4-.3.9-.2 1.2.2.3.4.2.9-.2 1.2-.1.1-.2.1-.4.1 0 0 .1.2.3.4.1.2.3.4.3.4.1-.1.1-.2.2-.3.4-.3.9-.2 1.2.2.3.4.2.9-.2 1.2-.1.1-.2.1-.3.2 0 0 .1.2.3.4.2.2.3.4.3.4.1-.1.1-.2.2-.3.4-.3.9-.2 1.2.1.3.4.2.9-.1 1.2-.1.1-.2.1-.3.2 0 0 .2.2.3.4.2.2.3.4.3.4 0-.1.1-.2.2-.3.3-.3.9-.3 1.2.1.3.3.3.9-.1 1.2-.1.1-.2.2-.3.2l.7.7c0-.1.1-.2.2-.3.3-.3.9-.3 1.2 0 .3.3.3.9 0 1.2-.1.1-.2.2-.3.2l.7.7c0-.1.1-.2.2-.3.3-.3.8-.4 1.2 0 .3.3.4.8 0 1.2-.1.1-.2.2-.3.2l.7.7c0-.1.1-.2.2-.3.3-.3.8-.4 1.2-.1.3.3.4.8.1 1.2-.1.1-.2.2-.3.2l.8.6c0-.1.1-.2.2-.4.3-.4.8-.4 1.2-.1.4.3.4.8.2 1.2-.1.1-.2.2-.3.2l.8.6c0-.1.1-.2.1-.4.3-.4.8-.5 1.2-.2.4.3.5.8.2 1.2l-.3.3.8.6c0-.1.1-.3.1-.4.3-.4.8-.5 1.2-.2.4.2.5.8.3 1.2l-.3.3.8.5c0-.1 0-.3.1-.4.2-.4.7-.5 1.1-.3.4.2.5.7.3 1.1l-.3.3.9.5c0-.1 0-.3.1-.4.2-.4.7-.6 1.1-.4.4.2.6.7.4 1.1-.1.1-.1.2-.2.3l.9.4c0-.1 0-.3.1-.4.2-.4.7-.6 1.1-.4.4.2.6.7.4 1.1-.1.1-.1.2-.2.3l.9.4c0-.1 0-.3.1-.4.2-.4.7-.6 1.1-.5.4.2.6.7.5 1.1 0 .1-.1.2-.2.3l.9.4v-.4c.2-.4.6-.7 1.1-.5.4.2.7.6.5 1.1 0 .1-.1.2-.2.3 0 0 .2.1.5.2.2.1.5.2.5.2v-.4c.1-.4.6-.7 1.1-.6.4.1.7.6.6 1.1 0 .1-.1.2-.2.3 0 0 .2.1.5.1.2.1.5.1.5.1v-.4c.1-.4.6-.7 1-.6.4.1.7.6.6 1 0 .1-.1.2-.2.3 0 0 .2.1.5.1.2.1.5.1.5.1v-.4c.1-.5.5-.7 1-.7.4.1.7.5.7 1 0 .1-.1.2-.2.4 0 0 .2 0 .5.1.2 0 .5.1.5.1v-.4c.1-.5.5-.8 1-.7.5.1.8.5.7 1 0 .1-.1.3-.1.4 0 0 .2 0 .5.1.2 0 .5.1.5.1 0-.1-.1-.2 0-.4.1-.5.5-.8.9-.7.5.1.8.5.7.9 0 .1-.1.3-.1.4 0 0 .2 0 .5.1h.5c0-.1-.1-.2-.1-.4 0-.5.4-.8.9-.8s.8.4.8.9c0 .1 0 .3-.1.4h1c-.1-.1-.1-.2-.1-.4 0-.5.4-.8.9-.8s.8.4.8.9c0 .1 0 .3-.1.4h1c-.1-.1-.1-.2-.1-.4 0-.5.4-.9.8-.9.5 0 .8.4.9.8 0 .1 0 .3-.1.4h1c-.1-.1-.1-.2-.1-.4 0-.5.3-.9.8-.9s.9.3.9.8c0 .1 0 .3-.1.4h.5c.2 0 .5-.1.5-.1-.1-.1-.1-.2-.1-.4 0-.5.3-.9.7-.9.5-.1.9.3.9.7v.4s.2 0 .5-.1c.2 0 .5-.1.5-.1-.1-.1-.1-.2-.1-.4-.1-.5.2-.9.7-1 .5-.1.9.2 1 .7v.4s.2 0 .5-.1c.2 0 .5-.1.5-.1-.1-.1-.1-.2-.2-.4-.1-.5.2-.9.7-1 .4-.1.9.2 1 .7v.4s.2 0 .5-.1c.2-.1.5-.1.5-.1-.1-.1-.1-.2-.2-.3-.1-.5.2-.9.6-1 .4-.1.9.2 1 .6v.4s.2-.1.5-.1c.2-.1.5-.1.5-.1-.1-.1-.2-.2-.2-.3-.1-.4.1-.9.6-1.1.4-.1.9.1 1.1.6v.4s.2-.1.5-.2c.2-.1.5-.2.5-.2-.1-.1-.2-.2-.2-.3-.1-.4.1-.9.5-1.1.4-.2.9.1 1.1.5 0 .1.1.3 0 .4l.9-.4c-.1-.1-.2-.2-.2-.3-.2-.4 0-.9.5-1.1.4-.2.9 0 1.1.5.1.1.1.3.1.4l.9-.4c-.1-.1-.2-.2-.2-.3-.2-.4 0-.9.4-1.1.4-.2.9 0 1.1.4.1.1.1.3.1.4l.9-.4c-.1-.1-.2-.2-.2-.3-.2-.4 0-.9.4-1.1.4-.2.9-.1 1.1.4.1.1.1.2.1.4l.9-.5-.3-.3c-.2-.4-.1-.9.3-1.1.4-.2.9-.1 1.1.3.1.1.1.2.1.4l.8-.5-.3-.3c-.2-.4-.1-.9.3-1.2.4-.2.9-.1 1.2.2.1.1.1.2.1.4l.8-.6c-.1-.1-.2-.1-.3-.3-.3-.4-.2-.9.2-1.2.4-.3.9-.2 1.2.2.1.1.1.2.1.4l.8-.6c-.1-.1-.2-.1-.3-.2-.3-.4-.2-.9.2-1.2.4-.3.9-.2 1.2.1.1.1.1.2.2.3l.8-.6c-.1-.1-.2-.1-.3-.2-.3-.4-.2-.9.1-1.2.3-.3.9-.3 1.2.1.1.1.1.2.2.3l.7-.7c-.1 0-.2-.1-.3-.2-.3-.3-.3-.9 0-1.2.3-.3.9-.3 1.2 0 .1.1.2.2.2.3l.7-.7c-.1 0-.2-.1-.3-.2-.3-.3-.3-.9 0-1.2.3-.3.8-.3 1.2 0 .1.1.2.2.2.3l.7-.7c-.1 0-.2-.1-.3-.2-.3-.3-.4-.9-.1-1.2.3-.3.8-.4 1.2-.1.1.1.2.2.2.3 0 0 .2-.2.3-.4.2-.2.3-.4.3-.4-.1 0-.2-.1-.3-.2-.4-.3-.4-.8-.1-1.2.3-.4.8-.4 1.2-.1.1.1.2.2.2.3 0 0 .2-.2.3-.4.2-.2.3-.4.3-.4-.1 0-.2-.1-.3-.2-.4-.3-.4-.8-.2-1.2.3-.4.8-.5 1.2-.2.1.1.2.2.2.3 0 0 .1-.2.3-.4.1-.2.3-.4.3-.4-.1 0-.2-.1-.4-.1-.4-.3-.5-.8-.2-1.2.3-.4.8-.5 1.2-.2l.3.3s.1-.2.3-.4c.1-.2.3-.4.3-.4-.1 0-.2-.1-.4-.1-.4-.3-.5-.8-.3-1.2.2-.4.8-.5 1.2-.3l.3.3.2-.4.2-.4c-.1 0-.2 0-.4-.1-.4-.2-.5-.7-.3-1.2s.7-.6 1.1-.3l.3.3.4-.9c-.1 0-.3 0-.4-.1-.4-.2-.6-.7-.4-1.1.2-.4.7-.6 1.1-.4.1.1.2.1.3.2l.4-.9c-.1 0-.3 0-.4-.1-.4-.2-.6-.7-.4-1.1.2-.4.7-.6 1.1-.4.1.1.2.1.3.2l.4-.9c-.1 0-.3 0-.4-.1-.4-.2-.6-.7-.5-1.1.2-.4.6-.7 1.1-.5.1 0 .2.1.3.2l.3-.9h-.4c-.4-.2-.7-.6-.5-1.1.2-.4.6-.7 1.1-.5.1 0 .2.1.3.2l.3-1h-.4c-.4-.1-.7-.6-.6-1 .1-.4.6-.7 1-.6.1 0 .2.1.3.2l.2-1h-.4c-.4-.1-.7-.6-.6-1 .1-.4.5-.7 1-.6.1 0 .2.1.3.2l.2-1h-.4c-.5-.1-.7-.5-.6-1l-.3-.1s-.1.6-.3 1.6c-.1.5-.3 1.2-.5 2s-.4 1.7-.7 2.6c-1.2 3.9-3.4 9.4-7.5 15.2-2 2.9-4.5 5.8-7.4 8.5-1.5 1.3-3 2.7-4.8 3.9-.8.6-1.7 1.2-2.6 1.8-.9.6-1.8 1.2-2.8 1.7-3.8 2.2-8 3.9-12.4 5.1-2.2.6-4.5 1-6.8 1.3-2.3.3-4.6.4-6.9.5-2.3 0-4.6-.2-6.9-.5-2.3-.3-4.6-.7-6.8-1.3-4.4-1.2-8.6-2.9-12.4-5.1-1-.5-1.9-1.1-2.8-1.7-.9-.6-1.8-1.2-2.6-1.8-1.7-1.2-3.3-2.6-4.8-3.9-2.9-2.7-5.4-5.6-7.4-8.5-4-5.8-6.3-11.3-7.5-15.2-.3-1-.6-1.9-.7-2.6-.2-.8-.4-1.4-.5-2-.2-1.1-.3-1.6-.3-1.6l-.3.1c0 .5-.2 1-.7 1.1zM136.7 72.1c0-.4.2-.7.6-.9h.4l-.2-1c-.1.1-.2.1-.3.2-.4.1-.9-.1-1-.6-.1-.4.1-.9.6-1h.4l-.3-1c-.1.1-.2.2-.3.2-.4.1-.9-.1-1.1-.5-.2-.4.1-.9.5-1.1.1 0 .3-.1.4 0l-.3-.9c-.1.1-.2.2-.3.2-.4.2-.9-.1-1.1-.5-.2-.4 0-.9.5-1.1.1-.1.3-.1.4-.1l-.4-.9c-.1.1-.2.2-.3.2-.4.2-.9 0-1.1-.4-.2-.4 0-.9.4-1.1.1-.1.2-.1.4-.1l-.4-.9c-.1.1-.2.2-.3.2-.4.2-.9 0-1.1-.4-.2-.4 0-.9.4-1.1.1-.1.2-.1.4-.1l-.4-.9-.3.3c-.4.2-.9.1-1.1-.3-.2-.4-.1-.9.3-1.2.1-.1.2-.1.4-.1l-.2-.4-.2-.4-.3.3c-.4.2-.9.1-1.2-.3-.2-.4-.1-.9.3-1.2.1-.1.2-.1.4-.1 0 0-.1-.2-.3-.4-.1-.2-.3-.4-.3-.4-.1.1-.1.2-.3.3-.4.3-.9.2-1.2-.2-.3-.4-.2-.9.2-1.2.1-.1.2-.1.4-.1 0 0-.1-.2-.3-.4-.1-.2-.3-.4-.3-.4-.1.1-.1.2-.2.3-.4.3-.9.2-1.2-.2-.3-.4-.2-.9.2-1.2.1-.1.2-.1.3-.2 0 0-.1-.2-.3-.4-.2-.2-.3-.4-.3-.4-.1.1-.1.2-.2.3-.4.3-.9.2-1.2-.1-.3-.4-.2-.9.1-1.2.1-.1.2-.1.3-.2 0 0-.2-.2-.3-.4-.2-.2-.3-.4-.3-.4 0 .1-.1.2-.2.3-.4.3-.9.3-1.2-.1-.3-.3-.3-.9.1-1.2.1-.1.2-.2.3-.2l-.7-.7c0 .1-.1.2-.2.3-.3.3-.9.3-1.2 0-.3-.3-.3-.9 0-1.2.1-.1.2-.2.3-.2l-.7-.7c0 .1-.1.2-.2.3-.3.3-.9.3-1.2 0-.3-.3-.4-.8 0-1.2.1-.1.2-.2.3-.2l-.7-.7c0 .1-.1.2-.2.3-.3.4-.8.4-1.2.1-.3-.3-.4-.8-.1-1.2.1-.1.2-.2.3-.2l-.8-.6c0 .1-.1.2-.2.3-.3.4-.8.4-1.2.1-.4-.3-.4-.8-.2-1.2.1-.1.2-.2.3-.2l-.8-.6c0 .1-.1.2-.1.4-.3.4-.8.5-1.2.2-.4-.3-.5-.8-.2-1.2l.3-.3-.8-.6c0 .1-.1.3-.1.4-.3.4-.8.5-1.2.2-.4-.2-.5-.8-.3-1.2l.3-.3-.8-.5c0 .1 0 .3-.1.4-.2.4-.7.5-1.1.3-.4-.2-.5-.7-.3-1.1l.3-.3-.9-.5c0 .1 0 .3-.1.4-.2.4-.7.6-1.1.4-.4-.2-.6-.7-.4-1.1.1-.1.1-.2.2-.3l-.9-.4c0 .1 0 .3-.1.4-.2.4-.7.6-1.1.4-.4-.2-.6-.7-.4-1.1.1-.1.1-.2.2-.3l-.9-.4c0 .1 0 .3-.1.4-.2.4-.7.6-1.1.5-.4-.2-.6-.7-.5-1.1 0-.1.1-.2.2-.3l-.9-.4v.4c-.2.4-.6.7-1.1.5-.4-.2-.7-.6-.5-1.1 0-.1.1-.2.2-.3 0 0-.2-.1-.5-.2-.2-.1-.5-.2-.5-.2v.4c-.1.4-.6.7-1.1.6-.4-.1-.7-.6-.6-1.1 0-.1.1-.2.2-.3 0 0-.2-.1-.5-.1-.2-.1-.5-.1-.5-.1v.4c-.1.5-.6.7-1 .6-.4-.1-.7-.6-.6-1 0-.1.1-.2.2-.3 0 0-.2-.1-.5-.1-.2-.1-.5-.1-.5-.1v.4c-.1.5-.5.8-1 .7-.4-.1-.7-.5-.7-1 0-.1.1-.3.2-.3 0 0-.2-.1-.5-.1-.2 0-.5-.1-.5-.1v.4c-.1.5-.5.8-1 .7-.5-.1-.8-.5-.7-1 0-.1.1-.3.1-.4 0 0-.2 0-.5-.1-.2 0-.5-.1-.5-.1 0 .1.1.2 0 .4-.1.5-.5.8-.9.7-.5-.1-.8-.5-.7-.9 0-.1.1-.3.1-.4 0 0-.2 0-.5-.1h-.5c0 .1.1.2.1.4 0 .5-.4.8-.9.8s-.8-.4-.8-.9c0-.1 0-.3.1-.4h-1c.1.1.1.2.1.4 0 .5-.4.8-.9.8s-.8-.4-.8-.9c0-.1 0-.3.1-.4h-1c.1.1.1.2.1.4 0 .5-.4.9-.8.9-.5 0-.8-.4-.9-.8 0-.1 0-.3.1-.4h-1c.1.1.1.2.1.4 0 .5-.3.9-.8.9s-.9-.3-.9-.8c0-.1 0-.3.1-.4h-.5c-.2 0-.5.1-.5.1.1.1.1.2.1.4 0 .5-.3.9-.7.9-.5.1-.9-.3-.9-.7v-.4s-.2 0-.5.1c-.2 0-.5.1-.5.1.1.1.1.2.1.4.1.5-.3.9-.7 1-.5.1-.9-.2-1-.7v-.4s-.2 0-.5.1c0-.3-.3-.2-.3-.2.1.1.1.2.2.3.1.5-.2.9-.7 1-.4.1-.9-.2-1-.7v-.4s-.2 0-.5.1c-.2.1-.5.1-.5.1.1.1.1.2.2.3.1.5-.2.9-.6 1-.4.1-.9-.2-1-.6v-.4s-.2.1-.5.1c-.2.1-.5.1-.5.1.1.1.2.2.2.3.1.4-.1.9-.6 1.1-.4.1-.9-.1-1.1-.6v-.4s-.2.1-.5.2c-.2.1-.5.2-.5.2.1.1.2.2.2.3.1.4-.1.9-.5 1.1-.4.2-.9-.1-1.1-.5 0-.1-.1-.3 0-.4l-.9.4c.1.1.2.2.2.3.2.4 0 .9-.5 1.1-.4.2-.9 0-1.1-.5-.1-.1-.1-.3-.1-.4l-.9.4c.1.1.2.2.2.3.2.4 0 .9-.4 1.1-.4.2-.9 0-1.1-.4-.1-.1-.1-.2-.1-.4l-.9.4c.1.1.2.2.2.3.2.4 0 .9-.4 1.1-.4.2-.9.1-1.1-.4-.1-.1-.1-.2-.1-.4l-.6.9.3.3c.2.4.1.9-.3 1.1-.4.2-.9.1-1.1-.3-.2-.1-.2-.2-.2-.3l-.8.5.3.3c.2.4.1.9-.3 1.2-.4.2-.9.1-1.2-.2-.1-.1-.1-.2-.1-.4l-.8.6c.1.1.2.1.3.3.3.4.2.9-.2 1.2-.4.3-.9.2-1.2-.2-.1-.1-.1-.2-.1-.4l-.9.5c.1.1.2.1.3.2.3.4.2.9-.2 1.2-.4.3-.9.2-1.2-.1-.1-.1-.1-.2-.2-.3l-.8.6c.1.1.2.1.3.2.3.4.2.9-.1 1.2-.3.3-.9.3-1.2-.1-.1-.1-.1-.2-.2-.3l-.7.7c.1 0 .2.1.3.2.3.3.3.9 0 1.2-.3.3-.9.3-1.2 0-.1-.1-.2-.2-.2-.3l-.7.7c.1 0 .2.1.3.2.3.3.3.9 0 1.2-.3.3-.8.3-1.2 0-.1-.1-.2-.2-.2-.3l-.7.7c.1 0 .2.1.3.2.3.3.4.9.1 1.2-.3.3-.8.4-1.2.1-.1-.1-.2-.2-.2-.3 0 0-.2.2-.3.4-.2.2-.3.4-.3.4.1 0 .2.1.3.2.4.3.4.8.1 1.2-.3.4-.8.4-1.2.1.1-.3 0-.4 0-.6 0 0-.2.2-.3.4-.2.2-.3.4-.3.4.1 0 .2.1.3.2.4.3.4.8.2 1.2-.3.4-.8.5-1.2.2-.1-.1-.2-.2-.2-.3 0 0-.1.2-.3.4-.1.2-.3.4-.3.4.1 0 .2.1.4.1.4.3.5.8.2 1.2-.3.4-.8.5-1.2.2l-.3-.3s-.1.2-.3.4c-.1.2-.3.4-.3.4.1 0 .2.1.4.1.4.3.5.8.3 1.2-.2.4-.8.5-1.2.3l-.3-.3-.2.4-.2.4c.1 0 .2 0 .4.1.4.2.5.7.3 1.2-.2.4-.7.6-1.1.3l-.3-.3-.5 1.1c.1 0 .3 0 .4.1.4.2.6.7.4 1.1-.2.4-.7.6-1.1.4-.1-.1-.2-.1-.3-.2l-.4.9c.1 0 .3 0 .4.1.4.2.6.7.4 1.1-.2.4-.7.6-1.1.4-.1-.1-.2-.1-.3-.2l-.4.9c.1 0 .3 0 .4.1.4.2.6.7.5 1.1-.2.4-.6.7-1.1.5-.1 0-.2-.1-.3-.2l-.3.9h.4c.4.2.7.6.5 1.1-.2.4-.6.7-1 .5-.1 0-.2-.1-.3-.2l-.3 1h.4c.4.1.7.6.6 1-.1.4-.6.7-1 .6-.1 0-.2-.1-.3-.2l-.2.8c.1 0 .2.1.2.2h.1c.3.1.6.4.6.7.1.1.2.3.3.4.1-.4.2-.8.3-1.3.2-.8.4-1.7.7-2.6 1.2-3.9 3.4-9.4 7.5-15.2 2-2.9 4.5-5.8 7.4-8.5 1.5-1.3 3-2.7 4.8-3.9.8-.6 1.7-1.2 2.6-1.8.9-.6 1.8-1.2 2.8-1.7 3.8-2.2 8-3.9 12.4-5.1 2.2-.6 4.5-1 6.8-1.3 2.3-.3 4.6-.4 6.9-.5 2.3 0 4.6.2 6.9.5 2.3.3 4.6.7 6.8 1.3 4.4 1.2 8.6 2.9 12.4 5.1 1 .5 1.9 1.1 2.8 1.7.9.6 1.8 1.2 2.6 1.8 1.7 1.2 3.3 2.6 4.8 3.9 2.9 2.7 5.4 5.6 7.4 8.5 4 5.8 6.3 11.3 7.5 15.2.3 1 .6 1.9.7 2.6.1.5.3 1 .3 1.4-.1 0 0-.2.1-.3z"/><path class="st0" d="M76.4 130.7h.4c.2 0 .6 0 .9-.1.7-.2 1.5-.7 1.9-1.7l1.7.1c.1.6.3 1 .6 1.3.3.3.6.6 1 .7.7.3 1.3.4 1.3.4-1 .4-1.8.3-2.4.1-.6-.3-1.1-.7-1.4-1.2-.4.4-.9.8-1.6.9-.3.1-.7.1-1.1 0-.2 0-.4-.1-.6-.2-.3 0-.5-.1-.7-.3zm6.2.7c-.1-.1-.5-.2-.9-.6-.4-.3-.7-.8-.8-1.4 0 0-.1.4.1.8.2.5.6 1 1.6 1.2zm-4.5-.4c1-.1 1.5-.5 1.8-.9.2-.4.2-.8.2-.8-.4 1.3-1.7 1.6-2 1.7z"/><path class="st0" d="M79.7 132.5s.1.6.1 1.2l.2 1.2s.2-.6.4-1.1c.2-.6.3-1.1.3-1.1-.4-.5-.4-1.1-.4-1.1s-.1.5-.6.9zm-1.8-.7c.8.1 1.4-.1 1.8-.3.4-.2.6-.4.6-.4s.2.3.5.5c.4.3.9.6 1.7.6 0 0-.1.1-.3.1-.2.1-.5.1-.8 0 0 0-.3 2.3-1.5 3.1-.5-.5-.8-1.3-.9-2-.1-.7-.1-1.3-.1-1.3-.6 0-1-.3-1-.3zM75.4 129.7c.3.5.7 1 1.3 1.3.6.3 1.4.4 2.4.2 0 0-.6-.1-1.2-.5s-1.3-1.1-1.3-2.2l-.8-.2-.8-.2c-.5 1-1.4 1.4-2.1 1.5-.7.1-1.3 0-1.3 0 .4.3.8.6 1.2.7.4.1.8.1 1.1.1.5-.1 1.1-.4 1.5-.7z"/><path class="st0" d="M76.1 128.8c.1 1.2 1.2 2 1.5 2.1-.5-.2-.8-.4-1.1-.6-.2-.2-.4-.5-.4-.7-.1-.4 0-.8 0-.8zM75.3 128.7s0 .4-.3.7c-.3.4-.8.7-1.9.7.4-.1 1.7-.3 2.2-1.4zM74.5 131.7v2.4s.2-.5.5-1.1c.2-.5.5-1.1.5-1.1-.4-.5-.3-1.1-.3-1.1s-.1.6-.7.9zm-1.6-.9c.8.2 1.4 0 1.8-.1.4-.2.6-.4.6-.4s.1.3.5.6c.3.3.8.7 1.6.8 0 0-.4.3-1.1 0 0 0-.5 2.3-1.8 2.9-.5-.5-.6-1.4-.7-2.1 0-.7.1-1.3.1-1.3-.7 0-1-.4-1-.4z"/><path class="st0" d="M70.6 128.4c.2.5.6 1.1 1.1 1.4.3.2.6.4 1 .4.4.1.9.1 1.4 0 0 0-.6-.2-1.2-.6-.6-.5-1.1-1.2-1.1-2.4l-.8-.2c-.4-.1-.8-.3-.8-.3-.6.9-1.5 1.3-2.2 1.3-.7 0-1.3-.2-1.3-.2.8.7 1.5 1.1 2.2 1 .7.2 1.3-.1 1.7-.4z"/><path class="st0" d="M71.4 127.7c0 1.2 1 2.1 1.3 2.3-.9-.5-1.2-1.1-1.3-1.5-.2-.5 0-.8 0-.8zM70.6 127.5s-.1.4-.4.7c-.3.3-.9.6-1.9.5.3-.1 1.7-.2 2.3-1.2zM69.5 130.4s-.1.6-.1 1.2c-.1.6-.1 1.2-.1 1.2l.6-1 .6-1c-.3-.6-.2-1.1-.2-1.1s-.2.4-.8.7zm-1.5-1.1c.8.2 1.4.2 1.8.1.4-.1.7-.3.7-.3s.1.3.4.6c.3.3.8.7 1.5 1 0 0-.5.2-1.1-.1 0 0-.8 2.2-2.1 2.7-.9-1.2-.2-3.4-.2-3.4-.8-.2-1-.6-1-.6z"/><path class="st0" d="M66 126.7c.1.3.2.6.3.8.2.3.4.5.6.7.3.2.6.4 1 .5.4.1.8.2 1.4.2 0 0-.1-.1-.4-.2-.2-.1-.5-.3-.7-.6-.5-.5-1-1.4-.8-2.5 0 0-.1 0-.2-.1s-.3-.2-.5-.2l-.8-.4c-.4.4-.8.7-1.2.9-.4.2-.8.2-1.2.2-.7 0-1.3-.3-1.3-.3.7.8 1.4 1.2 2.1 1.3.6.1 1.2-.1 1.7-.3z"/><path class="st0" d="M66.8 126.1c-.2 1.2.8 2.2 1 2.4-.9-.6-1.1-1.2-1.2-1.6 0-.5.2-.8.2-.8zM66.1 125.7s-.1.3-.5.6c-.2.1-.4.3-.7.3-.3.1-.7.1-1.2-.1.3.2 1.6.2 2.4-.8zM64.7 128.5l-.2 1.2-.2 1.2s.3-.5.7-.9c.3-.5.7-.9.7-.9-.2-.6 0-1.2 0-1.2s-.4.4-1 .6zm-1.4-1.2c.2.1.3.2.5.2s.3.1.5.1h.8c.4-.1.7-.2.7-.2s.1.3.3.7c.3.4.7.8 1.4 1.1 0 0-.5.1-1.1-.2 0 0-.2.5-.7 1.1-.4.6-1 1.2-1.7 1.3-.7-1.3.2-3.4.2-3.4-.3-.1-.6-.3-.7-.4-.2-.2-.2-.3-.2-.3z"/><path class="st0" d="M61.6 124.4c.1.5.3 1.2.8 1.7.2.2.5.5.9.6.4.2.8.3 1.3.3 0 0-.5-.3-1-.9-.5-.6-.9-1.4-.6-2.5l-1.5-.9c-.8.8-1.7.9-2.5.8-.7-.1-1.2-.5-1.2-.5.3.5.6.8.9 1 .3.2.7.4 1 .5.7.3 1.4.1 1.9-.1z"/><path class="st0" d="M62.5 123.9c-.3 1.2.5 2.3.7 2.5-.4-.3-.7-.6-.8-.9-.1-.3-.2-.6-.2-.8.1-.5.3-.8.3-.8zM61.8 123.5s-.1.3-.5.6c-.2.1-.4.2-.8.3-.3 0-.7 0-1.2-.2.2 0 .6.1 1 .1.5-.2 1.1-.4 1.5-.8zM60.1 126.1s-.2.6-.4 1.1c-.2.6-.4 1.1-.4 1.1s.4-.4.8-.9c.4-.4.8-.9.8-.9-.2-.6.1-1.2.1-1.2s-.3.6-.9.8zm-1.3-1.4c.3.2.7.3.9.4.3.1.6.1.8.1.4 0 .7-.1.7-.1s0 .3.2.7c.2.4.6.9 1.3 1.3 0 0-.5.1-1.1-.3 0 0-.3.5-.8 1s-1.1 1-1.9 1.1c-.3-.7-.2-1.5 0-2.2.2-.7.5-1.2.5-1.2-.4-.3-.6-.8-.6-.8z"/><path class="st0" d="M57.4 121.7c0 .6.2 1.2.6 1.7.4.5 1.1 1 2.1 1.2 0 0-.5-.4-.9-1-.2-.3-.4-.7-.5-1.1-.1-.4 0-.9.2-1.5 0 0-.3-.3-.7-.5-.4-.2-.7-.5-.7-.5-.9.7-1.8.7-2.5.5-.7-.2-1.2-.6-1.2-.6.2.5.5.9.8 1.1.3.3.6.5.9.6.7.3 1.4.3 1.9.1z"/><path class="st0" d="M58.4 121.3c-.2.6-.1 1.2 0 1.6.1.5.4.8.5.9-.2-.2-.3-.4-.5-.5-.1-.2-.2-.3-.2-.5-.1-.3-.1-.6-.1-.8 0-.5.3-.7.3-.7zM57.7 120.8s-.2.3-.6.5c-.4.2-1 .3-2-.2.4.1 1.7.5 2.6-.3zM55.8 123.2s-.2.5-.5 1.1c-.2.5-.5 1.1-.5 1.1s.4-.4.9-.8c.4-.4.9-.8.9-.8-.1-.6.2-1.1.2-1.1s-.4.4-1 .5zm-1.2-1.5c.6.5 1.2.6 1.7.7.4 0 .7-.1.7-.1s0 .3.2.7c.1.2.2.5.4.7.2.3.4.5.7.7H58c-.2 0-.4-.2-.7-.4 0 0-1.4 1.8-2.9 1.8-.2-.7 0-1.5.3-2.2.3-.7.6-1.1.6-1.1-.6-.3-.7-.8-.7-.8z"/><path class="st0" d="M53.6 118.5c0 .6.1 1.2.4 1.8.2.3.4.6.7.8.3.2.7.4 1.3.6 0 0-.5-.4-.8-1.1-.3-.7-.5-1.6 0-2.6l-.6-.6-.6-.6c-.5.3-1 .4-1.4.4H52c-.2 0-.4-.1-.6-.2-.7-.3-1.1-.7-1.1-.7.7 2.1 2.2 2.4 3.3 2.2z"/><path class="st0" d="M54.6 118.2c-.5 1.1 0 2.3.2 2.6-.6-.8-.7-1.5-.6-1.9.1-.5.4-.7.4-.7zM54 117.7s-.2.3-.6.5c-.4.2-1.1.2-2-.4.3 0 1.6.5 2.6-.1zM51.8 119.8l-.6 1-.6 1s.5-.3 1-.7c.5-.3 1-.7 1-.7 0-.6.3-1.1.3-1.1s-.5.5-1.1.5zm-1-1.6c.6.5 1.2.8 1.6.8.4.1.7 0 .7 0s0 .3.1.7c.1.4.4 1 1 1.5 0 0-.5 0-.9-.6 0 0-1.6 1.7-3 1.5-.3-1.5 1.2-3.2 1.2-3.2-.3-.2-.4-.4-.5-.6-.2 0-.2-.1-.2-.1z"/><path class="st0" d="M50.1 115c0 .3-.1.6 0 .9 0 .3.1.6.3.9.3.6.8 1.2 1.8 1.6 0 0-.1-.1-.2-.3-.1-.2-.3-.5-.4-.8-.3-.7-.3-1.6.3-2.6l-.2-.2c-.1-.1-.2-.3-.4-.5-.3-.3-.6-.7-.6-.7-.5.2-1 .3-1.4.3-.4 0-.8-.2-1.1-.4-.3-.2-.6-.4-.8-.5l-.3-.3c.3 1 .8 1.7 1.3 2.1.5.4 1.2.5 1.7.5z"/><path class="st0" d="M51.1 114.7c-.7 1-.2 2.3-.1 2.6-.6-.9-.5-1.5-.4-2 .2-.4.5-.6.5-.6zM50.6 114.1s-.2.3-.7.4c-.2.1-.5.1-.8 0-.2 0-.3-.1-.5-.2s-.4-.2-.6-.4c.1.1.5.3 1 .4.5.1 1.1.1 1.6-.2zM48.2 116s-.3.5-.7.9c-.3.5-.7 1-.7 1l1-.6 1-.6c0-.7.5-1.1.5-1.1s-.5.5-1.1.4zm-.8-1.7c.5.6 1.1.9 1.5 1 .4.1.7.1.7.1s-.1.3 0 .7c.1.4.3 1 .8 1.6 0 0-.5-.1-.9-.6 0 0-.4.4-1.1.7-.6.3-1.4.6-2.1.5-.1-1.5 1.6-3 1.6-3-.3-.2-.4-.5-.4-.7-.1-.1-.1-.3-.1-.3z"/><path class="st0" d="M47.1 111c-.2.5-.2 1.2 0 1.8.2.6.7 1.3 1.6 1.8 0 0-.1-.1-.2-.3-.1-.2-.2-.5-.3-.9-.2-.7-.2-1.7.5-2.5l-1-1.4c-1.1.4-1.9.1-2.6-.4-.3-.2-.5-.4-.7-.6-.2-.2-.2-.3-.2-.3.1.5.2 1 .4 1.3.2.4.4.6.7.9.6.4 1.2.6 1.8.6z"/><path class="st0" d="M48.1 110.9c-.4.5-.5 1.1-.5 1.5 0 .5.1.9.2 1-.2-.5-.3-.9-.3-1.2 0-.3.1-.6.2-.8.1-.3.4-.5.4-.5zM47.6 110.3s-.3.2-.7.3c-.2 0-.5 0-.8-.1-.3-.1-.6-.3-1-.7.3.1 1.4.9 2.5.5zM45 111.9s-.4.4-.8.9c-.4.4-.8.9-.8.9s.5-.2 1.1-.4c.5-.2 1.1-.5 1.1-.5.1-.6.6-1 .6-1s-.5.2-1.2.1zm-.6-1.8c.4.7.9 1 1.4 1.2.4.2.7.2.7.2s-.1.3-.1.7c0 .2 0 .5.1.8.1.3.3.6.5.9 0 0-.5-.1-.8-.7 0 0-1.9 1.3-3.3.8 0-.7.5-1.4.9-2l.9-.9c-.3-.5-.3-1-.3-1z"/><path class="st0" d="M44.4 106.8c-.2.5-.3 1.2-.2 1.8.1.7.6 1.4 1.4 2 0 0-.3-.5-.4-1.3-.1-.7 0-1.7.8-2.5l-.4-.8c-.1-.2-.2-.4-.3-.5-.1-.1-.1-.2-.1-.2-1.1.3-1.9-.1-2.5-.6-.5-.5-.8-1-.8-1 0 .5.1 1 .3 1.4.2.4.4.7.6.9.5.5 1.1.7 1.6.8z"/><path class="st0" d="M45.5 106.8c-.9.9-.7 2.2-.7 2.5-.2-.5-.2-.9-.2-1.2 0-.3.1-.6.3-.8.2-.4.6-.5.6-.5zM45.1 106.1s-.3.2-.7.2c-.4 0-1.1-.2-1.7-1 .2.2 1.2 1.1 2.4.8zM42.3 107.4s-.4.4-.9.8c-.4.4-.9.8-.9.8s.6-.2 1.1-.3c.6-.2 1.1-.3 1.1-.3.2-.6.7-.9.7-.9s-.1.1-.3.1c-.2-.1-.5-.1-.8-.2zm-.4-1.8c.4.7.9 1.1 1.2 1.3.2.1.4.2.5.2h.2s-.1.3-.1.7c0 .4 0 1.1.4 1.8 0 0-.5-.2-.7-.8 0 0-2 1.1-3.4.4.1-.7.6-1.4 1.2-1.9.5-.5 1-.8 1-.8-.4-.4-.3-.9-.3-.9z"/><path class="st0" d="M42.3 102.3c-.3.5-.4 1.1-.4 1.8 0 .3.1.7.3 1.1.2.4.5.7.9 1.1 0 0-.3-.6-.3-1.3 0-.7.2-1.7 1.1-2.4 0 0 0-.1-.1-.2s-.2-.3-.2-.5c-.2-.4-.3-.8-.3-.8-1.1.1-1.9-.4-2.4-.9s-.7-1.1-.7-1.1c0 .5 0 1 .1 1.4.1.2.1.4.2.5.1.2.2.3.3.4.4.4 1 .7 1.5.9z"/><path class="st0" d="M43.3 102.4c-1 .8-.9 2.1-.9 2.4-.2-1 0-1.6.3-2 .3-.3.6-.4.6-.4zM43 101.7s-.3.2-.8.1c-.4 0-1-.3-1.6-1.2.3.3 1.2 1.2 2.4 1.1zM40.1 102.7s-.5.3-1 .7c-.5.3-1 .7-1 .7s.6-.1 1.1-.2l1.2-.2c.1-.3.3-.5.5-.7.2-.1.3-.2.3-.2s-.5.1-1.1-.1zm-.2-1.9c.3.7.7 1.2 1.1 1.4.4.3.6.3.6.3s-.2.3-.2.7c-.1.4-.1 1.1.2 1.8 0 0-.4-.2-.6-.9 0 0-.5.2-1.2.3-.7.1-1.6.1-2.2-.2.4-1.4 2.5-2.4 2.5-2.4-.2-.3-.2-.6-.2-.8v-.2z"/><path class="st0" d="M40.6 97.6c-.3.5-.6 1.1-.6 1.7 0 .7.2 1.5 1 2.3 0 0 0-.1-.1-.4 0-.2-.1-.6 0-.9.1-.7.4-1.6 1.3-2.2 0 0 0-.1-.1-.3 0-.2-.1-.4-.2-.6l-.2-.8c-.6 0-1-.1-1.4-.4-.4-.2-.7-.5-.9-.8-.2-.3-.4-.6-.5-.8-.1-.2-.1-.4-.1-.4-.2 1 0 1.9.4 2.4.4.6.9 1 1.4 1.2z"/><path class="st0" d="M41.6 97.8c-1.1.7-1.2 2-1.2 2.3-.1-1.1.2-1.6.5-1.9.4-.3.7-.4.7-.4zM41.4 97s-.3.1-.8.1c-.2 0-.5-.1-.7-.4-.1-.1-.3-.2-.4-.4l-.3-.6c.1.1.3.5.7.8.4.3.9.5 1.5.5zM38.4 97.7l-1 .6-1 .6s.6 0 1.2-.1c.6 0 1.2-.1 1.2-.1.3-.6.9-.8.9-.8s-.7.1-1.3-.2zm0-1.9c.2.8.6 1.3.9 1.6.3.3.6.4.6.4s-.2.2-.3.7c-.1.4-.2 1.1 0 1.8 0 0-.4-.3-.5-1 0 0-.6.1-1.3.2-.7 0-1.5 0-2.1-.5.5-1.4 2.7-2.1 2.7-2.1-.1-.3-.1-.6-.1-.8.1-.2.1-.3.1-.3z"/><path class="st0" d="M39.5 92.7c-.4.4-.7 1-.8 1.7-.1.7.1 1.5.7 2.3 0 0 0-.1-.1-.4 0-.2 0-.6.1-.9.1-.7.5-1.6 1.6-2.1l-.3-1.7c-1.1-.1-1.8-.8-2.2-1.4-.2-.3-.3-.6-.4-.9-.1-.2-.1-.4-.1-.4-.2.5-.2 1-.2 1.4 0 .4.1.8.3 1.1.1.3.3.6.6.8.3.2.6.4.8.5z"/><path class="st0" d="M40.5 93c-.5.3-.9.7-1.1 1.2-.2.4-.3.9-.3 1 0-.5.1-.9.2-1.2.1-.3.3-.5.5-.7.3-.2.7-.3.7-.3zM40.4 92.3s-.3.1-.8 0c-.2-.1-.5-.2-.7-.4-.2-.2-.4-.6-.6-1.1.1.1.3.5.6.8.3.3.9.6 1.5.7zM37.3 92.6s-.5.2-1.1.4c-.5.2-1.1.5-1.1.5s.6 0 1.2.1h1.2c.4-.5.9-.7.9-.7s-.6.1-1.1-.3zm.2-1.9c.1.8.4 1.3.8 1.7.3.3.6.5.6.5s-.2.2-.4.6c-.1.2-.2.5-.2.8 0 .3 0 .7.1 1 0 0-.4-.3-.4-1 0 0-2.3.3-3.3-.7.3-.7 1-1.1 1.7-1.4.6-.3 1.2-.4 1.2-.4-.3-.6-.1-1.1-.1-1.1z"/><path class="st0" d="M38.9 87.7c-.4.4-.8.9-.9 1.6-.1.7 0 1.5.5 2.4 0 0 0-.6.2-1.3.1-.4.3-.7.6-1.1.3-.3.7-.6 1.2-.8 0 0 0-.4-.1-.9V87v-.3c-1.1-.2-1.7-1-2-1.7-.2-.3-.2-.7-.3-.9v-.4c-.4 1-.4 1.8-.2 2.5.1.3.3.6.5.8.1.4.3.6.5.7z"/><path class="st0" d="M39.9 88.2c-.6.2-1 .6-1.2 1-.3.4-.4.8-.4 1 0-.5.2-.9.3-1.2.2-.3.4-.5.6-.6.3-.2.7-.2.7-.2zM39.8 87.4s-.4.1-.8-.1-.9-.6-1.1-1.7c.1.3.7 1.5 1.9 1.8zM36.7 87.4s-.6.2-1.1.3c-.6.2-1.1.3-1.1.3l1.2.2 1.2.2c.4-.5 1-.6 1-.6s-.7 0-1.2-.4zm.4-1.8c0 .8.3 1.4.6 1.7.3.4.5.5.5.5s-.2.2-.4.6c-.2.4-.4 1-.4 1.8 0 0-.1-.1-.2-.3-.1-.2-.2-.4-.1-.8 0 0-2.3.1-3.2-1 .4-.6 1.1-1 1.8-1.2.7-.2 1.2-.3 1.2-.3-.1-.6.2-1 .2-1z"/><path class="st0" d="M38.8 82.7c-.4.3-.9.8-1.1 1.5-.1.3-.2.7-.1 1.1 0 .4.1.9.3 1.4 0 0 0-.6.3-1.3.3-.7.9-1.4 2-1.7v-.9-.9c-1.1-.4-1.6-1.1-1.8-1.9-.1-.4-.1-.7-.2-.9v-.4c-.3.5-.4.9-.5 1.3-.1.4 0 .8 0 1.1.3.7.7 1.3 1.1 1.6z"/><path class="st0" d="M39.7 83.3c-1.2.3-1.8 1.5-1.9 1.8.1-.5.3-.9.5-1.2.2-.3.4-.4.6-.5.5-.2.8-.1.8-.1zM39.8 82.5s-.4 0-.8-.2-.8-.7-.9-1.8c.1.3.5 1.6 1.7 2zM36.7 82.2s-.6.1-1.1.2c-.6.1-1.1.2-1.1.2s.6.2 1.1.3c.6.1 1.1.3 1.1.3.5-.4 1.1-.5 1.1-.5s-.7-.1-1.1-.5zm.6-1.8c0 .8.2 1.4.4 1.8.2.4.5.6.5.6l-.5.5c-.2.4-.5.9-.6 1.7 0 0-.1-.1-.1-.3-.1-.2-.1-.5 0-.8 0 0-2.3-.2-3.1-1.4.4-.6 1.3-.8 1.9-1 .7-.1 1.3-.1 1.3-.1-.1-.7.2-1 .2-1z"/><path class="st0" d="M39.3 77.7c-.5.3-.9.7-1.2 1.3-.3.6-.4 1.4-.1 2.5 0 0 .1-.6.4-1.3.3-.7 1-1.3 2.1-1.5 0 0 .1-.4.1-.9.1-.4.2-.9.2-.9-1-.5-1.5-1.3-1.6-2-.1-.7 0-1.3 0-1.3-.3.4-.5.9-.6 1.3-.1.4-.1.8-.1 1.1.1.8.4 1.3.8 1.7z"/><path class="st0" d="M40.1 78.4c-1.2.1-1.9 1.3-2 1.6.3-1 .8-1.4 1.3-1.6.4-.1.7 0 .7 0zM40.3 77.6s-.4 0-.7-.3c-.4-.3-.7-.8-.7-1.9 0 .4.3 1.7 1.4 2.2zM37.3 76.9s-.6 0-1.2.1c-.6 0-1.2.1-1.2.1s.5.2 1.1.4c.5.2 1.1.4 1.1.4.5-.4 1.1-.3 1.1-.3s-.6-.1-.9-.7zm.7-1.7c-.1.8 0 1.4.2 1.8.2.4.4.6.4.6s-.3.1-.5.5c-.3.3-.6.9-.7 1.7 0 0-.3-.4-.1-1.1 0 0-2.2-.4-2.9-1.7.5-.5 1.4-.7 2-.8.7-.1 1.3 0 1.3 0 0-.6.3-1 .3-1z"/><path class="st0" d="M40.3 72.9c-.5.2-1 .6-1.4 1.2-.2.3-.3.6-.4 1-.1.4 0 .9.1 1.4 0 0 .1-.6.6-1.2.4-.6 1.2-1.2 2.3-1.2 0 0 0-.1.1-.3 0-.2.1-.4.2-.6l.2-.8c-1-.6-1.3-1.5-1.4-2.2-.1-.7.1-1.3.1-1.3-.7.8-1 1.6-.9 2.3-.1.6.2 1.2.5 1.7z"/><path class="st0" d="M41.1 73.6c-1.2 0-2 1.1-2.2 1.4.4-1 1-1.3 1.4-1.4.4-.2.8 0 .8 0zM41.3 72.8s-.4-.1-.7-.4c-.3-.3-.7-.9-.5-1.9 0 .3.1 1.7 1.2 2.3zM38.4 71.8s-.6 0-1.2-.1c-.6 0-1.2-.1-1.2-.1s.5.3 1 .5c.5.3 1 .5 1 .5.3-.2.6-.2.8-.2h.4s-.5 0-.8-.6zm.9-1.6c-.2.8-.1 1.4 0 1.8.1.4.3.7.3.7s-.1 0-.2.1-.3.2-.4.3c-.3.3-.7.8-.9 1.6 0 0-.2-.5 0-1.1 0 0-.5-.2-1.2-.5-.6-.3-1.3-.9-1.6-1.5 1.1-.9 3.4-.4 3.4-.4.1-.4.2-.6.3-.8.2-.1.3-.2.3-.2z"/><path class="st0" d="M41.9 68.1c-.5.2-1.1.5-1.5 1-.2.3-.4.6-.5 1-.1.2-.1.4-.1.6v.7s0-.1.2-.4c.1-.2.3-.5.5-.8.5-.6 1.3-1.1 2.4-.9l.6-1.6c-.9-.7-1.1-1.6-1.1-2.3 0-.4.1-.7.1-.9.1-.2.1-.4.1-.4-.8.7-1.1 1.5-1.2 2.1 0 .8.2 1.4.5 1.9z"/><path class="st0" d="M42.5 68.9c-1.2-.1-2.1.9-2.3 1.1.5-.9 1.1-1.2 1.6-1.2.4-.1.7.1.7.1zM42.8 68.2s-.3-.1-.6-.4c-.3-.3-.6-1-.3-2 0 .2 0 .6.1 1 .1.5.3 1 .8 1.4zM40 66.9l-1.2-.2-1.2-.2s.5.3 1 .7l1 .6c.6-.3 1.2-.1 1.2-.1s-.5-.2-.8-.8zm1.2-1.5c-.3.7-.3 1.4-.2 1.8.1.4.2.7.2.7s-.3.1-.7.3c-.4.3-.8.7-1.1 1.5 0 0-.2-.5.2-1.1 0 0-.5-.2-1.1-.6-.6-.4-1.2-1-1.4-1.7 1.2-.8 3.4 0 3.4 0 .1-.3.3-.6.4-.7.2-.2.3-.2.3-.2z"/><path class="st0" d="M43.9 63.5c-.5.1-1.1.4-1.6.8-.5.5-.8 1.2-.8 2.3v-.1c0-.1.1-.1.1-.2.1-.2.3-.5.6-.7.6-.5 1.4-.9 2.5-.7l.8-1.5c-.8-.8-.9-1.7-.9-2.5 0-.4.1-.7.2-.9l.2-.4c-.9.6-1.3 1.3-1.4 2-.1.8.1 1.4.3 1.9z"/><path class="st0" d="M44.5 64.4c-.6-.1-1.2 0-1.6.2-.4.2-.7.5-.8.6.6-.9 1.2-1.1 1.7-1.1.4.1.7.3.7.3zM44.8 63.7s-.3-.1-.6-.5-.4-1-.1-2c0 .3-.2 1.7.7 2.5zM42.2 62.1s-.6-.2-1.1-.3c-.6-.2-1.1-.3-1.1-.3s.4.4.9.8c.4.4.9.8.9.8.6-.2 1.1 0 1.1 0s-.5-.4-.7-1zm1.3-1.4c-.4.7-.5 1.3-.4 1.8 0 .5.2.7.2.7s-.3 0-.7.3c-.2.1-.4.3-.6.5-.2.2-.4.5-.6.9v-.3c0-.2.1-.5.3-.8 0 0-2-1.1-2.2-2.6.6-.3 1.5-.2 2.2-.1.7.2 1.2.4 1.2.4.2-.6.6-.8.6-.8z"/><path class="st0" d="M46.4 59.2c-.5.1-1.2.2-1.7.7-.1.1-.3.2-.4.4-.1.1-.2.3-.3.5-.2.4-.3.8-.4 1.3 0 0 .3-.5.9-1 .6-.4 1.5-.8 2.6-.4 0 0 .2-.4.5-.7.1-.2.2-.4.3-.5l.2-.2c-.7-.9-.8-1.8-.6-2.5.2-.7.5-1.2.5-1.2-.5.3-.8.6-1.1.9-.3.3-.4.6-.5 1-.2.6-.2 1.2 0 1.7z"/><path class="st0" d="M46.9 60.2c-1.2-.4-2.3.4-2.5.6.7-.8 1.4-.9 1.8-.9.4 0 .7.3.7.3zM47.3 59.5s-.3-.2-.5-.6c-.2-.4-.3-1 .1-2-.1.3-.4 1.7.4 2.6zM44.9 57.6s-.5-.2-1.1-.4c-.5-.2-1.1-.4-1.1-.4s.4.4.8.9l.8.8c.6-.1 1.1.2 1.1.2s-.1-.1-.2-.3c-.1-.2-.3-.5-.3-.8zm1.4-1.2c-.4.7-.6 1.3-.6 1.7v.7s-.3 0-.7.2c-.4.2-.9.5-1.4 1.2v-.3c0-.2.1-.4.4-.7 0 0-1.9-1.3-1.9-2.8.7-.3 1.5-.1 2.2.2.7.3 1.1.6 1.1.6.5-.7.9-.8.9-.8z"/><path class="st0" d="M49.4 55.2c-.6 0-1.2.1-1.8.5-.3.2-.6.4-.8.8-.2.3-.4.8-.5 1.3 0 0 .4-.5 1-.9.7-.4 1.6-.6 2.6-.1l.2-.2c.1-.1.2-.3.4-.5.3-.3.6-.7.6-.7-.6-.9-.6-1.9-.3-2.6.3-.7.7-1.2.7-1.2-1 .4-1.5 1-1.8 1.7-.4.7-.4 1.4-.3 1.9z"/><path class="st0" d="M49.8 56.2c-1.1-.5-2.3.1-2.6.3.8-.7 1.4-.8 1.9-.7.4.1.7.4.7.4zM50.3 55.6s-.3-.2-.5-.6c-.2-.4-.2-1.1.3-2-.1.3-.5 1.6.2 2.6zM48 53.5l-1-.6c-.5-.3-1-.5-1-.5s.4.5.7.9c.4.5.7.9.7.9.3 0 .6 0 .8.1.2.1.3.2.3.2s-.4-.4-.5-1zm1.6-1.1c-.5.6-.7 1.2-.8 1.7-.1.4 0 .7 0 .7h-.2c-.1 0-.3 0-.5.1-.4.1-1 .4-1.5 1 0 0 0-.5.5-1 0 0-.4-.4-.8-1s-.8-1.3-.8-2.1c1.4-.3 3.2 1.1 3.2 1.1.4-.4.9-.5.9-.5z"/><path class="st0" d="M52.8 51.6c-.5-.1-1.2 0-1.8.3-.3.2-.6.4-.9.7-.1.2-.3.3-.4.5-.1.2-.2.4-.3.7l.3-.3c.2-.2.5-.3.8-.5.7-.3 1.6-.4 2.6.2l1.2-1.2c-.5-1-.4-1.9 0-2.6.2-.3.3-.6.5-.8l.3-.3c-.5.1-.9.4-1.2.6-.3.3-.6.5-.7.8-.4.7-.5 1.3-.4 1.9z"/><path class="st0" d="M53 52.6c-1.1-.6-2.3-.1-2.6 0 .9-.6 1.5-.6 1.9-.5.5.2.7.5.7.5zM53.6 52s-.3-.2-.4-.7c-.1-.4-.1-1.1.5-1.9-.1.1-.3.5-.4 1 0 .5 0 1.1.3 1.6zM51.6 49.7s-.5-.3-1-.7c-.5-.3-1-.7-1-.7l.6 1 .6 1c.6 0 1.1.4 1.1.4s-.3-.4-.3-1zm1.7-.9c-.3.3-.5.5-.7.8-.1.3-.2.5-.3.7-.1.4-.1.7-.1.7h-.7c-.4.1-1 .3-1.6.9 0 0 .1-.5.6-.9 0 0-1.5-1.7-1.3-3.2 1.4-.2 3.1 1.4 3.1 1.4.5-.4 1-.4 1-.4z"/><path class="st0" d="M56.5 48.3c-.5-.1-1.2-.2-1.8.1-.6.3-1.2.8-1.7 1.7 0 0 .1-.1.3-.2.2-.1.5-.3.9-.4s.8-.2 1.2-.1c.4.1.9.2 1.3.6 0 0 .3-.3.7-.5.2-.1.3-.3.5-.4l.2-.2c-.4-1.1-.1-2 .2-2.6.2-.3.4-.6.6-.7l.3-.3c-1.1.2-1.7.7-2.1 1.2-.2.3-.3.6-.4.9-.1.3-.2.6-.2.9z"/><path class="st0" d="M56.7 49.4c-.5-.4-1.1-.5-1.5-.5-.5 0-.9.1-1 .2.9-.5 1.6-.4 2-.2.3.1.5.5.5.5zM57.3 48.9s-.2-.3-.3-.7c-.1-.5 0-1.1.7-1.9-.1.3-.9 1.4-.4 2.6zM55.6 46.3s-.4-.4-.9-.8c-.4-.4-.9-.8-.9-.8s.2.5.5 1.1c.2.5.5 1.1.5 1.1.6.1 1 .5 1 .5s-.3-.5-.2-1.1zm1.7-.7c-.6.5-1 1-1.1 1.4-.2.4-.1.7-.1.7s-.3-.1-.7 0c-.4 0-1.1.2-1.7.7 0 0 0-.1.1-.3s.3-.4.6-.6c0 0-1.3-1.9-.9-3.3.7 0 1.4.4 2 .9l.9.9c.4-.4.9-.4.9-.4z"/><path class="st0" d="M60.6 45.5c-.5-.2-1.1-.3-1.8-.1-.7.2-1.3.6-1.9 1.5 0 0 .5-.3 1.2-.5.4-.1.8-.1 1.2 0 .4.1.9.3 1.3.7 0 0 .4-.2.7-.5.4-.2.7-.4.7-.4-.3-1.1.1-2 .5-2.6.5-.6 1-.9 1-.9-1 .1-1.8.5-2.2 1-.4.6-.6 1.2-.7 1.8z"/><path class="st0" d="M60.7 46.5c-.9-.8-2.2-.6-2.5-.6 1-.4 1.6-.2 2 0 .3.3.5.6.5.6zM61.3 46.1s-.2-.3-.2-.7c0-.5.1-1.1.9-1.8-.2.3-1 1.3-.7 2.5zM59.9 43.4s-.4-.4-.8-.9c-.4-.4-.8-.9-.8-.9s.2.6.4 1.1c.2.6.4 1.1.4 1.1.6.1 1 .6 1 .6s-.4-.4-.2-1zm1.8-.5c-.7.4-1 .9-1.2 1.3-.2.4-.2.7-.2.7s-.3-.1-.7-.1c-.4 0-1.1.1-1.7.5 0 0 0-.1.2-.3.1-.2.3-.3.6-.5 0 0-1.1-2-.6-3.4 1.5.1 2.7 2.1 2.7 2.1.4-.4.9-.3.9-.3z"/><path class="st0" d="M65 43.1c-.2-.1-.5-.2-.8-.3-.3-.1-.6-.1-1 0-.3.1-.7.2-1 .4-.4.2-.7.5-1 .9 0 0 .1-.1.4-.2.2-.1.5-.2.9-.2.7 0 1.7.1 2.4 1l.8-.4.8-.4c-.1-.6 0-1.1.1-1.5.2-.4.4-.7.7-1 .5-.5 1.1-.8 1.1-.8-1 0-1.8.3-2.3.7-.7.7-1 1.3-1.1 1.8z"/><path class="st0" d="M64.9 44.2c-.8-.9-2.1-.8-2.4-.8 1-.3 1.6-.1 2 .2.3.2.4.6.4.6zM65.6 43.8s-.2-.3-.2-.8c0-.2.1-.5.2-.8.2-.3.4-.6.9-.9-.2.3-1.1 1.3-.9 2.5zM64.5 40.9s-.4-.5-.7-.9c-.4-.5-.7-.9-.7-.9s.1.6.2 1.1c.1.6.3 1.1.3 1.1.6.2.9.7.9.7s-.2-.5 0-1.1zm1.8-.2c-.2.1-.3.2-.5.3-.1.1-.3.2-.4.3-.2.2-.4.4-.5.6-.2.4-.3.7-.3.7s-.3-.1-.7-.2c-.4 0-1.1 0-1.8.3 0 0 .2-.5.9-.7 0 0-.2-.5-.4-1.2-.1-.7-.2-1.6.2-2.2 1.4.3 2.4 2.4 2.4 2.4.3-.2.6-.3.8-.3.2-.1.3 0 .3 0z"/><path class="st0" d="M69.6 41.3c-.5-.3-1.1-.6-1.7-.5-.3 0-.7.1-1.1.3-.4.2-.8.4-1.1.8 0 0 .6-.2 1.3-.2.7 0 1.6.3 2.3 1.2l1.6-.5c-.1-1.2.5-1.9 1.1-2.4.3-.2.6-.4.8-.5.2-.1.4-.1.4-.1-.5-.1-1-.1-1.4 0-.4.1-.7.2-1 .4-.7.4-1 .9-1.2 1.5z"/><path class="st0" d="M69.4 42.3c-.7-1-2-1.1-2.3-1.1 1-.2 1.6.1 1.9.4.3.3.4.7.4.7zM70.1 42s-.2-.3-.1-.8.4-1.1 1.3-1.5c-.1.1-.5.4-.7.7-.3.5-.5 1-.5 1.6zM69.3 39l-.6-1-.6-1s.1.6.1 1.2c.1.6.1 1.2.1 1.2.6.3.8.8.8.8s-.1-.6.2-1.2zm1.9 0c-.4.1-.7.3-.9.4l-.6.6c-.3.4-.4.6-.4.6s-.2-.2-.7-.3c-.4-.1-1.1-.1-1.8.1 0 0 .3-.4.9-.6 0 0-.2-.6-.2-1.3-.1-.7 0-1.5.4-2.1 1.4.4 2.2 2.6 2.2 2.6.6-.2 1.1 0 1.1 0z"/><path class="st0" d="M74.3 39.9c-.4-.3-1-.6-1.7-.7-.7 0-1.5.2-2.3.8 0 0 .1 0 .4-.1h.9c.4.1.8.2 1.1.4.4.2.7.6 1 1.1l.8-.2c.2 0 .4-.1.6-.1.2 0 .3-.1.3-.1.1-1.1.7-1.8 1.3-2.2.3-.2.6-.3.8-.4.2-.1.4-.1.4-.1-1-.3-1.8-.1-2.4.2-.3.2-.5.4-.8.6-.1.3-.2.6-.4.8z"/><path class="st0" d="M74 40.9c-.3-.5-.8-.9-1.2-1.1-.4-.2-.9-.2-1-.3 1-.1 1.6.3 1.9.6.3.5.3.8.3.8zM74.8 40.7s-.1-.3 0-.8.5-1 1.5-1.4c-.3.3-1.4 1-1.5 2.2zM74.3 37.7s-.2-.5-.5-1.1c-.2-.5-.5-1.1-.5-1.1v2.4c.5.3.7.9.7.9s0-.6.3-1.1zm1.9.1c-.8.2-1.3.5-1.6.8-.3.3-.4.6-.4.6s-.2-.2-.6-.3c-.4-.2-1-.3-1.8-.1l.2-.2c.2-.1.4-.2.8-.3 0 0-.4-2.3.5-3.4.7.3 1.1 1 1.4 1.6.3.6.4 1.2.4 1.2.7-.1 1.1.1 1.1.1z"/><path class="st0" d="M79.2 39.1c-.4-.4-.9-.7-1.6-.9-.2 0-.3-.1-.5-.1s-.4 0-.6.1c-.4.1-.8.3-1.3.5 0 0 .6-.1 1.3.1.7.2 1.5.7 1.9 1.7 0 0 .4-.1.8-.1.2 0 .4-.1.6-.1h.3c.2-1.1.9-1.8 1.5-2.1.8-.2 1.4-.2 1.4-.2-.5-.2-.9-.3-1.4-.3-.4 0-.8.1-1.1.2-.5.3-1 .7-1.3 1.2z"/><path class="st0" d="M78.8 40.1c-.4-1.1-1.7-1.5-2.1-1.6 1 0 1.6.5 1.8.8.3.4.3.8.3.8zM79.6 40s-.1-.4.1-.8.6-.9 1.6-1.2c-.3.1-1.5.8-1.7 2zM79.5 36.9s-.2-.6-.4-1.1c-.2-.6-.4-1.1-.4-1.1s-.1.6-.1 1.2c-.1.6-.1 1.2-.1 1.2.5.4.6 1 .6 1v-.4c.1-.3.2-.6.4-.8zm1.8.3c-.8.1-1.3.4-1.7.6-.2.1-.3.3-.4.4-.1.1-.1.2-.1.2s-.2-.2-.6-.4c-.4-.2-1-.4-1.8-.3 0 0 .1-.1.3-.2.2-.1.4-.2.8-.2 0 0-.2-2.3.9-3.3.6.4 1 1.1 1.2 1.8.2.7.3 1.2.3 1.2.7-.1 1.1.2 1.1.2z"/><path class="st0" d="M84.2 38.8c-.3-.4-.8-.8-1.5-1-.3-.1-.7-.2-1.1-.1-.4.1-.8.2-1.3.4 0 0 .6 0 1.3.2.7.3 1.5.8 1.7 1.9h1.8c.3-1.1 1.1-1.7 1.8-1.9.7-.2 1.3-.2 1.3-.2-.5-.2-.9-.4-1.3-.4-.4-.1-.8 0-1.1.1-.8.2-1.3.6-1.6 1z"/><path class="st0" d="M83.7 39.7c-.3-1.2-1.6-1.7-1.9-1.8 1 .2 1.5.6 1.7 1 .2.5.2.8.2.8zM84.5 39.7s0-.4.2-.8.7-.9 1.7-1c-.4.2-1.6.7-1.9 1.8zM84.6 36.6l-.2-1.2c-.1-.6-.3-1.2-.3-1.2s-.1.6-.3 1.2l-.2 1.2c.5.5.5 1 .5 1s.1-.5.5-1zm1.8.6c-.8 0-1.4.2-1.7.5-.4.2-.6.5-.6.5s-.2-.2-.6-.5c-.4-.2-1-.5-1.7-.5 0 0 .4-.3 1.1-.2 0 0 .1-2.3 1.2-3.2 1.2.9 1.2 3.2 1.2 3.2.8-.1 1.1.2 1.1.2z"/><path class="st0" d="M89.1 39.1c-.3-.5-.7-.9-1.4-1.2-.3-.1-.7-.2-1.1-.2-.4 0-.9.1-1.4.3 0 0 .6 0 1.3.4.7.4 1.4 1 1.5 2.1h.3c.2 0 .4 0 .6.1.4.1.8.1.8.1.4-1.1 1.2-1.6 2-1.7.7-.2 1.3-.1 1.3-.1-.4-.3-.9-.5-1.3-.6-.2 0-.4-.1-.6-.1h-.5c-.6.2-1.1.5-1.5.9z"/><path class="st0" d="M88.5 40c-.2-1.2-1.4-1.8-1.7-2 1 .3 1.4.8 1.6 1.2.2.4.1.8.1.8zM89.3 40s0-.4.2-.7c.3-.4.8-.8 1.8-.8-.3 0-1.6.4-2 1.5zM89.8 37s-.1-.6-.1-1.2c-.1-.6-.1-1.2-.1-1.2s-.2.6-.4 1.1c-.2.6-.4 1.1-.4 1.1.2.2.3.5.3.7v.4s.2-.5.7-.9zm1.7.7c-.8-.1-1.4.1-1.8.3-.4.2-.6.4-.6.4s0-.1-.1-.2l-.4-.4c-.3-.3-.9-.6-1.7-.7 0 0 .4-.3 1.1-.1 0 0 .1-.6.3-1.2.2-.7.6-1.4 1.3-1.8 1.1 1 .9 3.3.9 3.3.3 0 .6.1.8.2.2.1.2.2.2.2z"/><path class="st0" d="M94 39.9c-.1-.3-.3-.5-.5-.8-.2-.2-.5-.4-.7-.6-.6-.3-1.4-.5-2.4-.2 0 0 .1 0 .4.1.2.1.5.2.8.4.6.4 1.2 1.1 1.3 2.3 0 0 .1 0 .3.1.2 0 .4.1.6.1l.8.2c.3-.5.6-.9 1-1.1.4-.2.8-.3 1.1-.4.4-.1.7 0 .9 0 .2 0 .4.1.4.1-.8-.7-1.6-.9-2.3-.9-.7.1-1.3.4-1.7.7z"/><path class="st0" d="M93.3 40.7c-.1-1.2-1.2-2-1.5-2.2 1 .4 1.3.9 1.5 1.4.1.5 0 .8 0 .8zM94.1 40.9s0-.4.3-.7c.1-.2.4-.3.7-.5.3-.1.7-.2 1.2-.2-.3 0-1.7.3-2.2 1.4zM94.9 37.9v-1.2-1.2s-.2.5-.5 1.1c-.2.5-.5 1.1-.5 1.1.3.6.3 1.1.3 1.1s.2-.6.7-.9zm1.7.9c-.8-.2-1.4-.1-1.8.1l-.6.3s-.1-.3-.4-.6c-.3-.3-.8-.7-1.6-.8 0 0 .4-.2 1.1 0 0 0 .1-.6.5-1.2.3-.6.8-1.4 1.4-1.6 1 1.1.5 3.4.5 3.4.3 0 .6.2.8.3l.1.1z"/><path class="st0" d="M98.8 41.3c-.2-.5-.5-1.1-1.1-1.5-.3-.2-.6-.3-1-.4-.4-.1-.9-.1-1.4 0 0 0 .1 0 .4.1.2.1.5.3.8.5.6.5 1.1 1.2 1 2.4l1.6.6c.6-1 1.5-1.2 2.3-1.2.7 0 1.3.2 1.3.2-.4-.4-.7-.7-1.1-.8-.4-.2-.7-.3-1.1-.3-.7-.2-1.3.1-1.7.4z"/><path class="st0" d="M98 42c0-.6-.2-1.2-.5-1.6-.3-.4-.6-.7-.7-.8.5.2.8.5 1 .8.2.3.3.5.3.8 0 .4-.1.8-.1.8zM98.7 42.2s.1-.4.4-.7c.2-.2.4-.3.7-.4.3-.1.7-.1 1.2 0-.2 0-.6 0-1 .1-.4.2-.9.5-1.3 1zM99.9 39.3s.1-.6.1-1.2c.1-.6.1-1.2.1-1.2l-.6 1-.6 1c.3.6.1 1.2.1 1.2s.3-.5.9-.8zm1.5 1.1c-.4-.1-.7-.2-1-.2-.3 0-.6 0-.8.1-.4.1-.7.3-.7.3s-.1-.3-.4-.6c-.1-.2-.3-.4-.6-.6-.2-.2-.6-.3-.9-.5 0 0 .5-.2 1.1.1 0 0 .2-.5.6-1.1.4-.6.9-1.2 1.6-1.5.4.6.5 1.4.4 2.1-.1.7-.2 1.3-.2 1.3.7.2.9.6.9.6z"/><path class="st0" d="M103.4 43.1c-.1-.5-.4-1.1-.9-1.6s-1.3-.8-2.3-.8c0 0 .6.3 1.1.8.3.3.5.6.7 1 .2.4.2.9.1 1.5l.8.4c.2.1.4.2.5.2.1.1.2.1.2.1.7-.9 1.7-1 2.4-1 .4 0 .7.1.9.2l.4.2c-.3-.4-.7-.7-1-1-.4-.2-.7-.3-1-.4-.3-.1-.7 0-1 0-.4.2-.7.3-.9.4z"/><path class="st0" d="M102.5 43.7c.1-.6-.1-1.2-.3-1.6-.2-.4-.5-.7-.6-.8.2.1.4.3.5.4.1.2.3.3.3.4.2.3.2.6.2.8.1.5-.1.8-.1.8zM103.2 44.1s.1-.3.5-.6 1-.5 2-.2c-.3-.1-1.7-.2-2.5.8zM104.7 41.3s.1-.6.3-1.1c.1-.6.3-1.1.3-1.1s-.4.5-.7.9c-.4.5-.7.9-.7.9.2.6 0 1.2 0 1.2s.2-.5.8-.8zm1.4 1.3c-.7-.3-1.3-.4-1.8-.3-.4.1-.7.2-.7.2s-.1-.3-.3-.7c-.2-.4-.7-.9-1.4-1.2h.3c.2 0 .5.1.8.3 0 0 1-2.1 2.5-2.3.4.6.3 1.5.1 2.2-.1.7-.4 1.2-.4 1.2.7.1.9.6.9.6z"/><path class="st0" d="M107.7 45.5c-.1-.6-.3-1.2-.7-1.7-.4-.5-1.2-.9-2.2-1 0 0 .5.3 1 .9.5.6.8 1.5.5 2.6 0 0 .4.2.7.4.4.2.7.5.7.5.4-.4.9-.6 1.3-.7.4-.1.9-.1 1.2 0 .7.2 1.2.5 1.2.5-.6-.9-1.2-1.4-1.9-1.6-.6-.2-1.3-.1-1.8.1z"/><path class="st0" d="M106.8 46c.3-1.2-.5-2.3-.7-2.5.8.7 1 1.3.9 1.8 0 .4-.2.7-.2.7zM107.5 46.4s.1-.3.5-.6c.4-.2 1-.4 2 0-.3 0-1.6-.2-2.5.6zM109.2 43.9s.2-.6.4-1.1c.2-.6.4-1.1.4-1.1s-.4.4-.8.9c-.4.4-.8.9-.8.9.2.6-.1 1.1-.1 1.1s.3-.6.9-.7zm1.3 1.4c-.7-.4-1.3-.5-1.7-.5-.4 0-.7.1-.7.1s0-.3-.2-.7c-.2-.4-.6-.9-1.2-1.3 0 0 .5-.1 1 .4 0 0 1.3-1.9 2.7-2.1.5 1.4-.6 3.4-.6 3.4.6.2.7.7.7.7z"/><path class="st0" d="M111.8 48.3c0-.3 0-.6-.1-.9-.1-.3-.2-.6-.4-.9-.4-.6-1.1-1-2.1-1.2l.3.3c.2.2.4.4.6.7.4.6.6 1.6.2 2.6l.2.2c.1.1.3.2.5.4.3.3.7.5.7.5.5-.3.9-.5 1.4-.6.4 0 .8 0 1.2.1.4.1.6.3.9.4.2.1.3.2.3.2-.5-1-1.1-1.5-1.7-1.8-.8-.1-1.5-.1-2 0z"/><path class="st0" d="M110.8 48.7c.5-1.1-.2-2.3-.4-2.6.7.8.8 1.4.7 1.9 0 .5-.3.7-.3.7zM111.5 49.2s.2-.3.6-.5c.2-.1.5-.2.8-.1.3 0 .7.1 1.2.4-.4-.2-1.7-.5-2.6.2zM113.5 46.9s.3-.5.5-1.1c.2-.5.5-1.1.5-1.1s-.4.4-.9.7c-.4.4-.9.8-.9.8.1.7-.2 1.1-.2 1.1s.4-.3 1-.4zm1.1 1.5c-.6-.5-1.2-.7-1.7-.7h-.7s0-.3-.1-.7c-.2-.4-.5-1-1.1-1.4 0 0 .5 0 1 .5l.9-.9c.5-.4 1.3-.9 2-.9.4 1.4-1 3.3-1 3.3.3.2.5.4.6.6.1.1.1.2.1.2z"/><path class="st0" d="M115.5 51.6c0-.6 0-1.2-.4-1.8-.2-.3-.4-.6-.7-.8-.3-.3-.7-.5-1.2-.6l.3.3c.2.2.3.5.5.8.3.7.5 1.6-.1 2.6l1.2 1.2c1-.6 1.9-.4 2.6-.1.3.1.6.3.8.5l.3.3c-.1-.3-.2-.5-.3-.7-.1-.2-.2-.4-.4-.5-.3-.3-.6-.5-.8-.7-.5-.6-1.2-.6-1.8-.5z"/><path class="st0" d="M114.6 51.9c.3-.5.3-1.1.2-1.6-.1-.5-.3-.9-.3-1 .3.4.5.8.6 1.1.1.3 0 .6 0 .8-.3.5-.5.7-.5.7zM115.1 52.4s.2-.3.6-.4c.2-.1.5-.1.8-.1.3.1.7.2 1.1.5-.1-.1-.5-.2-1-.3-.4 0-1 0-1.5.3zM117.4 50.3l.6-1 .6-1-1 .6c-.5.3-1 .7-1 .7 0 .7-.4 1.1-.4 1.1s.5-.4 1.2-.4zm.9 1.7c-.6-.6-1.1-.8-1.6-.9-.4-.1-.7 0-.7 0s0-.3-.1-.7c-.1-.2-.1-.5-.3-.7-.2-.3-.4-.5-.6-.8 0 0 .5 0 .9.6 0 0 1.6-1.6 3.1-1.4.1.7-.2 1.5-.6 2.1-.4.6-.7 1-.7 1 .6.3.6.8.6.8z"/><path class="st0" d="M118.9 55.2c.1-.5.1-1.2-.2-1.8-.3-.6-.8-1.2-1.8-1.7 0 0 .4.5.6 1.2.3.7.3 1.7-.3 2.6 0 0 .3.3.6.7.1.2.3.3.4.5l.2.2c1-.5 1.9-.2 2.6.1.6.4 1 .9 1 .9-.1-.5-.3-.9-.5-1.3-.2-.3-.5-.6-.8-.8-.6-.5-1.2-.6-1.8-.6z"/><path class="st0" d="M117.9 55.4c.7-1 .3-2.3.2-2.6.3.4.4.8.4 1.2 0 .3 0 .6-.1.8-.2.4-.5.6-.5.6zM118.4 56s.2-.3.7-.4c.4-.1 1.1 0 1.9.7-.3-.1-1.5-.8-2.6-.3zM120.9 54.2s.4-.5.7-.9c.4-.5.7-.9.7-.9s-.5.3-1 .5c-.5.3-1 .5-1 .5-.1.6-.5 1.1-.5 1.1s.5-.4 1.1-.3zm.7 1.7c-.5-.6-1.1-.9-1.5-1.1-.2-.1-.4-.1-.5-.1h-.2s.1-.3 0-.7c0-.2-.1-.5-.2-.8-.1-.3-.3-.6-.5-.9 0 0 .5.1.9.7 0 0 1.8-1.4 3.2-1.1.1.7-.4 1.5-.8 2-.4.6-.8.9-.8.9.4.6.4 1.1.4 1.1z"/><path class="st0" d="M121.9 59.2c.2-.5.2-1.2 0-1.8-.1-.3-.3-.7-.5-1-.3-.3-.6-.6-1.1-.9 0 0 .4.5.5 1.2.2.7.1 1.7-.6 2.5l.2.2c.1.1.2.3.3.5.2.4.5.7.5.7 1.1-.4 2 0 2.6.4.6.4.9 1 .9 1-.1-.5-.2-1-.4-1.3-.1-.2-.2-.3-.3-.5-.1-.1-.2-.3-.4-.4-.5-.3-1.1-.5-1.7-.6z"/><path class="st0" d="M120.9 59.3c.8-.9.5-2.3.4-2.6.4 1 .3 1.6.1 2-.2.5-.5.6-.5.6zM121.3 60s.3-.2.7-.3c.4 0 1.1.1 1.8.9-.2-.2-1.3-1-2.5-.6zM124 58.4l.8-.8c.4-.4.8-.9.8-.9s-.5.2-1.1.4c-.5.2-1.1.4-1.1.4-.1.3-.2.6-.3.7-.1.2-.2.3-.2.3s.4-.2 1.1-.1zm.5 1.8c-.4-.7-1-1-1.4-1.2-.4-.2-.7-.2-.7-.2s.1-.3.1-.7c0-.4-.1-1.1-.6-1.7 0 0 .5.1.8.8 0 0 .5-.3 1.1-.5.7-.2 1.5-.4 2.2-.2-.1 1.5-2 2.8-2 2.8.2.3.3.5.4.7.1.1.1.2.1.2z"/><path class="st0" d="M124.4 63.5c.2-.5.4-1.2.2-1.8-.1-.7-.5-1.4-1.4-2 0 0 .1.1.2.4.1.2.2.5.2.9.1.7-.1 1.7-.9 2.4 0 0 .1.1.1.2.1.1.2.3.3.5l.4.8c1.1-.2 1.9.2 2.5.7.3.2.5.5.6.7.1.1.1.2.1.2v.1c0-1.1-.4-1.8-.8-2.3-.3-.4-.9-.6-1.5-.8z"/><path class="st0" d="M123.4 63.5c.9-.8.7-2.2.7-2.5.3 1 .2 1.6-.1 2-.3.4-.6.5-.6.5zM123.7 64.2s.3-.2.7-.2c.2 0 .5.1.8.2.3.2.6.4.9.9-.1-.1-.4-.4-.8-.6-.4-.3-1-.4-1.6-.3zM126.6 63s.5-.4.9-.7c.4-.4.9-.8.9-.8s-.6.1-1.1.3c-.6.2-1.1.3-1.1.3-.2.6-.7.9-.7.9s.5-.2 1.1 0zm.3 1.8c-.3-.7-.8-1.1-1.2-1.3-.4-.2-.7-.3-.7-.3s.1-.3.2-.7c0-.5 0-1.1-.4-1.8 0 0 .5.2.7.8 0 0 .5-.2 1.2-.4s1.5-.3 2.2.1c-.2 1.4-2.2 2.6-2.2 2.6.2.3.3.6.3.8-.1.1-.1.2-.1.2z"/><path class="st0" d="M126.5 68.1c.3-.5.5-1.1.4-1.8-.1-.7-.4-1.4-1.2-2.2 0 0 .1.1.1.4.1.2.1.6.1.9 0 .7-.2 1.7-1.1 2.3l.6 1.6c1.1-.1 1.9.4 2.4 1 .3.3.4.6.5.8l.2.4v-.7c0-.2-.1-.4-.1-.6-.1-.4-.3-.7-.5-1-.3-.6-.9-.9-1.4-1.1z"/><path class="st0" d="M125.4 68c.5-.4.8-.9.9-1.4.1-.5.1-.9.1-1 .2 1 0 1.6-.3 2-.3.3-.7.4-.7.4zM125.7 68.7s.3-.2.8-.1c.5 0 1 .3 1.6 1.2-.3-.2-1.1-1.2-2.4-1.1zM128.7 67.7l1-.6c.5-.3 1-.7 1-.7l-1.2.2-1.2.2c-.3.6-.8.8-.8.8s.6-.1 1.2.1zm.1 1.9c-.3-.7-.7-1.2-1.1-1.5-.4-.3-.6-.3-.6-.3s.2-.3.2-.7c0-.2.1-.5.1-.8 0-.3-.1-.6-.2-1l.2.2c.1.1.3.4.4.7 0 0 2.2-.8 3.4 0-.2.7-.8 1.3-1.4 1.7-.6.4-1.1.6-1.1.6.3.7.1 1.1.1 1.1z"/><path class="st0" d="M128 72.8c.3-.5.6-1 .6-1.7s-.2-1.5-.9-2.3c0 0 .2.6.1 1.3-.1.7-.4 1.6-1.4 2.2l.2.8c.1.2.1.4.1.6 0 .2.1.3.1.3 1.1 0 1.8.6 2.3 1.2.4.6.5 1.2.5 1.2.1-.5.1-1 .1-1.4-.1-.4-.2-.8-.4-1-.3-.5-.8-.9-1.3-1.2z"/><path class="st0" d="M127 72.6c1-.6 1.2-2 1.2-2.3.1.5 0 .9-.1 1.2-.1.3-.3.5-.4.7-.4.3-.7.4-.7.4zM127.2 73.4s.3-.1.8 0c.4.1 1 .4 1.4 1.4-.2-.3-1-1.4-2.2-1.4zM130.2 72.7s.5-.3 1-.5c.5-.3 1-.5 1-.5H131c-.6 0-1.2.1-1.2.1-.3.6-.9.8-.9.8s.8-.2 1.3.1zm0 1.9c-.2-.8-.6-1.3-.9-1.6-.2-.2-.3-.3-.4-.3-.1-.1-.2-.1-.2-.1s.2-.2.3-.7c.1-.4.2-1.1 0-1.8 0 0 .4.3.5 1 0 0 2.2-.5 3.4.4-.2.7-1 1.2-1.6 1.5-.6.3-1.2.5-1.2.5.3.7.1 1.1.1 1.1z"/><path class="st0" d="M129 77.7c.4-.4.7-1 .8-1.6 0-.3 0-.7-.1-1.1-.1-.4-.3-.8-.6-1.3 0 0 .1.6 0 1.3-.2.7-.6 1.6-1.6 2 0 0 .1.4.1.9.1.4.1.9.1.9 1.1.1 1.8.8 2.1 1.5.3.7.4 1.3.4 1.3.3-1 .3-1.8 0-2.5-.2-.6-.7-1.1-1.2-1.4z"/><path class="st0" d="M128 77.4c1.1-.5 1.4-1.8 1.5-2.1 0 1.1-.4 1.6-.8 1.9-.3.2-.7.2-.7.2zM128.2 78.2s.3-.1.8.1c.4.1.9.5 1.3 1.6-.3-.4-.9-1.6-2.1-1.7zM131.2 77.9s.5-.2 1.1-.4c.5-.2 1.1-.4 1.1-.4s-.6 0-1.2-.1c-.6 0-1.2-.1-1.2-.1-.4.5-.9.7-.9.7s.6-.1 1.1.3zm-.2 1.9c-.1-.8-.4-1.3-.7-1.7l-.5-.5s.2-.2.4-.6c.2-.4.3-1 .2-1.8 0 0 .4.3.4 1 0 0 2.3-.3 3.3.8-.7 1.3-3 1.7-3 1.7.1.6-.1 1.1-.1 1.1z"/><path class="st0" d="M129.5 82.7c.4-.4.8-.9 1-1.5.1-.3.1-.7.1-1.1-.1-.4-.2-.8-.5-1.3v.4c0 .2 0 .6-.2.9-.2.7-.8 1.5-1.8 1.8V83.7c1.1.3 1.7 1 2 1.7.3.7.3 1.3.3 1.3.2-.5.3-.9.4-1.3 0-.4 0-.8-.1-1.1-.3-.8-.8-1.2-1.2-1.6z"/><path class="st0" d="M128.6 82.3c1.2-.4 1.6-1.7 1.7-2-.1 1.1-.6 1.5-.9 1.8-.5.2-.8.2-.8.2zM128.6 83.1s.4-.1.8.1.9.6 1.1 1.7c-.2-.3-.7-1.6-1.9-1.8zM131.7 83.1s.6-.1 1.1-.3c.6-.2 1.1-.3 1.1-.3s-.6-.1-1.1-.2c-.6-.1-1.1-.2-1.1-.2-.4.5-1 .5-1 .5s.5.1 1 .5zm-.5 1.8c0-.8-.3-1.4-.5-1.7-.2-.4-.5-.5-.5-.5s.1 0 .1-.1c.1-.1.2-.2.3-.4.2-.4.4-1 .4-1.8 0 0 .3.4.3 1.1 0 0 .6 0 1.3.1.7.1 1.5.4 1.9 1-.8 1.2-3.1 1.4-3.1 1.4.1.3 0 .6-.1.8l-.1.1z"/><path class="st0" d="M129.4 87.7c.2-.2.5-.4.7-.6.2-.2.4-.5.5-.8.2-.6.3-1.5-.2-2.5v.4c0 .2-.1.6-.3.9-.3.7-.9 1.4-2 1.6V87.6c0 .4-.1.9-.1.9.5.2.9.5 1.2.8.3.3.4.7.6 1.1.2.7.2 1.3.2 1.3.5-.9.6-1.7.5-2.4a5 5 0 0 0-1.1-1.6z"/><path class="st0" d="M128.6 87.2c1.2-.2 1.8-1.5 1.9-1.8-.2 1-.7 1.5-1.1 1.7-.5.1-.8.1-.8.1zM128.5 88s.4 0 .7.2c.2.1.4.3.6.6.2.3.3.7.3 1.2 0-.3-.5-1.6-1.6-2zM131.5 88.4l1.2-.2 1.2-.2s-.6-.2-1.1-.3c-.6-.2-1.1-.3-1.1-.3-.5.4-1.1.4-1.1.4s.5.1.9.6zm-.6 1.7c.1-.8-.1-1.4-.3-1.8-.2-.4-.4-.6-.4-.6l.5-.5c.3-.4.5-.9.6-1.7 0 0 .3.4.2 1.1 0 0 .6.1 1.2.3.7.2 1.4.6 1.8 1.2-.9 1.1-3.2 1-3.2 1 0 .4-.1.6-.1.8-.2.1-.3.2-.3.2z"/><path class="st0" d="M128.8 92.7c.2-.1.5-.3.7-.5.2-.2.4-.5.6-.8.1-.3.2-.7.3-1.1 0-.4 0-.9-.2-1.4 0 0 0 .2-.1.4s-.2.5-.4.9c-.4.6-1 1.3-2.2 1.4l-.3 1.7c1 .5 1.4 1.3 1.5 2.1.1.4.1.7.1.9 0 .2-.1.4-.1.4.6-.9.8-1.7.7-2.3.1-.7-.2-1.3-.6-1.7z"/><path class="st0" d="M128 92c1.2-.1 1.9-1.3 2.1-1.6-.3 1-.8 1.4-1.3 1.5-.4.2-.8.1-.8.1zM127.9 92.8s.4 0 .7.3c.4.3.7.8.7 1.9 0-.2-.1-.6-.3-1-.2-.5-.6-.9-1.1-1.2zM130.9 93.5h1.2c.6 0 1.2-.1 1.2-.1s-.5-.2-1.1-.5c-.5-.2-1.1-.4-1.1-.4-.5.4-1.1.3-1.1.3s.5.2.9.7zm-.9 1.7c.1-.4.1-.7.1-1 0-.3-.1-.6-.2-.8-.2-.4-.4-.6-.4-.6s.3-.1.6-.5c.3-.3.6-.9.8-1.7 0 0 .3.4.1 1.1 0 0 .6.1 1.2.4.6.3 1.4.7 1.7 1.4-1 1-3.3.7-3.3.7-.2.7-.6 1-.6 1z"/><path class="st0" d="M127.7 97.6c.5-.2 1-.6 1.4-1.1.4-.6.5-1.4.4-2.4 0 0 0 .2-.1.4s-.2.5-.5.8c-.2.3-.5.6-.9.8-.4.2-.9.4-1.4.3l-.2.8c-.1.2-.1.4-.2.6 0 .2-.1.3-.1.3.9.6 1.3 1.5 1.3 2.2 0 .4 0 .7-.1.9 0 .2-.1.4-.1.4.7-.8 1-1.6 1-2.2.1-.8-.2-1.4-.5-1.8z"/><path class="st0" d="M127 96.8c.6 0 1.1-.2 1.5-.5.4-.3.6-.6.7-.8-.4 1-1 1.3-1.5 1.4-.4.1-.7-.1-.7-.1zM126.8 97.6s.4.1.7.4c.3.3.6.9.5 1.9-.1-.3-.2-1.7-1.2-2.3zM129.6 98.6s.6 0 1.2.1c.6 0 1.2.1 1.2.1l-1-.6-1-.6c-.6.3-1.1.2-1.1.2s.4.3.7.8zm-1 1.6c.2-.8.2-1.4.1-1.8-.1-.4-.3-.7-.3-.7s.3-.1.6-.4c.3-.3.7-.8.9-1.6 0 0 .1.1.1.3 0 .2 0 .5-.1.8 0 0 2.2.7 2.7 2.1-.6.4-1.4.5-2.1.5-.7 0-1.3-.2-1.3-.2-.2.8-.6 1-.6 1z"/><path class="st0" d="M126.1 102.3c.5-.2 1.1-.5 1.5-1 .1-.1.2-.3.3-.4.1-.2.2-.3.2-.5.1-.4.2-.9.1-1.4 0 0-.2.6-.7 1.1-.5.6-1.3 1-2.4.9 0 0-.2.4-.3.8-.1.2-.2.4-.2.5-.1.1-.1.2-.1.2.9.7 1.1 1.6 1.1 2.4 0 .7-.3 1.3-.3 1.3.4-.3.7-.7.9-1.1.2-.4.3-.7.3-1.1 0-.6-.2-1.2-.4-1.7z"/><path class="st0" d="M125.4 101.5c1.2.2 2.2-.8 2.4-1.1-.5.9-1.2 1.2-1.6 1.2-.5 0-.8-.1-.8-.1zM125.1 102.2s.3.1.6.4c.3.4.5 1 .3 2 0-.3.1-1.6-.9-2.4zM127.9 103.6l1.2.2c.6.1 1.1.2 1.1.2s-.5-.3-1-.7c-.5-.3-1-.7-1-.7-.6.3-1.1.1-1.1.1s.1.1.3.2c.2.1.4.4.5.7zm-1.2 1.4c.3-.7.3-1.4.2-1.8 0-.2-.1-.4-.1-.5 0-.1-.1-.2-.1-.2s.3-.1.6-.3c.4-.3.8-.7 1.1-1.4v.3c0 .2-.1.5-.2.8 0 0 2.1 1 2.4 2.4-.6.4-1.5.3-2.2.2-.7-.1-1.2-.3-1.2-.3-.1.6-.5.8-.5.8z"/><path class="st0" d="M123.9 106.8c.6-.1 1.1-.3 1.6-.8.2-.2.5-.5.6-.9.1-.4.2-.8.3-1.4 0 0-.3.6-.8 1-.6.5-1.4.9-2.5.6 0 0 0 .1-.1.2s-.2.3-.3.5c-.2.4-.4.7-.4.7.8.8.9 1.8.8 2.5-.1.7-.4 1.3-.4 1.3.9-.6 1.3-1.3 1.5-2 0-.6-.1-1.2-.3-1.7z"/><path class="st0" d="M123.4 105.9c1.2.3 2.2-.6 2.5-.8-.7.8-1.3 1-1.7 1-.6 0-.8-.2-.8-.2zM123 106.6s.3.1.6.5c.2.4.4 1 .1 2 0-.3.1-1.7-.7-2.5zM125.6 108.3s.6.2 1.1.3c.6.2 1.1.3 1.1.3s-.4-.4-.9-.8c-.4-.4-.9-.8-.9-.8-.3.1-.6.1-.8 0-.2 0-.3-.1-.3-.1s.5.4.7 1.1zm-1.4 1.3c.4-.7.5-1.3.4-1.8 0-.4-.1-.7-.1-.7h.2c.1 0 .3-.1.5-.2.4-.2.9-.6 1.3-1.3 0 0 .1.5-.3 1.1 0 0 .5.3 1 .8s1.1 1.1 1.2 1.9c-1.3.6-3.4-.5-3.4-.5-.1.3-.3.5-.5.7-.1-.1-.3 0-.3 0z"/><path class="st0" d="M121.3 111c.6 0 1.2-.2 1.7-.6.3-.2.5-.5.7-.9.2-.4.4-.8.4-1.3 0 0-.1.1-.2.3-.2.2-.4.4-.7.6-.6.4-1.5.7-2.6.3l-1 1.4c.7.9.7 1.8.5 2.6-.1.4-.2.7-.3.9-.1.2-.2.3-.2.3.9-.5 1.4-1.2 1.7-1.8.2-.6.1-1.2 0-1.8z"/><path class="st0" d="M120.8 110.1c1.2.4 2.3-.3 2.5-.5-.7.8-1.3.9-1.8.8-.4-.1-.7-.3-.7-.3zM120.4 110.7s.3.2.5.6c.2.4.3 1.1-.2 2 0-.2.2-.6.2-1 0-.5-.1-1.1-.5-1.6zM122.8 112.7s.5.2 1.1.5c.5.2 1.1.5 1.1.5s-.4-.4-.8-.9c-.4-.4-.8-.9-.8-.9-.6.1-1.1-.2-1.1-.2s.4.3.5 1zm-1.5 1.1c.2-.3.4-.6.5-.9.1-.3.1-.6.1-.8 0-.5-.1-.7-.1-.7s.3 0 .7-.2c.4-.2.9-.5 1.4-1.2 0 0 0 .5-.4 1 0 0 .5.3.9.9.5.5.9 1.2.9 2-1.4.5-3.3-.8-3.3-.8-.2.3-.4.5-.5.6-.1.1-.2.1-.2.1z"/><path class="st0" d="M118.2 115c.6 0 1.2-.1 1.8-.4.6-.4 1.1-1 1.4-2l-.3.3c-.2.2-.4.4-.8.5-.3.2-.7.3-1.1.4-.4 0-.9-.1-1.4-.3 0 0-.3.3-.6.7-.1.2-.3.3-.4.4l-.2.2c.6 1 .5 1.9.3 2.6-.1.4-.3.6-.4.8-.1.2-.2.3-.2.3 1-.4 1.5-1 1.8-1.6l.3-.9c-.1-.5-.1-.8-.2-1z"/><path class="st0" d="M117.9 114c.6.3 1.1.3 1.6.2.5-.1.8-.3 1-.4-.8.7-1.5.7-1.9.6-.5-.2-.7-.4-.7-.4zM117.3 114.6s.3.2.5.6c.2.4.2 1.1-.4 2 .1-.3.6-1.6-.1-2.6zM119.5 116.8l1 .6 1 .6s-.3-.5-.7-1c-.3-.5-.7-.9-.7-.9-.6 0-1.1-.3-1.1-.3s.5.3.5 1zm-1.6 1c.5-.6.7-1.2.8-1.6.1-.4 0-.7 0-.7s.3 0 .7-.1c.4-.1 1-.4 1.5-1 0 0 0 .1-.1.3-.1.2-.2.4-.5.7 0 0 1.7 1.6 1.5 3-.7.2-1.5-.1-2.1-.5-.6-.3-1.1-.7-1.1-.7-.2.5-.7.6-.7.6z"/><path class="st0" d="M114.7 118.5c1.1.2 2.6-.1 3.4-2.1 0 0-.4.4-1.1.7-.2.1-.4.1-.6.2-.2 0-.4.1-.6 0-.4 0-.9-.1-1.4-.5l-.6.6-.6.6c.5 1 .3 2 0 2.6-.3.7-.8 1.1-.8 1.1.5-.1.9-.3 1.3-.6.3-.2.6-.5.7-.8.3-.6.4-1.2.3-1.8z"/><path class="st0" d="M114.5 117.5c1 .6 2.3.2 2.6 0-.9.6-1.5.6-2 .4-.4-.1-.6-.4-.6-.4zM113.9 118s.3.2.4.7c.1.4.1 1.1-.6 1.9.2-.2.8-1.5.2-2.6zM115.9 120.5s.5.3 1 .7c.5.3 1 .7 1 .7l-.6-1-.6-1c-.6 0-1.1-.4-1.1-.4s.3.3.3 1zm-1.7.8c.6-.5.9-1.1 1-1.5.1-.2.1-.4.1-.5v-.2s.3.1.7 0c.4-.1 1-.3 1.6-.8 0 0 0 .1-.1.3-.1.2-.2.4-.5.6 0 0 1.5 1.8 1.2 3.2-.7.1-1.5-.3-2.1-.7-.6-.4-1-.8-1-.8-.4.4-.9.4-.9.4z"/><path class="st0" d="M110.9 121.7c.5.2 1.2.2 1.8 0 .3-.1.6-.3.9-.6.3-.3.6-.7.8-1.1 0 0-.5.4-1.2.6-.7.2-1.7.2-2.5-.5 0 0-.3.3-.7.5-.4.2-.7.5-.7.5.2.5.2 1 .2 1.5-.1.4-.3.8-.5 1.1-.4.6-.9 1-.9 1 1-.2 1.7-.6 2.1-1.2.5-.6.7-1.2.7-1.8z"/><path class="st0" d="M110.8 120.7c1 .8 2.3.4 2.6.3-.9.5-1.6.4-2 .2-.4-.2-.6-.5-.6-.5zM110.1 121.1s.2.3.3.7c.1.4 0 1.1-.8 1.8.3-.2 1-1.3.5-2.5zM111.8 123.7s.4.4.9.8c.4.4.9.8.9.8s-.2-.5-.5-1.1c-.2-.5-.5-1.1-.5-1.1-.6-.1-1-.6-1-.6s.3.6.2 1.2zm-1.8.7c.3-.2.6-.5.7-.7.2-.2.3-.5.4-.7.2-.4.2-.7.2-.7s.3.1.7.1c.4 0 1-.2 1.7-.7 0 0-.1.5-.7.8 0 0 .3.5.6 1.1.3.7.5 1.5.3 2.2-1.5 0-2.8-1.8-2.8-1.8-.3.2-.5.4-.7.4h-.4z"/><path class="st0" d="M106.8 124.4c.5.2 1.2.3 1.8.2.3-.1.7-.2 1-.5.3-.2.7-.6.9-1 0 0-.5.3-1.2.4-.7.1-1.7 0-2.5-.8l-1.5.9c.3 1.1-.1 2-.6 2.5-.5.6-1 .9-1 .9.5 0 1-.1 1.3-.3.4-.2.7-.4.9-.6.6-.5.8-1.1.9-1.7z"/><path class="st0" d="M106.7 123.4c.9.9 2.2.7 2.5.6-1 .4-1.6.2-2 0-.3-.3-.5-.6-.5-.6zM106.1 123.8s.2.3.2.7c0 .5-.2 1.1-1 1.7.1-.1.4-.4.6-.9.2-.4.3-.9.2-1.5zM107.4 126.6s.4.4.8.9c.4.4.8.9.8.9s-.2-.6-.3-1.1c-.2-.6-.4-1.1-.4-1.1-.6-.2-.9-.7-.9-.7s.2.4 0 1.1zm-1.8.4c.3-.2.6-.4.8-.6.2-.2.4-.5.5-.7.2-.4.2-.7.2-.7s.3.1.7.1c.5 0 1.1-.1 1.7-.5 0 0-.2.5-.8.8 0 0 .3.5.5 1.2s.3 1.5 0 2.2c-.7-.1-1.4-.6-1.8-1.1-.5-.5-.8-1-.8-1-.5.4-1 .3-1 .3z"/><path class="st0" d="M102.3 126.7c.5.3 1.1.4 1.8.4.7-.1 1.4-.5 2.1-1.3 0 0-.6.3-1.3.3-.4 0-.8 0-1.2-.2-.4-.2-.8-.4-1.2-.9l-.8.4c-.2.1-.4.2-.5.2-.1.1-.2.1-.2.1.2 1.1-.3 1.9-.9 2.5-.3.3-.5.4-.8.6l-.4.2c.5 0 1 0 1.4-.1.4-.1.7-.3 1-.5.3-.2.5-.5.6-.7.3-.5.4-.7.4-1z"/><path class="st0" d="M102.4 125.6c.4.5.9.7 1.4.8.5.1.9.1 1 .1-.3.1-.5.1-.7.1h-.6c-.3-.1-.6-.2-.7-.3-.3-.3-.4-.7-.4-.7zM101.7 126s.2.3.2.8-.3 1-1.2 1.6c.2-.3 1.2-1.2 1-2.4zM102.8 128.9s.3.5.7 1c.3.5.7 1 .7 1l-.2-1.2-.2-1.2c-.6-.2-.9-.8-.9-.8s.1.6-.1 1.2zm-1.9.2c.7-.3 1.2-.8 1.4-1.1.2-.4.3-.7.3-.7s.3.1.7.2c.4.1 1.1.1 1.8-.3 0 0-.1.1-.2.3-.1.1-.4.3-.7.4 0 0 .8 2.1.1 3.4-.7-.1-1.3-.8-1.7-1.3-.4-.6-.7-1.1-.7-1.1-.5.4-1 .2-1 .2z"/><path class="st0" d="M97.7 128.4c.5.3 1 .5 1.7.5s1.4-.3 2.2-1c0 0-.6.2-1.3.2-.7 0-1.6-.4-2.2-1.3 0 0-.4.1-.8.3l-.8.2c0 1.1-.5 1.9-1.1 2.4-.6.4-1.2.6-1.2.6.5.1 1 .1 1.4 0 .4-.1.7-.2 1-.4.6-.4.9-.9 1.1-1.5z"/><path class="st0" d="M97.9 127.4c.7 1 2 1.2 2.3 1.2-1 .2-1.6-.2-1.9-.5-.3-.3-.4-.7-.4-.7zM97.2 127.6s.1.3.1.8c-.1.4-.4 1-1.3 1.5.2-.2 1.2-1 1.2-2.3zM97.9 130.7l.6 1 .6 1s0-.6-.1-1.2-.1-1.2-.1-1.2c-.6-.3-.8-.8-.8-.8s.1.6-.2 1.2zm-1.9 0c.7-.2 1.2-.6 1.5-1 .3-.3.4-.6.4-.6s.2.2.7.3c.4.1 1.1.2 1.8-.1l-.2.2c-.2.1-.4.3-.7.3 0 0 .6 2.2-.2 3.4-.7-.2-1.2-.9-1.6-1.5-.4-.6-.5-1.2-.5-1.2-.7.4-1.2.2-1.2.2z"/><path class="st0" d="M92.9 129.7c.4.4 1 .7 1.7.7.3 0 .7 0 1.1-.1.4-.1.8-.3 1.2-.7 0 0-.6.1-1.3 0-.7-.1-1.6-.5-2.1-1.6 0 0-.1 0-.3.1-.2 0-.4.1-.6.1-.4.1-.8.1-.8.1-.1 1.1-.7 1.9-1.4 2.2-.6.4-1.2.5-1.2.5 1 .3 1.8.2 2.4-.1.6-.3 1-.7 1.3-1.2z"/><path class="st0" d="M93.2 128.7c.5 1.1 1.9 1.3 2.2 1.4-1 0-1.6-.3-1.9-.7-.2-.4-.3-.7-.3-.7zM92.5 128.8s.1.3 0 .8c-.1.4-.5 1-1.5 1.3.2-.1 1.4-.9 1.5-2.1zM92.9 131.9s.2.5.5 1.1c.2.5.5 1.1.5 1.1v-1.2-1.2c-.5-.4-.7-.9-.7-.9s0 .6-.3 1.1zm-1.9-.2c.8-.1 1.3-.5 1.6-.8.3-.3.5-.6.5-.6s.1.1.2.1c.1.1.3.2.5.2.4.2 1 .3 1.8.1 0 0-.3.4-1 .4 0 0 .1.6.1 1.3 0 .7-.2 1.6-.7 2.1-1.3-.6-1.8-2.9-1.8-2.9-.3.1-.6.1-.8.1-.3.1-.4 0-.4 0z"/><path class="st0" d="M84.2 131.4s.6 0 1.3-.4c.3-.2.7-.4 1-.7.3-.3.5-.8.6-1.3 0 0 .4 0 .9-.1H88.9c.4 1.1 1.2 1.5 1.9 1.8.4.1.7.1.9.1h.4c-.2.1-.4.3-.7.3-.2.1-.4.1-.6.2-.4.1-.8.1-1.1 0-.7-.1-1.2-.5-1.6-.9-.3.5-.8.9-1.4 1.2-.7.2-1.6.2-2.5-.2zm6.3-.4c-.3-.1-1.6-.4-2-1.6 0 0 0 .4.2.8.2.3.7.7 1.8.8zm-4.6.4c.3-.1.5-.1.7-.2.2-.1.3-.2.5-.3.3-.2.4-.4.5-.7.2-.4.1-.8.1-.8-.3 1.3-1.5 1.9-1.8 2z"/><path class="st0" d="M87.7 132.6s.2.6.3 1.1c.2.6.3 1.1.3 1.1l.2-1.2.2-1.2c-.5-.4-.6-1-.6-1s0 .7-.4 1.2zm-1.8-.4c.8 0 1.3-.3 1.7-.6.4-.3.5-.5.5-.5s.2.2.6.4c.4.2 1 .4 1.8.3 0 0-.4.4-1 .3 0 0 0 .6-.1 1.3-.1.7-.4 1.5-.9 2-1.2-.8-1.5-3.1-1.5-3.1-.3.1-.6 0-.8 0-.2 0-.3-.1-.3-.1zM84.2 125.5c-22.3 0-40.4-18.3-40.4-40.8 0-22.5 18.1-40.8 40.4-40.8 22.3 0 40.4 18.3 40.4 40.8 0 22.5-18.1 40.8-40.4 40.8zm0-80.8c-21.8 0-39.5 17.9-39.5 39.9s17.7 39.9 39.5 39.9 39.5-17.9 39.5-39.9c0-21.9-17.7-39.9-39.5-39.9z"/><path class="st0" d="M164.9 76.1c-.8-.7-1.9-1-3.1-.8h-.2c-2-17.6-9.8-33.8-22.3-46.5-14.7-14.8-34.3-23-55.1-23C63.3 5.8 43.7 14 29 28.9 16.5 41.6 8.7 57.9 6.7 75.4h-.2c-1.2-.2-2.2.1-3.1.8-.8.7-1.2 1.7-1.2 2.8h.5c0-1 .4-1.8 1.1-2.4.5-.4 1.2-.7 1.9-.7.2 0 .5 0 .7.1h.8l6.9 1.2 6.3 1.1 6 1.1.5.1.4.1.7.1c.3 0 .5.1.8.1.9 0 1.7-.3 2.3-.8.8-.7 1.2-1.7 1.2-2.8 0-2.3-1.8-4.5-4-5 6-25.5 28.8-44.6 55.9-44.6 27.1 0 49.9 19.1 55.9 44.6-2.2.5-4 2.7-4 5 0 1.1.4 2.2 1.2 2.8.6.5 1.4.8 2.3.8.2 0 .5 0 .8-.1l.7-.1.4-.1.5-.1 6-1.1 6.3-1.1 6.9-1.2.5-.1h.2c.2 0 .5-.1.7-.1.7 0 1.4.3 1.9.7.7.6 1.1 1.4 1.1 2.4h.5c.1-1.1-.4-2.1-1.2-2.8zm-133.1.1c0 1-.4 1.8-1.1 2.4-.7.6-1.6.8-2.6.6L27 79c.2-2.5.6-4.9 1.2-7.3 2 .5 3.6 2.4 3.6 4.5zm52.4-50.1c-30.1 0-54.9 23.2-57.7 52.9l-6-1.1-6.3-1.1-6.9-1.2c4.4-39 37.2-69.2 76.9-69.2s72.5 30.3 77 69.2l-6.9 1.2-6.3 1.1-6 1.1c-3-29.7-27.8-52.9-57.8-52.9zm56 53.1c-1 .2-1.9 0-2.6-.6-.7-.6-1.1-1.4-1.1-2.4 0-2.1 1.6-4 3.6-4.5.5 2.4.9 4.8 1.2 7.3l-1.1.2zM163.3 90.4c-.4-.3-.8-.5-1.2-.7v-.1l-.3.1h-.2c-.4-.1-.9-.1-1.3 0l-4.4.8-9.6 1.7-4.4.8h-.7c-.7 0-1.3-.3-1.9-.7-.7-.6-1.1-1.4-1.1-2.4h-.5c0 1.1.4 2.2 1.2 2.8.6.5 1.3.8 2.2.8-4.2 27.8-28.1 49.2-56.8 49.2-28.7 0-52.6-21.4-56.8-49.2.8 0 1.5-.3 2.1-.8.8-.7 1.2-1.7 1.2-2.8h-.5c0 1-.4 1.8-1.1 2.4-.5.4-1.2.7-1.9.7h-.7l-4.4-.8-9.6-1.7-4.4-.8c-.4-.1-.9-.1-1.3 0h-.2l-.3-.1v.1c-.5.1-.9.4-1.2.7-.8.7-1.2 1.7-1.2 2.8 0 2.1 1.5 4.1 3.4 4.8 2.7 16 10.2 30.7 21.7 42.4 14.7 14.9 34.3 23.1 55.2 23.1 20.8 0 40.4-8.2 55.2-23.1 11.6-11.7 19.1-26.4 21.7-42.4 2-.7 3.4-2.7 3.4-4.8-.1-1.1-.5-2.1-1.3-2.8zM4.4 93.2c0-1 .4-1.8 1.1-2.4.3-.2.6-.4.9-.5.2 2.4.4 4.8.8 7.1-1.6-.7-2.8-2.4-2.8-4.2zM84.2 163c-38.2 0-70-28-76.3-64.8h.2l.1-.5c-.1 0-.3-.1-.4-.1-.4-2.5-.7-4.9-.9-7.5.4-.1.8 0 1.2 0l4.4.8 9.6 1.7 4.4.8h.4c4.2 28.1 28.3 49.8 57.3 49.8 29 0 53.1-21.6 57.3-49.8h.4l4.4-.8 9.6-1.7 4.4-.8c.4-.1.8-.1 1.2 0-.2 2.5-.5 5-.9 7.5-.1 0-.3.1-.4.1l.1.5h.2C154.1 135 122.3 163 84.2 163zm77-65.6c.4-2.4.6-4.7.8-7.1.3.1.7.3.9.5.7.6 1.1 1.4 1.1 2.4 0 1.8-1.2 3.5-2.8 4.2z"/><path class="st0" d="M146.1 112.9l1 1.4c.5.7.9 1.4.9 1.4s.1-.3.3-.8c.1-.3.2-.6.3-1 .1-.4.2-.8.3-1.3.5-1.9 1-4.3 1.3-6.8.3-2.5.4-5 .4-6.8 0-1.8-.2-3.1-.2-3.1s-.2 1.2-.7 2.9c-.5 1.7-1.3 4-2.3 6.1-1 2.2-2.1 4.2-3 5.6-.2.4-.4.7-.6 1-.2.3-.4.5-.5.7-.3.4-.4.6-.4.6h1.6c.8.2 1.6.1 1.6.1zM21.6 112.9s.8.1 1.7.1h1.6s-.2-.2-.4-.6c-.1-.2-.3-.5-.5-.7-.2-.3-.4-.6-.6-1-.9-1.5-2.1-3.5-3-5.6-1-2.1-1.8-4.4-2.3-6.1-.5-1.7-.7-2.9-.7-2.9s-.1 1.2-.2 3.1c0 1.8.1 4.3.4 6.8.3 2.5.8 5 1.3 6.8.1.5.2.9.3 1.3.1.4.2.7.3 1 .2.5.3.8.3.8s.5-.7.9-1.4c.5-.9.9-1.6.9-1.6zM146.1 56.1s-.8-.1-1.7-.1h-1.6s.2.2.4.6c.1.2.3.5.5.7.2.3.4.6.6 1 .9 1.5 2.1 3.5 3 5.6 1 2.2 1.8 4.4 2.3 6.1.5 1.7.7 2.9.7 2.9s.1-1.2.2-3.1c0-1.8-.1-4.3-.4-6.8-.3-2.5-.8-5-1.3-6.8-.1-.5-.2-.9-.3-1.3-.1-.4-.2-.7-.3-1-.2-.5-.3-.8-.3-.8s-.5.7-.9 1.4c-.4 1-.9 1.6-.9 1.6zM21.6 56.1l-1-1.4c-.5-.7-.9-1.4-.9-1.4s-.1.3-.3.8c-.1.3-.2.6-.3 1-.1.4-.2.8-.3 1.3-.5 1.9-1 4.3-1.3 6.8-.3 2.5-.4 5-.4 6.8 0 1.8.2 3.1.2 3.1s.2-1.2.7-2.9c.5-1.7 1.3-4 2.3-6.1 1-2.2 2.1-4.2 3-5.6.2-.4.4-.7.6-1 .2-.3.4-.5.5-.7.4-.6.6-.8.6-.8h-1.6c-.9.1-1.8.1-1.8.1zM7.6 81.2l3.2.6v.9l-.3-.3-1.7-.3v.7l1 .2.3-.2v1.1l-.3-.3-1.1-.2v.7l1.7.3.3-.2v.9l-3.2-.6.2-.2v-2.9l-.1-.2zM15.3 82.5v1.1c-.5-.3-1-.5-1.4-.6-.2 0-.4 0-.4.1s.3.4 1 .7c.7.4 1 .8 1 1.2 0 .7-.5 1-1.4.8-.4-.1-.8-.2-1.3-.5l-.3.2v-1.2c.5.4 1 .7 1.5.8.3 0 .4 0 .4-.2 0-.1-.3-.3-.8-.6-.4-.2-.7-.4-.9-.7-.2-.2-.2-.4-.2-.7 0-.3.2-.6.5-.7.3-.1.6-.1.9 0 .3 0 .6.2 1.1.4l.3-.1zM20.6 83.6v1l-.2-.2-.9-.2v2.3l.2.3-1.4-.2.2-.2V84l-.9-.2-.3.2v-1l3.3.6zM22.4 87.2l.2-.2v-2.9l-.2-.3 1.8.3c1.2.2 1.9.9 1.9 2s-.6 1.6-1.8 1.3l-1.9-.2zm1.2-.4l.5.1c.6.1.9-.2.9-.9s-.3-1.1-1-1.2l-.5-.1v2.1zM144.1 87.6c0-.3 0-.5.1-.6.1-.3.3-.6.5-.8.1-.1.3-.3.6-.5l.4-.3c.2-.1.3-.2.4-.3.1-.1.1-.2.1-.3 0-.1 0-.2-.1-.2s-.2-.1-.4 0c-.2 0-.4.1-.6.3-.2.1-.5.4-.7.6l-.4-.7c.5-.5 1.1-.8 1.8-1 .4-.1.7 0 .9.1.2.2.4.4.4.7 0 .3-.1.6-.3.9-.1.2-.3.3-.6.5l-.4.2s-.1.1-.3.2c-.2.1-.3.2-.3.2l1.8-.3.2-.2v1l-3.1.5zM150.5 83.1c.4-.1.8 0 1.1.2.3.3.5.7.5 1.2 0 .2 0 .4-.1.6 0 .2-.1.4-.2.5-.1.3-.3.5-.6.7-.2.1-.5.2-.7.3-.4.1-.8 0-1.1-.2-.1-.1-.2-.3-.3-.4-.1-.2-.2-.5-.2-.8 0-.4.1-.8.3-1.1.1-.3.3-.5.6-.7.2-.2.4-.3.7-.3zm0 .7c-.2 0-.4.2-.5.4-.1.2-.2.5-.2.7 0 .3.1.5.2.7.1.2.3.2.5.2s.4-.2.5-.4c.1-.2.2-.5.2-.7 0-.3-.1-.5-.2-.7-.1-.2-.3-.3-.5-.2zM153.2 84v-.6l1-.9.3-.1v3.2l.1.2-1.2.2.1-.2v-2.2l-.3.4zM158.9 82.7c-.3-.2-.7-.3-1.1-.2-.2 0-.4.1-.6.3-.1.1-.2.2-.2.3-.1.1-.1.2-.1.2 0-.1.2-.1.3-.2.2-.1.4-.2.6-.2.4-.1.7 0 .9.1.1.1.3.2.4.3.1.1.1.3.1.5 0 .4-.1.7-.5 1-.3.3-.6.4-1.1.5-.5.1-.8 0-1.1-.2-.2-.1-.3-.3-.4-.5-.1-.2-.1-.5-.1-.7 0-.5.2-1 .5-1.4.3-.4.8-.6 1.3-.7.5-.1.9 0 1.3.2l-.2.7zm-1.2.9c-.2 0-.4.1-.5.2-.1.1-.2.2-.2.3 0 .1.1.2.2.3.1.1.3.1.5.1s.4-.1.5-.2c.1-.1.2-.2.2-.3 0-.1 0-.2-.2-.3-.1-.1-.3-.1-.5-.1z"/></svg>